<?xml version="1.0" encoding="UTF-8"?>
<svg xmlns="http://www.w3.org/2000/svg" xmlns:xlink="http://www.w3.org/1999/xlink" version="1.2" >
<font id="Futura PT Book">
<font-face  font-family="Futura PT" units-per-em="1000" ascent="763" descent="-237" font-style="normal" font-weight="400" font-stretch="normal" cap-height="667" x-height="415" underline-position="-75" underline-thickness="50" />
<missing-glyph  horiz-adv-x="233" d="" />
<glyph glyph-name="NULL" d="" />
<glyph glyph-name="CR" unicode="&#xd;" horiz-adv-x="250" d="" />
<glyph glyph-name="space" unicode="&#x20;" horiz-adv-x="233" d="" />
<glyph glyph-name="exclam" unicode="&#x21;" horiz-adv-x="280" d="M176 135 L176 667 L104 667 L104 135 L176 135 Z M90 40 C90 13 113 -10 140 -10 C167 -10 190 13 190 40 C190 67 167 90 140 90 C113 90 90 67 90 40 L90 40 Z " />
<glyph glyph-name="quotedbl" unicode="&#x22;" horiz-adv-x="330" d="M134 667 L54 667 L67 399 L121 399 L134 667 Z M276 667 L196 667 L209 399 L263 399 L276 667 Z " />
<glyph glyph-name="numbersign" unicode="&#x23;" horiz-adv-x="600" d="M394 0 L426 207 L536 207 L546 273 L436 273 L456 406 L566 406 L576 472 L466 472 L496 667 L423 667 L393 472 L257 472 L287 667 L214 667 L184 472 L74 472 L64 406 L174 406 L154 273 L44 273 L34 207 L144 207 L112 0 L185 0 L217 207 L353 207 L321 0 L394 0 Z M363 273 L227 273 L247 406 L383 406 L363 273 Z " />
<glyph glyph-name="dollar" unicode="&#x24;" horiz-adv-x="568" d="M467 574 C452 603 429 630 403 648 C373 669 346 674 327 676 L327 763 L267 763 L267 676 C181 668 111 601 111 506 C111 464 122 430 157 397 C191 365 240 343 267 332 L267 58 C245 59 216 67 189 95 C169 115 154 145 149 180 L77 160 C86 119 108 73 139 42 C168 14 212 -10 267 -12 L267 -101 L327 -101 L327 -8 C434 9 491 103 491 193 C491 240 476 281 444 314 C416 343 376 365 327 384 L327 606 C338 604 353 600 370 585 C384 573 399 553 408 535 L467 574 Z M327 304 C342 298 368 284 383 269 C398 254 415 229 415 190 C415 136 383 77 327 62 L327 304 Z M267 411 C247 419 224 433 210 447 C191 466 185 485 185 507 C185 554 213 597 267 606 L267 411 Z " />
<glyph glyph-name="percent" unicode="&#x25;" horiz-adv-x="710" d="M178 673 C97 673 33 609 33 528 C33 447 97 383 178 383 C259 383 323 447 323 528 C323 609 259 673 178 673 L178 673 Z M178 438 C131 438 93 478 93 528 C93 578 131 618 178 618 C227 618 263 577 263 528 C263 479 227 438 178 438 L178 438 Z M141 10 L180 -13 L569 658 L530 680 L141 10 Z M532 283 C451 283 387 219 387 138 C387 57 451 -7 532 -7 C613 -7 677 57 677 138 C677 219 613 283 532 283 L532 283 Z M532 48 C485 48 447 88 447 138 C447 188 485 228 532 228 C581 228 617 187 617 138 C617 89 581 48 532 48 L532 48 Z " />
<glyph glyph-name="ampersand" unicode="&#x26;" horiz-adv-x="636" d="M545 289 C526 263 505 239 469 201 L330 380 C373 416 367 408 384 423 C437 469 446 513 446 544 C446 611 398 678 305 678 C209 678 160 607 160 537 C160 492 181 452 226 394 C212 385 149 346 114 311 C92 289 54 245 54 173 C54 67 138 -12 247 -12 C323 -12 404 35 462 93 L534 0 L626 0 L514 145 C555 187 581 219 599 244 L545 289 Z M417 148 C392 124 317 56 246 56 C177 56 128 108 128 174 C128 226 156 253 175 270 C194 287 220 309 269 339 L417 148 Z M257 475 C244 493 230 512 230 541 C230 583 263 614 304 614 C339 614 376 592 376 545 C376 522 369 498 331 468 L287 434 L257 475 Z " />
<glyph glyph-name="quotesingle" unicode="&#x27;" horiz-adv-x="188" d="M134 667 L54 667 L67 399 L121 399 L134 667 Z " />
<glyph glyph-name="parenleft" unicode="&#x28;" horiz-adv-x="294" d="M167 740 C147 687 123 612 108 548 C85 448 80 355 80 288 C80 214 87 130 101 56 C104 40 123 -55 167 -170 L230 -141 C209 -83 191 -23 178 42 C159 132 154 204 154 286 C154 373 161 451 179 538 C193 606 212 664 230 711 L167 740 Z " />
<glyph glyph-name="parenright" unicode="&#x29;" horiz-adv-x="294" d="M64 711 C82 664 101 606 115 538 C133 451 140 373 140 286 C140 204 135 132 116 42 C103 -23 85 -83 64 -141 L127 -170 C171 -55 190 40 193 56 C207 130 214 214 214 288 C214 355 209 448 186 548 C171 612 147 687 127 740 L64 711 Z " />
<glyph glyph-name="asterisk" unicode="&#x2a;" horiz-adv-x="568" d="M139 648 L118 585 L238 551 L161 454 L215 415 L284 518 L353 415 L407 454 L330 551 L450 585 L429 648 L313 605 L318 729 L250 729 L255 605 L139 648 Z " />
<glyph glyph-name="plus" unicode="&#x2b;" horiz-adv-x="500" d="M33 300 L214 300 L214 128 L286 128 L286 300 L467 300 L467 366 L286 366 L286 538 L214 538 L214 366 L33 366 L33 300 Z " />
<glyph glyph-name="comma" unicode="&#x2c;" horiz-adv-x="274" d="M24 -133 L71 -152 L172 74 L106 98 L24 -133 Z " />
<glyph glyph-name="hyphen" unicode="&#x2d;" horiz-adv-x="320" d="M50 176 L270 176 L270 250 L50 250 L50 176 Z " />
<glyph glyph-name="period" unicode="&#x2e;" horiz-adv-x="228" d="M64 40 C64 13 87 -10 114 -10 C141 -10 164 13 164 40 C164 67 141 90 114 90 C87 90 64 67 64 40 L64 40 Z " />
<glyph glyph-name="slash" unicode="&#x2f;" horiz-adv-x="592" d="M0 -170 L58 -198 L572 729 L514 759 L0 -170 Z " />
<glyph glyph-name="zero" unicode="0" horiz-adv-x="568" d="M284 -12 C337 -12 404 14 455 88 C499 152 522 238 522 333 C522 428 499 514 455 578 C404 652 337 678 284 678 C231 678 164 652 113 578 C69 514 46 428 46 333 C46 238 69 152 113 88 C164 14 231 -12 284 -12 L284 -12 Z M284 610 C318 610 364 592 399 536 C435 479 448 403 448 333 C448 263 435 187 399 130 C364 74 318 56 284 56 C250 56 204 74 169 130 C133 187 120 263 120 333 C120 403 133 479 169 536 C204 592 250 610 284 610 L284 610 Z " />
<glyph glyph-name="one" unicode="1" horiz-adv-x="568" d="M266 0 L340 0 L340 667 L193 667 L154 597 L266 597 L266 0 Z " />
<glyph glyph-name="two" unicode="2" horiz-adv-x="568" d="M481 0 L481 68 L199 68 L338 225 C365 256 401 297 429 336 C469 393 482 434 482 479 C482 594 394 678 276 678 C193 678 146 642 118 610 C92 580 71 539 68 472 L142 472 C143 506 151 531 164 551 C189 589 228 610 275 610 C354 610 408 555 408 480 C408 453 401 421 371 378 C355 354 310 301 293 281 L50 0 L481 0 Z " />
<glyph glyph-name="three" unicode="3" horiz-adv-x="568" d="M160 502 C162 530 173 555 186 572 C212 605 245 610 272 610 C354 610 386 555 386 496 C386 436 351 408 330 397 C309 386 280 381 254 383 L254 317 C280 318 309 313 330 303 C381 280 396 229 396 191 C396 117 339 56 265 56 C223 56 184 74 162 106 C149 124 141 149 138 173 L64 173 C65 149 69 127 79 103 C115 17 196 -12 265 -12 C379 -12 470 64 470 189 C470 304 397 341 374 350 C442 384 460 450 460 498 C460 590 398 678 272 678 C232 678 161 669 117 600 C100 573 88 539 86 502 L160 502 Z " />
<glyph glyph-name="four" unicode="4" horiz-adv-x="568" d="M436 704 L20 126 L362 126 L362 0 L436 0 L436 126 L518 126 L518 194 L436 194 L436 704 Z M151 194 L362 489 L362 194 L151 194 Z " />
<glyph glyph-name="five" unicode="5" horiz-adv-x="568" d="M479 667 L214 667 L117 345 C177 387 222 391 246 391 C341 391 410 323 410 227 C410 133 340 56 246 56 C200 56 166 73 138 96 C118 112 104 128 93 150 L34 108 C50 81 71 58 92 40 C137 3 187 -12 241 -12 C372 -12 484 79 484 228 C484 358 398 459 264 459 C248 459 235 458 222 455 L265 599 L479 599 L479 667 Z " />
<glyph glyph-name="six" unicode="6" horiz-adv-x="568" d="M336 683 L109 368 C59 298 54 240 54 215 C54 110 128 -12 285 -12 C418 -12 514 84 514 217 C514 341 426 437 298 437 C277 437 258 434 239 428 L392 641 L336 683 Z M284 56 C191 56 128 126 128 215 C128 302 192 369 283 369 C374 369 440 304 440 215 C440 125 376 56 284 56 L284 56 Z " />
<glyph glyph-name="seven" unicode="7" horiz-adv-x="568" d="M52 23 L110 -16 L556 667 L66 667 L66 599 L431 599 L52 23 Z " />
<glyph glyph-name="eight" unicode="8" horiz-adv-x="568" d="M387 347 C440 378 468 431 468 493 C468 588 404 678 284 678 C164 678 100 588 100 493 C100 431 128 378 181 347 C113 317 80 256 80 184 C80 80 148 -12 284 -12 C420 -12 488 80 488 184 C488 256 455 317 387 347 L387 347 Z M284 377 C219 377 170 426 170 492 C170 565 223 610 284 610 C345 610 398 565 398 492 C398 426 349 377 284 377 L284 377 Z M284 56 C207 56 154 110 154 186 C154 261 208 313 284 313 C360 313 414 261 414 186 C414 110 361 56 284 56 L284 56 Z " />
<glyph glyph-name="nine" unicode="9" horiz-adv-x="568" d="M232 -16 L459 298 C509 367 514 426 514 451 C514 556 440 678 283 678 C150 678 54 582 54 449 C54 325 142 229 270 229 C291 229 310 232 329 238 L176 25 L232 -16 Z M284 610 C377 610 440 540 440 451 C440 364 376 297 285 297 C194 297 128 362 128 451 C128 541 192 610 284 610 L284 610 Z " />
<glyph glyph-name="colon" unicode="&#x3a;" horiz-adv-x="228" d="M64 375 C64 348 87 325 114 325 C141 325 164 348 164 375 C164 402 141 425 114 425 C87 425 64 402 64 375 L64 375 Z M64 38 C64 11 87 -12 114 -12 C141 -12 164 11 164 38 C164 65 141 88 114 88 C87 88 64 65 64 38 L64 38 Z " />
<glyph glyph-name="semicolon" unicode="&#x3b;" horiz-adv-x="274" d="M78 375 C78 348 101 325 128 325 C155 325 178 348 178 375 C178 402 155 425 128 425 C101 425 78 402 78 375 L78 375 Z M24 -133 L71 -152 L172 74 L106 98 L24 -133 Z " />
<glyph glyph-name="less" unicode="&#x3c;" horiz-adv-x="500" d="M110 330 L467 492 L467 564 L33 361 L33 299 L467 96 L467 168 L110 330 Z " />
<glyph glyph-name="equal" unicode="&#x3d;" horiz-adv-x="500" d="M33 384 L467 384 L467 450 L33 450 L33 384 Z M33 230 L467 230 L467 296 L33 296 L33 230 Z " />
<glyph glyph-name="greater" unicode="&#x3e;" horiz-adv-x="500" d="M390 330 L33 168 L33 96 L467 299 L467 361 L33 564 L33 492 L390 330 Z " />
<glyph glyph-name="question" unicode="&#x3f;" horiz-adv-x="436" d="M289 289 C289 265 280 237 265 222 C254 211 237 204 216 204 C192 204 176 213 167 222 C157 232 147 248 147 274 C147 321 181 337 196 344 C220 355 245 361 268 369 C298 380 324 395 345 419 C371 449 379 481 379 517 C379 578 356 614 335 635 C302 668 261 678 217 678 C158 678 119 658 95 632 C63 598 57 556 57 524 C57 508 58 494 61 480 L135 480 C131 493 129 509 129 522 C129 544 137 572 155 589 C171 604 195 610 218 610 C249 610 268 599 279 589 C302 568 305 539 305 519 C305 493 300 452 241 431 C220 423 192 419 157 403 C113 383 73 350 73 279 C73 225 97 192 113 176 C133 156 166 136 217 136 C272 136 304 159 320 176 C345 202 361 242 361 289 L289 289 Z M168 38 C168 11 191 -12 218 -12 C245 -12 268 11 268 38 C268 65 245 88 218 88 C191 88 168 65 168 38 L168 38 Z " />
<glyph glyph-name="at" unicode="&#x40;" horiz-adv-x="733" d="M480 427 C466 468 431 504 370 504 C266 504 195 408 195 301 C195 212 249 140 335 140 C411 140 451 197 460 211 C463 171 492 144 533 144 C612 144 696 241 696 380 C696 559 550 676 380 676 C185 676 33 524 33 331 C33 128 182 -13 389 -13 C449 -13 533 -4 614 35 L599 81 C511 40 437 35 390 35 C160 35 84 204 84 330 C84 496 215 628 381 628 C527 628 648 530 648 379 C648 260 582 188 535 188 C502 188 499 220 498 234 C498 237 498 239 498 242 C500 262 517 373 545 491 L493 491 L480 427 Z M346 194 C299 194 253 231 253 303 C253 378 305 450 375 450 C418 450 461 423 461 353 C461 272 417 194 346 194 L346 194 Z " />
<glyph glyph-name="A" unicode="A" horiz-adv-x="622" d="M532 0 L614 0 L315 699 L8 0 L90 0 L170 188 L454 188 L532 0 Z M199 258 L313 525 L425 258 L199 258 Z " />
<glyph glyph-name="B" unicode="B" horiz-adv-x="530" d="M86 667 L86 0 L252 0 C298 0 359 2 412 44 C448 72 480 124 480 188 C480 252 446 333 353 356 C412 396 419 454 419 487 C419 568 380 609 359 625 C310 664 243 667 206 667 L86 667 Z M160 597 L218 597 C239 597 347 595 347 485 C347 382 255 374 216 374 L160 374 L160 597 Z M160 308 L236 308 C289 308 324 302 349 288 C375 274 406 243 406 190 C406 150 388 117 362 98 C330 73 288 70 245 70 L160 70 L160 308 Z " />
<glyph glyph-name="C" unicode="C" horiz-adv-x="646" d="M596 612 C516 673 439 678 399 678 C199 678 50 530 50 331 C50 138 197 -12 395 -12 C445 -12 522 0 596 53 L596 145 C584 133 557 108 519 89 C484 71 440 58 395 58 C273 58 126 149 126 330 C126 484 240 608 394 608 C433 608 474 598 509 582 C543 566 575 541 596 520 L596 612 Z " />
<glyph glyph-name="D" unicode="D" horiz-adv-x="632" d="M86 0 L221 0 C340 0 404 25 465 77 C513 118 582 193 582 333 C582 453 529 538 468 589 C384 660 289 667 222 667 L86 667 L86 0 Z M160 597 L225 597 C394 597 506 493 506 333 C506 238 466 172 416 130 C351 76 278 70 225 70 L160 70 L160 597 Z " />
<glyph glyph-name="E" unicode="E" horiz-adv-x="482" d="M432 667 L86 667 L86 0 L432 0 L432 70 L160 70 L160 329 L424 329 L424 399 L160 399 L160 597 L432 597 L432 667 Z " />
<glyph glyph-name="F" unicode="F" horiz-adv-x="434" d="M390 667 L86 667 L86 0 L160 0 L160 330 L382 330 L382 400 L160 400 L160 597 L390 597 L390 667 Z " />
<glyph glyph-name="G" unicode="G" horiz-adv-x="758" d="M430 265 L628 265 C626 223 613 191 601 170 C563 103 486 58 397 58 C271 58 126 150 126 332 C126 487 238 608 399 608 C479 608 529 578 561 552 C583 534 605 510 624 483 L679 533 C660 559 632 589 602 612 C537 662 462 678 398 678 C199 678 50 527 50 333 C50 139 198 -12 396 -12 C549 -12 624 81 644 108 C686 165 708 245 708 319 L708 335 L430 335 L430 265 Z " />
<glyph glyph-name="H" unicode="H" horiz-adv-x="662" d="M160 667 L86 667 L86 0 L160 0 L160 326 L502 326 L502 0 L576 0 L576 667 L502 667 L502 396 L160 396 L160 667 Z " />
<glyph glyph-name="I" unicode="I" horiz-adv-x="246" d="M86 667 L86 0 L160 0 L160 667 L86 667 Z " />
<glyph glyph-name="J" unicode="J" horiz-adv-x="306" d="M146 667 L146 185 C146 144 146 102 121 77 C109 65 91 58 71 58 C46 58 17 71 -5 95 L-46 37 C-16 3 25 -12 73 -12 C122 -12 156 5 179 30 C219 72 220 133 220 187 L220 667 L146 667 Z " />
<glyph glyph-name="K" unicode="K" horiz-adv-x="568" d="M160 667 L86 667 L86 0 L160 0 L160 287 L179 306 L452 0 L554 0 L232 356 L544 667 L444 667 L160 381 L160 667 Z " />
<glyph glyph-name="L" unicode="L" horiz-adv-x="358" d="M86 667 L86 0 L344 0 L344 70 L160 70 L160 667 L86 667 Z " />
<glyph glyph-name="M" unicode="M" horiz-adv-x="863" d="M139 0 L205 464 L429 -28 L656 464 L719 0 L795 0 L691 705 L430 141 L174 704 L63 0 L139 0 Z " />
<glyph glyph-name="N" unicode="N" horiz-adv-x="766" d="M160 0 L160 515 L680 -30 L680 667 L606 667 L606 150 L86 695 L86 0 L160 0 Z " />
<glyph glyph-name="O" unicode="O" horiz-adv-x="794" d="M397 -12 C590 -12 744 135 744 333 C744 532 589 678 397 678 C205 678 50 532 50 333 C50 135 204 -12 397 -12 L397 -12 Z M397 608 C547 608 668 486 668 333 C668 180 547 58 397 58 C247 58 126 180 126 333 C126 486 247 608 397 608 L397 608 Z " />
<glyph glyph-name="P" unicode="P" horiz-adv-x="456" d="M86 667 L86 0 L160 0 L160 290 L225 290 C377 290 436 383 436 477 C436 519 424 578 375 620 C330 659 274 667 207 667 L86 667 Z M160 597 L215 597 C263 597 362 587 362 481 C362 404 309 360 221 360 L160 360 L160 597 Z " />
<glyph glyph-name="Q" unicode="Q" horiz-adv-x="794" d="M652 -7 L748 -7 L650 94 C689 135 744 211 744 333 C744 532 588 678 397 678 C205 678 50 532 50 333 C50 135 205 -12 397 -12 C503 -12 570 30 598 49 L652 -7 Z M480 268 L384 268 L545 102 C493 68 439 58 397 58 C247 58 126 180 126 333 C126 486 247 608 397 608 C546 608 668 486 668 333 C668 235 622 175 597 148 L480 268 Z " />
<glyph glyph-name="R" unicode="R" horiz-adv-x="502" d="M86 667 L86 0 L160 0 L160 292 L179 292 L382 0 L472 0 L260 298 C361 305 428 380 428 482 C428 553 394 604 355 630 C305 664 238 667 193 667 L86 667 Z M160 597 L205 597 C237 597 271 595 301 578 C343 554 354 517 354 480 C354 402 299 358 207 358 L160 358 L160 597 Z " />
<glyph glyph-name="S" unicode="S" horiz-adv-x="518" d="M443 574 C428 603 405 630 378 648 C345 670 312 678 271 678 C163 678 84 609 84 506 C84 456 101 425 130 397 C160 368 193 354 219 342 L279 314 C314 298 340 286 359 268 C383 246 392 220 392 190 C392 123 349 58 258 58 C224 58 191 66 162 95 C143 115 127 145 122 180 L50 160 C59 120 79 74 112 42 C158 -3 213 -12 257 -12 C377 -12 468 70 468 193 C468 241 454 280 420 314 C392 342 356 360 317 377 L253 405 C228 416 203 427 183 447 C165 464 158 479 158 505 C158 567 204 608 270 608 C308 608 332 595 345 585 C360 573 375 553 384 535 L443 574 Z " />
<glyph glyph-name="T" unicode="T" horiz-adv-x="426" d="M412 597 L412 667 L14 667 L14 597 L176 597 L176 0 L250 0 L250 597 L412 597 Z " />
<glyph glyph-name="U" unicode="U" horiz-adv-x="646" d="M160 667 L86 667 L86 238 C86 182 92 128 128 78 C168 23 238 -12 323 -12 C408 -12 478 23 518 78 C554 128 560 182 560 238 L560 667 L486 667 L486 258 C486 202 486 141 433 96 C406 73 360 58 323 58 C286 58 240 73 213 96 C160 141 160 202 160 258 L160 667 Z " />
<glyph glyph-name="V" unicode="V" horiz-adv-x="556" d="M8 667 L278 -40 L548 667 L466 667 L278 158 L90 667 L8 667 Z " />
<glyph glyph-name="W" unicode="W" horiz-adv-x="958" d="M8 667 L264 -35 L474 499 L670 -35 L950 667 L868 667 L673 167 L475 701 L266 167 L90 667 L8 667 Z " />
<glyph glyph-name="X" unicode="X" horiz-adv-x="504" d="M14 0 L98 0 L253 274 L406 0 L490 0 L297 345 L480 667 L396 667 L254 416 L116 667 L32 667 L211 345 L14 0 Z " />
<glyph glyph-name="Y" unicode="Y" horiz-adv-x="530" d="M227 0 L301 0 L301 287 L522 667 L436 667 L264 369 L94 667 L8 667 L227 287 L227 0 Z " />
<glyph glyph-name="Z" unicode="Z" horiz-adv-x="536" d="M512 667 L71 667 L71 597 L388 597 L24 0 L502 0 L502 70 L148 70 L512 667 Z " />
<glyph glyph-name="bracketleft" unicode="&#x5b;" horiz-adv-x="290" d="M248 663 L248 729 L80 729 L80 -170 L248 -170 L248 -104 L152 -104 L152 663 L248 663 Z " />
<glyph glyph-name="backslash" unicode="&#x5c;" horiz-adv-x="597" d="M597 -170 L78 759 L20 729 L539 -198 L597 -170 Z " />
<glyph glyph-name="bracketright" unicode="&#x5d;" horiz-adv-x="290" d="M42 -104 L42 -170 L210 -170 L210 729 L42 729 L42 663 L138 663 L138 -104 L42 -104 Z " />
<glyph glyph-name="asciicircum" unicode="&#x5e;" horiz-adv-x="500" d="M250 612 L396 365 L474 365 L297 667 L203 667 L26 365 L104 365 L250 612 Z " />
<glyph glyph-name="underscore" unicode="&#x5f;" horiz-adv-x="500" d="M0 -132 L500 -132 L500 -68 L0 -68 L0 -132 Z " />
<glyph glyph-name="grave" unicode="&#x60;" horiz-adv-x="500" d="M249 497 L293 521 L188 666 L114 632 L249 497 Z " />
<glyph glyph-name="a" unicode="a" horiz-adv-x="526" d="M386 356 C367 381 324 425 244 425 C138 425 42 351 42 208 C42 62 139 -12 244 -12 C317 -12 362 27 386 58 L386 0 L458 0 L458 415 L386 415 L386 356 Z M252 361 C316 361 390 314 390 207 C390 125 340 52 252 52 C166 52 116 119 116 208 C116 309 181 361 252 361 L252 361 Z " />
<glyph glyph-name="b" unicode="b" horiz-adv-x="526" d="M140 58 C171 18 218 -12 285 -12 C411 -12 484 91 484 205 C484 317 412 425 282 425 C252 425 189 418 140 357 L140 729 L68 729 L68 0 L140 0 L140 58 Z M275 52 C190 52 136 121 136 206 C136 306 207 361 274 361 C341 361 410 307 410 205 C410 122 359 52 275 52 L275 52 Z " />
<glyph glyph-name="c" unicode="c" horiz-adv-x="438" d="M393 385 C373 399 330 425 264 425 C136 425 42 332 42 205 C42 80 135 -12 264 -12 C303 -12 351 -2 396 31 L396 117 C358 71 305 52 262 52 C188 52 116 105 116 206 C116 307 186 361 263 361 C300 361 355 347 393 299 L393 385 Z " />
<glyph glyph-name="d" unicode="d" horiz-adv-x="526" d="M386 356 C367 381 324 425 244 425 C138 425 42 351 42 208 C42 62 139 -12 244 -12 C317 -12 362 27 386 58 L386 0 L458 0 L458 729 L386 729 L386 356 Z M252 361 C316 361 390 314 390 207 C390 125 340 52 252 52 C166 52 116 119 116 208 C116 309 181 361 252 361 L252 361 Z " />
<glyph glyph-name="e" unicode="e" horiz-adv-x="481" d="M376 139 C367 119 352 98 333 82 C309 62 282 52 248 52 C176 52 117 107 116 193 L439 193 C441 248 426 312 400 349 C375 385 324 425 243 425 C118 425 42 329 42 205 C42 51 147 -12 247 -12 C300 -12 347 5 385 39 C406 58 424 83 436 106 L376 139 Z M121 253 C132 315 182 361 243 361 C304 361 353 318 365 253 L121 253 Z " />
<glyph glyph-name="f" unicode="f" horiz-adv-x="240" d="M244 349 L244 415 L142 415 L142 588 C142 610 142 633 151 648 C162 666 181 670 197 670 C212 670 229 667 244 661 L244 731 C236 734 219 740 193 740 C160 740 130 730 110 713 C73 682 70 634 70 596 L70 415 L30 415 L30 349 L70 349 L70 0 L142 0 L142 349 L244 349 Z " />
<glyph glyph-name="g" unicode="g" horiz-adv-x="526" d="M386 356 C353 399 305 425 244 425 C188 425 137 403 102 369 C72 339 42 289 42 208 C42 124 74 72 102 44 C134 12 183 -12 244 -12 C317 -12 362 27 386 58 L386 -2 C386 -37 384 -74 363 -108 C339 -148 304 -166 253 -166 C221 -166 183 -159 153 -126 C135 -106 121 -75 121 -40 L50 -40 C50 -101 76 -146 104 -174 C132 -202 181 -230 252 -230 C330 -230 387 -195 418 -153 C458 -99 458 -35 458 10 L458 415 L386 415 L386 356 Z M252 361 C289 361 323 347 346 324 C372 299 390 256 390 207 C390 158 371 114 343 87 C320 64 290 52 252 52 C214 52 186 65 163 86 C123 123 116 172 116 208 C116 242 123 286 158 322 C178 342 208 361 252 361 L252 361 Z " />
<glyph glyph-name="h" unicode="h" horiz-adv-x="470" d="M68 0 L140 0 L140 217 C140 247 142 296 170 329 C191 354 218 361 243 361 C275 361 297 349 311 331 C328 309 330 280 330 255 L330 0 L402 0 L402 257 C402 303 399 337 378 368 C353 405 308 425 259 425 C190 425 153 384 140 367 L140 729 L68 729 L68 0 Z " />
<glyph glyph-name="i" unicode="i" horiz-adv-x="208" d="M68 415 L68 0 L140 0 L140 415 L68 415 Z M53 572 C53 544 76 521 104 521 C132 521 155 544 155 572 C155 600 132 623 104 623 C76 623 53 600 53 572 L53 572 Z " />
<glyph glyph-name="j" unicode="j" horiz-adv-x="208" d="M68 415 L68 -230 L140 -230 L140 415 L68 415 Z M53 572 C53 544 76 521 104 521 C132 521 155 544 155 572 C155 600 132 623 104 623 C76 623 53 600 53 572 L53 572 Z " />
<glyph glyph-name="k" unicode="k" horiz-adv-x="422" d="M68 729 L68 0 L140 0 L140 171 L158 189 L324 0 L418 0 L208 237 L386 415 L292 415 L140 261 L140 729 L68 729 Z " />
<glyph glyph-name="l" unicode="l" horiz-adv-x="208" d="M68 729 L68 0 L140 0 L140 729 L68 729 Z " />
<glyph glyph-name="m" unicode="m" horiz-adv-x="685" d="M68 0 L140 0 L140 226 C140 276 149 361 231 361 C307 361 306 275 306 246 L306 0 L378 0 L378 231 C378 281 387 361 470 361 C538 361 544 299 544 252 L544 0 L616 0 L616 263 C616 322 604 425 481 425 C453 425 396 421 356 358 C348 372 318 425 243 425 C199 425 163 405 140 371 L140 415 L68 415 L68 0 Z " />
<glyph glyph-name="n" unicode="n" horiz-adv-x="470" d="M68 0 L140 0 L140 217 C140 247 142 296 170 329 C191 354 218 361 243 361 C275 361 297 349 311 331 C328 309 330 280 330 255 L330 0 L402 0 L402 257 C402 303 399 337 378 368 C353 405 308 425 259 425 C190 425 153 384 140 367 L140 415 L68 415 L68 0 Z " />
<glyph glyph-name="o" unicode="o" horiz-adv-x="524" d="M262 -12 C388 -12 482 80 482 206 C482 332 389 425 262 425 C135 425 42 332 42 206 C42 80 136 -12 262 -12 L262 -12 Z M262 361 C338 361 408 308 408 206 C408 105 337 52 262 52 C188 52 116 104 116 206 C116 307 186 361 262 361 L262 361 Z " />
<glyph glyph-name="p" unicode="p" horiz-adv-x="526" d="M140 58 C171 18 218 -12 285 -12 C411 -12 484 91 484 205 C484 317 412 425 282 425 C252 425 189 418 140 357 L140 415 L68 415 L68 -230 L140 -230 L140 58 Z M275 52 C190 52 136 121 136 206 C136 306 207 361 274 361 C341 361 410 307 410 205 C410 122 359 52 275 52 L275 52 Z " />
<glyph glyph-name="q" unicode="q" horiz-adv-x="526" d="M386 356 C367 381 324 425 244 425 C138 425 42 351 42 208 C42 62 139 -12 244 -12 C317 -12 362 27 386 58 L386 -230 L458 -230 L458 415 L386 415 L386 356 Z M252 361 C316 361 390 314 390 207 C390 125 340 52 252 52 C166 52 116 119 116 208 C116 309 181 361 252 361 L252 361 Z " />
<glyph glyph-name="r" unicode="r" horiz-adv-x="296" d="M68 0 L140 0 L140 219 C140 287 152 315 164 331 C175 345 193 357 222 357 C233 357 248 354 264 343 L298 408 C280 417 256 425 234 425 C178 425 147 381 140 370 L140 415 L68 415 L68 0 Z " />
<glyph glyph-name="s" unicode="s" horiz-adv-x="352" d="M298 350 C265 421 206 425 184 425 C114 425 63 382 63 309 C63 288 66 268 82 248 C101 225 133 209 183 187 C222 170 250 157 250 118 C250 87 229 52 182 52 C130 52 106 98 98 120 L36 94 C71 -10 164 -12 181 -12 C261 -12 324 37 324 124 C324 147 320 169 302 191 C286 211 258 230 198 255 C151 275 131 284 131 314 C131 346 155 361 181 361 C208 361 229 343 239 319 L298 350 Z " />
<glyph glyph-name="t" unicode="t" horiz-adv-x="214" d="M214 349 L214 415 L142 415 L142 565 L70 565 L70 415 L26 415 L26 349 L70 349 L70 0 L142 0 L142 349 L214 349 Z " />
<glyph glyph-name="u" unicode="u" horiz-adv-x="466" d="M140 415 L68 415 L68 165 C68 114 73 76 106 40 C143 1 192 -12 233 -12 C274 -12 323 1 360 40 C393 76 398 114 398 165 L398 415 L326 415 L326 173 C326 144 326 110 306 84 C295 70 273 52 233 52 C193 52 171 70 160 84 C140 110 140 144 140 173 L140 415 Z " />
<glyph glyph-name="v" unicode="v" horiz-adv-x="424" d="M8 415 L212 -27 L416 415 L336 415 L212 135 L88 415 L8 415 Z " />
<glyph glyph-name="w" unicode="w" horiz-adv-x="682" d="M8 415 L212 -29 L340 281 L468 -29 L674 415 L594 415 L470 133 L341 447 L211 133 L88 415 L8 415 Z " />
<glyph glyph-name="x" unicode="x" horiz-adv-x="454" d="M8 0 L96 0 L227 169 L358 0 L446 0 L274 221 L426 415 L338 415 L229 274 L122 415 L34 415 L185 222 L8 0 Z " />
<glyph glyph-name="y" unicode="y" horiz-adv-x="460" d="M67 -230 L147 -230 L452 415 L372 415 L237 118 L90 415 L8 415 L199 39 L67 -230 Z " />
<glyph glyph-name="z" unicode="z" horiz-adv-x="460" d="M452 415 L66 415 L66 349 L308 349 L8 0 L440 0 L440 66 L152 66 L452 415 Z " />
<glyph glyph-name="braceleft" unicode="&#x7b;" horiz-adv-x="501" d="M275 581 C275 604 275 632 294 650 C312 667 346 668 356 668 L371 668 L371 729 L344 729 C315 729 278 727 251 709 C207 680 203 631 203 593 L203 398 C203 373 199 352 190 337 C177 316 159 310 146 309 L146 251 C159 250 177 244 190 223 C199 208 203 187 203 162 L203 -34 C203 -72 207 -121 251 -150 C278 -168 315 -170 344 -170 L371 -170 L371 -109 L356 -109 C346 -109 312 -108 294 -91 C275 -73 275 -45 275 -22 L275 167 C275 192 272 220 262 238 C252 255 233 271 214 280 C233 289 252 305 262 322 C272 340 275 368 275 393 L275 581 Z " />
<glyph glyph-name="bar" unicode="&#x7c;" horiz-adv-x="500" d="M214 -250 L286 -250 L286 750 L214 750 L214 -250 Z " />
<glyph glyph-name="braceright" unicode="&#x7d;" horiz-adv-x="501" d="M226 393 C226 368 229 340 239 322 C249 305 268 289 287 280 C268 271 249 255 239 238 C229 220 226 192 226 167 L226 -22 C226 -45 226 -73 207 -91 C189 -108 155 -109 145 -109 L130 -109 L130 -170 L157 -170 C186 -170 223 -168 250 -150 C294 -121 298 -72 298 -34 L298 162 C298 187 302 208 311 223 C324 244 342 250 355 251 L355 309 C342 310 324 316 311 337 C302 352 298 373 298 398 L298 593 C298 631 294 680 250 709 C223 727 186 729 157 729 L130 729 L130 668 L145 668 C155 668 189 667 207 650 C226 632 226 604 226 581 L226 393 Z " />
<glyph glyph-name="asciitilde" unicode="&#x7e;" horiz-adv-x="500" d="M446 361 C439 347 427 329 414 317 C397 300 376 293 353 293 C322 293 288 311 258 325 C216 345 182 359 145 359 C111 359 82 348 58 321 C43 304 22 269 10 243 L54 217 C62 235 75 257 89 269 C104 282 121 289 141 289 C167 289 191 278 236 257 C271 241 305 223 344 223 C385 223 416 238 440 262 C461 282 479 310 490 335 L446 361 Z " />
<glyph glyph-name="uni00A0" unicode="&#xa0;" horiz-adv-x="233" d="" />
<glyph glyph-name="exclamdown" unicode="&#xa1;" horiz-adv-x="280" d="M104 302 L104 -230 L176 -230 L176 302 L104 302 Z M190 397 C190 424 167 447 140 447 C113 447 90 424 90 397 C90 370 113 347 140 347 C167 347 190 370 190 397 L190 397 Z " />
<glyph glyph-name="cent" unicode="&#xa2;" horiz-adv-x="568" d="M344 655 L284 655 L284 556 C223 548 182 519 160 497 C132 469 98 420 98 339 C98 265 126 216 157 186 C190 154 237 132 284 125 L284 14 L344 14 L344 123 C397 129 433 151 452 165 L452 251 C432 227 394 194 344 188 L344 494 C394 488 429 457 449 433 L449 519 C419 539 383 553 344 558 L344 655 Z M284 189 C265 193 240 201 216 225 C185 256 172 295 172 340 C172 390 189 431 215 457 C229 471 251 487 284 491 L284 189 Z " />
<glyph glyph-name="sterling" unicode="&#xa3;" horiz-adv-x="568" d="M498 458 L498 467 C498 537 471 594 438 626 C414 650 372 676 305 676 C231 676 187 649 161 623 C125 587 108 537 108 489 C108 436 127 396 152 350 L172 313 L86 313 L86 257 L198 257 C211 227 211 201 211 197 C211 168 199 135 183 111 C159 111 130 105 101 81 C86 69 67 46 54 26 L111 -13 C113 -8 124 10 141 23 C160 38 181 41 194 41 C205 41 227 38 269 22 L308 7 C336 -4 361 -11 394 -11 C430 -11 456 1 483 24 C501 39 519 61 532 92 L471 128 C464 111 453 94 440 81 C423 65 405 59 387 59 C369 59 348 68 317 80 L258 102 C277 132 287 166 287 196 C287 215 284 236 276 257 L377 257 L377 313 L251 313 L237 341 C210 395 184 437 184 487 C184 523 200 555 221 575 C238 592 265 606 304 606 C346 606 373 590 389 574 C421 542 425 498 425 468 L425 458 L498 458 Z " />
<glyph glyph-name="currency" unicode="&#xa4;" horiz-adv-x="586" d="M53 636 L13 596 L108 501 C66 452 57 396 57 359 C57 322 66 266 108 217 L14 123 L54 83 L148 176 C197 134 255 125 293 125 C331 125 389 134 438 176 L532 83 L572 123 L478 217 C520 266 529 322 529 359 C529 396 520 452 478 501 L573 596 L533 636 L438 542 C389 584 331 593 293 593 C255 593 197 584 148 542 L53 636 Z M293 189 C198 189 125 259 125 359 C125 459 198 529 293 529 C388 529 461 459 461 359 C461 259 388 189 293 189 L293 189 Z " />
<glyph glyph-name="yen" unicode="&#xa5;" horiz-adv-x="568" d="M518 384 L518 440 L409 440 L542 667 L455 667 L283 369 L113 667 L26 667 L157 440 L51 440 L51 384 L189 384 L240 296 L51 296 L51 240 L246 240 L246 0 L320 0 L320 240 L518 240 L518 296 L326 296 L377 384 L518 384 Z " />
<glyph glyph-name="brokenbar" unicode="&#xa6;" horiz-adv-x="500" d="M214 390 L286 390 L286 750 L214 750 L214 390 Z M214 -250 L286 -250 L286 110 L214 110 L214 -250 Z " />
<glyph glyph-name="section" unicode="&#xa7;" horiz-adv-x="568" d="M464 540 L464 545 C464 589 461 639 411 685 C377 717 338 729 293 729 C241 729 198 711 169 684 C140 657 118 614 118 561 C118 531 125 507 147 480 C166 457 186 444 202 435 C172 423 148 404 128 374 C109 344 101 315 101 283 C101 229 120 191 143 167 C172 135 210 121 262 101 C309 83 335 73 353 54 C367 39 377 18 377 -7 C377 -36 366 -62 349 -78 C328 -99 301 -104 278 -104 C239 -104 217 -88 207 -77 C187 -56 176 -16 176 15 L104 15 C106 -3 103 -72 148 -120 C173 -147 213 -170 276 -170 C313 -170 363 -163 405 -121 C431 -95 451 -55 451 -4 C451 22 445 47 430 70 C416 92 393 112 366 125 C372 128 413 150 439 187 C463 221 467 254 467 286 C467 327 457 364 423 397 C389 430 341 445 303 459 C252 478 230 493 216 507 C198 525 190 545 190 569 C190 596 200 618 219 635 C239 654 264 663 294 663 C313 663 338 659 359 639 C380 619 392 584 392 545 L392 540 L464 540 Z M284 389 C322 389 347 373 361 359 C382 338 393 308 393 280 C393 248 380 220 362 202 C343 182 314 171 284 171 C255 171 225 184 206 202 C193 214 175 238 175 280 C175 318 191 343 206 358 C224 376 250 389 284 389 L284 389 Z " />
<glyph glyph-name="dieresis" unicode="&#xa8;" horiz-adv-x="500" d="M113 550 C113 523 136 500 163 500 C190 500 213 523 213 550 C213 577 190 600 163 600 C136 600 113 577 113 550 L113 550 Z M287 550 C287 523 310 500 337 500 C364 500 387 523 387 550 C387 577 364 600 337 600 C310 600 287 577 287 550 L287 550 Z " />
<glyph glyph-name="copyright" unicode="&#xa9;" horiz-adv-x="740" d="M25 333 C25 143 181 -11 370 -11 C559 -11 715 143 715 333 C715 525 558 678 370 678 C182 678 25 525 25 333 L25 333 Z M659 333 C659 174 530 45 370 45 C210 45 81 174 81 333 C81 493 210 622 370 622 C530 622 659 493 659 333 L659 333 Z M514 497 C474 526 429 535 393 535 C275 535 185 446 185 328 C185 209 273 125 393 125 C425 125 469 130 517 165 L517 246 C487 210 442 185 391 185 C323 185 254 233 254 329 C254 423 320 475 392 475 C427 475 479 460 514 417 L514 497 Z " />
<glyph glyph-name="ordfeminine" unicode="&#xaa;" horiz-adv-x="373" d="M264 627 C254 641 242 649 228 656 C211 664 195 667 177 667 C133 667 101 654 79 632 C60 613 40 581 40 527 C40 493 47 456 78 425 C97 406 128 387 175 387 C196 387 213 391 229 399 C243 406 254 415 264 427 L264 395 L315 395 L315 661 L264 661 L264 627 Z M179 623 C203 623 225 613 240 598 C257 580 267 554 267 527 C267 498 257 473 241 457 C226 442 205 431 180 431 C159 431 136 439 118 456 C101 473 90 499 90 526 C90 551 100 579 117 597 C135 616 158 623 179 623 L179 623 Z M50 333 L50 291 L315 291 L315 333 L50 333 Z " />
<glyph glyph-name="guillemotleft" unicode="&#xab;" horiz-adv-x="430" d="M112 212 L232 363 L186 400 L36 212 L186 30 L232 66 L112 212 Z M260 212 L380 363 L334 400 L184 212 L334 30 L380 66 L260 212 Z " />
<glyph glyph-name="logicalnot" unicode="&#xac;" horiz-adv-x="500" d="M467 0 L467 267 L33 267 L33 203 L397 203 L397 0 L467 0 Z " />
<glyph glyph-name="uni00AD" unicode="&#xad;" horiz-adv-x="320" d="M50 176 L270 176 L270 250 L50 250 L50 176 Z " />
<glyph glyph-name="registered" unicode="&#xae;" horiz-adv-x="740" d="M27 332 C27 136 174 -11 370 -11 C566 -11 713 136 713 332 C713 528 566 675 370 675 C174 675 27 528 27 332 L27 332 Z M657 332 C657 168 534 45 370 45 C206 45 83 168 83 332 C83 496 206 619 370 619 C534 619 657 496 657 332 L657 332 Z M509 145 L380 308 C437 314 477 355 477 412 C477 518 363 519 333 519 L265 519 L265 145 L319 145 L319 303 L441 145 L509 145 Z M319 471 L339 471 C373 471 423 469 423 410 C423 356 374 351 341 351 L319 351 L319 471 Z " />
<glyph glyph-name="macron" unicode="&#xaf;" horiz-adv-x="500" d="M99 513 L401 513 L401 573 L99 573 L99 513 Z " />
<glyph glyph-name="degree" unicode="&#xb0;" horiz-adv-x="493" d="M108 531 C108 452 167 393 246 393 C325 393 384 452 384 531 C384 610 325 669 246 669 C167 669 108 610 108 531 L108 531 Z M158 531 C158 593 207 623 246 623 C285 623 334 593 334 531 C334 469 285 439 246 439 C207 439 158 469 158 531 L158 531 Z " />
<glyph glyph-name="plusminus" unicode="&#xb1;" horiz-adv-x="500" d="M33 345 L214 345 L214 174 L286 174 L286 345 L467 345 L467 411 L286 411 L286 582 L214 582 L214 411 L33 411 L33 345 Z M33 67 L467 67 L467 133 L33 133 L33 67 Z " />
<glyph glyph-name="twosuperior" unicode="&#xb2;" horiz-adv-x="350" d="M297 267 L297 313 L134 313 L211 402 C226 419 248 443 266 469 C289 502 298 527 298 554 C298 625 244 673 169 673 C144 673 104 668 73 632 C55 610 45 582 43 545 L93 545 C93 561 97 579 105 593 C120 618 146 627 170 627 C218 627 246 594 246 555 C246 527 233 507 224 494 C210 473 200 462 178 436 L32 267 L297 267 Z " />
<glyph glyph-name="threesuperior" unicode="&#xb3;" horiz-adv-x="350" d="M102 563 C103 576 108 595 117 606 C125 616 140 627 168 627 C214 627 232 596 232 565 C232 537 216 517 199 508 C187 502 168 499 153 500 L153 454 C168 455 186 453 199 447 C220 438 238 416 238 382 C238 339 207 306 161 306 C132 306 113 321 102 336 C95 346 89 360 88 376 L38 376 C39 362 42 344 48 329 C62 295 97 260 163 260 C243 260 290 314 290 380 C290 418 276 460 232 477 C279 499 284 549 284 566 C284 608 259 673 168 673 C143 673 98 669 71 627 C59 608 53 583 52 563 L102 563 Z " />
<glyph glyph-name="acute" unicode="&#xb4;" horiz-adv-x="500" d="M312 666 L207 521 L252 497 L386 632 L312 666 Z " />
<glyph glyph-name="&amp;#xb5;" unicode="&#xb5;" horiz-adv-x="523" d="M140 -230 L140 61 C147 47 180 -12 256 -12 C319 -12 363 31 383 86 L383 0 L455 0 L455 415 L383 415 L383 217 C383 193 383 150 359 111 C341 81 306 52 258 52 C234 52 195 58 170 90 C141 127 140 183 140 208 L140 415 L68 415 L68 -230 L140 -230 Z " />
<glyph glyph-name="&amp;#x3bc;" unicode="&#x3bc;" horiz-adv-x="523" d="M140 -230 L140 61 C147 47 180 -12 256 -12 C319 -12 363 31 383 86 L383 0 L455 0 L455 415 L383 415 L383 217 C383 193 383 150 359 111 C341 81 306 52 258 52 C234 52 195 58 170 90 C141 127 140 183 140 208 L140 415 L68 415 L68 -230 L140 -230 Z " />
<glyph glyph-name="paragraph" unicode="&#xb6;" horiz-adv-x="580" d="M282 -95 L282 609 L388 609 L388 -95 L450 -95 L450 609 L510 609 L510 667 L242 667 C202 667 128 663 78 620 C47 594 22 549 22 485 C22 425 45 387 67 365 C98 334 153 314 205 314 L220 314 L220 -95 L282 -95 Z " />
<glyph glyph-name="periodcentered" unicode="&#xb7;" horiz-adv-x="200" d="M36 340 C36 306 66 276 100 276 C134 276 164 306 164 340 C164 374 134 404 100 404 C66 404 36 374 36 340 L36 340 Z " />
<glyph glyph-name="cedilla" unicode="&#xb8;" horiz-adv-x="500" d="M266 -52 L182 -183 L231 -207 L332 -79 L266 -52 Z " />
<glyph glyph-name="onesuperior" unicode="&#xb9;" horiz-adv-x="350" d="M166 267 L218 267 L218 667 L112 667 L88 621 L166 621 L166 267 Z " />
<glyph glyph-name="ordmasculine" unicode="&#xba;" horiz-adv-x="374" d="M187 667 C134 667 99 644 78 622 C49 591 41 556 41 528 C41 488 57 453 82 429 C106 405 140 389 187 389 C239 389 274 409 296 432 C312 449 333 479 333 527 C333 567 317 601 295 624 C267 652 226 667 187 667 L187 667 Z M52 333 L52 291 L323 291 L323 333 L52 333 Z M187 623 C222 623 244 609 255 598 C271 583 283 559 283 528 C283 499 272 476 258 461 C240 443 211 433 187 433 C159 433 134 443 118 459 C105 472 91 494 91 527 C91 554 99 578 117 596 C128 607 150 623 187 623 L187 623 Z " />
<glyph glyph-name="guillemotright" unicode="&#xbb;" horiz-adv-x="430" d="M170 218 L50 67 L96 30 L246 218 L96 400 L50 364 L170 218 Z M318 218 L198 67 L244 30 L394 218 L244 400 L198 364 L318 218 Z " />
<glyph glyph-name="onequarter" unicode="&#xbc;" horiz-adv-x="760" d="M166 267 L218 267 L218 667 L112 667 L88 621 L166 621 L166 267 Z M187 10 L225 -13 L613 658 L575 680 L187 10 Z M679 422 L424 76 L629 76 L629 0 L679 0 L679 76 L728 76 L728 122 L679 122 L679 422 Z M516 122 L629 277 L629 122 L516 122 Z " />
<glyph glyph-name="onehalf" unicode="&#xbd;" horiz-adv-x="760" d="M166 267 L218 267 L218 667 L112 667 L88 621 L166 621 L166 267 Z M147 10 L185 -13 L573 658 L535 680 L147 10 Z M707 0 L707 46 L544 46 L621 135 C636 152 658 176 676 202 C699 235 708 260 708 287 C708 358 654 406 579 406 C554 406 514 401 483 365 C465 343 455 315 453 278 L503 278 C503 294 507 312 515 326 C530 351 556 360 580 360 C628 360 656 327 656 288 C656 260 643 240 634 227 C620 206 610 195 588 169 L442 0 L707 0 Z " />
<glyph glyph-name="threequarters" unicode="&#xbe;" horiz-adv-x="760" d="M38 376 C39 342 52 314 69 296 C97 266 136 260 164 260 C198 260 230 268 257 296 C280 320 290 348 290 380 C290 397 288 421 275 441 C265 457 249 469 232 477 C245 483 261 493 272 514 C280 528 284 546 284 566 C284 603 268 627 255 641 C240 657 213 673 170 673 C125 673 98 657 84 642 C67 624 53 595 52 563 L102 563 C103 581 110 601 123 612 C131 620 145 627 168 627 C180 627 198 625 213 612 C222 604 232 589 232 565 C232 542 223 527 213 518 C195 501 170 500 157 500 L153 500 L153 454 L157 454 C171 454 195 453 213 439 C227 428 238 409 238 382 C238 358 229 338 217 326 C200 308 178 306 166 306 C144 306 124 312 108 329 C99 339 90 355 88 376 L38 376 Z M207 10 L245 -13 L633 658 L595 680 L207 10 Z M679 422 L424 76 L629 76 L629 0 L679 0 L679 76 L728 76 L728 122 L679 122 L679 422 Z M516 122 L629 277 L629 122 L516 122 Z " />
<glyph glyph-name="questiondown" unicode="&#xbf;" horiz-adv-x="436" d="M147 147 C147 171 156 199 171 214 C182 225 199 232 220 232 C244 232 260 223 269 214 C279 204 289 188 289 162 C289 115 255 99 240 92 C216 81 191 75 168 67 C138 56 112 41 91 17 C65 -13 57 -45 57 -81 C57 -142 80 -178 101 -199 C134 -232 175 -242 219 -242 C278 -242 317 -222 341 -196 C373 -162 379 -120 379 -88 C379 -72 378 -58 375 -44 L301 -44 C305 -57 307 -73 307 -86 C307 -108 299 -136 281 -153 C265 -168 241 -174 218 -174 C187 -174 168 -163 157 -153 C134 -132 131 -103 131 -83 C131 -57 136 -16 195 5 C216 13 244 17 279 33 C323 53 363 86 363 157 C363 211 339 244 323 260 C303 280 270 300 219 300 C164 300 132 277 116 260 C91 234 75 194 75 147 L147 147 Z M268 397 C268 424 245 447 218 447 C191 447 168 424 168 397 C168 370 191 347 218 347 C245 347 268 370 268 397 L268 397 Z " />
<glyph glyph-name="Agrave" unicode="&#xc0;" horiz-adv-x="622" d="M532 0 L614 0 L315 699 L8 0 L90 0 L170 188 L454 188 L532 0 Z M199 258 L313 525 L425 258 L199 258 Z M321 720 L364 752 L238 882 L168 837 L321 720 Z " />
<glyph glyph-name="Aacute" unicode="&#xc1;" horiz-adv-x="622" d="M532 0 L614 0 L315 699 L8 0 L90 0 L170 188 L454 188 L532 0 Z M199 258 L313 525 L425 258 L199 258 Z M393 882 L267 752 L310 720 L463 837 L393 882 Z " />
<glyph glyph-name="Acircumflex" unicode="&#xc2;" horiz-adv-x="622" d="M532 0 L614 0 L315 699 L8 0 L90 0 L170 188 L454 188 L532 0 Z M199 258 L313 525 L425 258 L199 258 Z M314 797 L402 721 L454 762 L314 881 L174 762 L226 721 L314 797 Z " />
<glyph glyph-name="Atilde" unicode="&#xc3;" horiz-adv-x="622" d="M532 0 L614 0 L315 699 L8 0 L90 0 L170 188 L454 188 L532 0 Z M199 258 L313 525 L425 258 L199 258 Z M423 842 C419 831 412 820 405 813 C395 803 384 799 373 799 C356 799 336 810 317 820 C299 829 276 841 249 841 C221 841 202 830 186 814 C173 802 163 788 156 769 L200 733 C203 745 210 756 217 764 C226 773 236 777 247 777 C262 777 278 769 303 757 C329 744 346 735 370 735 C389 735 416 741 440 766 C451 777 460 791 466 807 L423 842 Z " />
<glyph glyph-name="Adieresis" unicode="&#xc4;" horiz-adv-x="622" d="M532 0 L614 0 L315 699 L8 0 L90 0 L170 188 L454 188 L532 0 Z M199 258 L313 525 L425 258 L199 258 Z M168 784 C168 756 191 733 219 733 C247 733 270 756 270 784 C270 812 247 835 219 835 C191 835 168 812 168 784 L168 784 Z M358 784 C358 756 381 733 409 733 C437 733 460 756 460 784 C460 812 437 835 409 835 C381 835 358 812 358 784 L358 784 Z " />
<glyph glyph-name="Aring" unicode="&#xc5;" horiz-adv-x="622" d="M532 0 L614 0 L315 699 L8 0 L90 0 L170 188 L454 188 L532 0 Z M199 258 L313 525 L425 258 L199 258 Z M227 818 C227 770 267 730 315 730 C363 730 403 770 403 818 C403 866 363 906 315 906 C267 906 227 866 227 818 L227 818 Z M273 819 C273 841 293 861 315 861 C337 861 357 841 357 819 C357 797 337 777 315 777 C293 777 273 797 273 819 L273 819 Z " />
<glyph glyph-name="AE" unicode="&#xc6;" horiz-adv-x="900" d="M538 0 L886 0 L857 70 L586 70 L478 329 L740 329 L711 399 L447 399 L364 597 L633 597 L604 667 L311 667 L14 0 L96 0 L175 187 L459 187 L538 0 Z M207 257 L320 518 L430 257 L207 257 Z " />
<glyph glyph-name="Ccedilla" unicode="&#xc7;" horiz-adv-x="646" d="M596 612 C516 673 439 678 399 678 C199 678 50 530 50 331 C50 138 197 -12 395 -12 C445 -12 522 0 596 53 L596 145 C584 133 557 108 519 89 C484 71 440 58 395 58 C273 58 126 149 126 330 C126 484 240 608 394 608 C433 608 474 598 509 582 C543 566 575 541 596 520 L596 612 Z M364 -52 L280 -184 L330 -210 L434 -82 L364 -52 Z " />
<glyph glyph-name="Egrave" unicode="&#xc8;" horiz-adv-x="482" d="M432 667 L86 667 L86 0 L432 0 L432 70 L160 70 L160 329 L424 329 L424 399 L160 399 L160 597 L432 597 L432 667 Z M271 720 L314 752 L188 882 L118 837 L271 720 Z " />
<glyph glyph-name="Eacute" unicode="&#xc9;" horiz-adv-x="482" d="M432 667 L86 667 L86 0 L432 0 L432 70 L160 70 L160 329 L424 329 L424 399 L160 399 L160 597 L432 597 L432 667 Z M332 882 L206 752 L249 720 L402 837 L332 882 Z " />
<glyph glyph-name="Ecircumflex" unicode="&#xca;" horiz-adv-x="482" d="M432 667 L86 667 L86 0 L432 0 L432 70 L160 70 L160 329 L424 329 L424 399 L160 399 L160 597 L432 597 L432 667 Z M260 797 L348 721 L400 762 L260 881 L120 762 L172 721 L260 797 Z " />
<glyph glyph-name="Edieresis" unicode="&#xcb;" horiz-adv-x="482" d="M432 667 L86 667 L86 0 L432 0 L432 70 L160 70 L160 329 L424 329 L424 399 L160 399 L160 597 L432 597 L432 667 Z M114 784 C114 756 137 733 165 733 C193 733 216 756 216 784 C216 812 193 835 165 835 C137 835 114 812 114 784 L114 784 Z M304 784 C304 756 327 733 355 733 C383 733 406 756 406 784 C406 812 383 835 355 835 C327 835 304 812 304 784 L304 784 Z " />
<glyph glyph-name="Igrave" unicode="&#xcc;" horiz-adv-x="246" d="M86 667 L86 0 L160 0 L160 667 L86 667 Z M125 720 L168 752 L42 882 L-28 837 L125 720 Z " />
<glyph glyph-name="Iacute" unicode="&#xcd;" horiz-adv-x="246" d="M86 667 L86 0 L160 0 L160 667 L86 667 Z M213 882 L87 752 L130 720 L283 837 L213 882 Z " />
<glyph glyph-name="Icircumflex" unicode="&#xce;" horiz-adv-x="246" d="M85 667 L85 0 L159 0 L159 667 L85 667 Z M123 797 L211 721 L263 762 L123 881 L-17 762 L35 721 L123 797 Z " />
<glyph glyph-name="Idieresis" unicode="&#xcf;" horiz-adv-x="246" d="M86 667 L86 0 L160 0 L160 667 L86 667 Z M15 784 C15 756 34 733 60 733 C86 733 105 757 105 784 C105 811 86 835 60 835 C34 835 15 812 15 784 L15 784 Z M141 784 C141 757 160 733 186 733 C212 733 231 756 231 784 C231 812 212 835 186 835 C160 835 141 811 141 784 L141 784 Z " />
<glyph glyph-name="Eth" unicode="&#xd0;" horiz-adv-x="632" d="M86 0 L221 0 C340 0 404 25 465 77 C513 118 582 193 582 333 C582 453 529 538 468 589 C384 660 289 667 222 667 L86 667 L86 400 L0 400 L0 336 L86 336 L86 0 Z M160 597 L225 597 C394 597 506 493 506 333 C506 238 466 172 416 130 C351 76 278 70 225 70 L160 70 L160 336 L296 336 L296 400 L160 400 L160 597 Z " />
<glyph glyph-name="Ntilde" unicode="&#xd1;" horiz-adv-x="766" d="M160 0 L160 515 L680 -30 L680 667 L606 667 L606 150 L86 695 L86 0 L160 0 Z M495 842 C491 831 484 820 477 813 C467 803 456 799 445 799 C428 799 408 810 389 820 C371 829 348 841 321 841 C293 841 274 830 258 814 C245 802 235 788 228 769 L272 733 C275 745 282 756 289 764 C298 773 308 777 319 777 C334 777 350 769 375 757 C401 744 418 735 442 735 C461 735 488 741 512 766 C523 777 532 791 538 807 L495 842 Z " />
<glyph glyph-name="Ograve" unicode="&#xd2;" horiz-adv-x="794" d="M397 -12 C590 -12 744 135 744 333 C744 532 589 678 397 678 C205 678 50 532 50 333 C50 135 204 -12 397 -12 L397 -12 Z M397 608 C547 608 668 486 668 333 C668 180 547 58 397 58 C247 58 126 180 126 333 C126 486 247 608 397 608 L397 608 Z M411 720 L454 752 L328 882 L258 837 L411 720 Z " />
<glyph glyph-name="Oacute" unicode="&#xd3;" horiz-adv-x="794" d="M397 -12 C590 -12 744 135 744 333 C744 532 589 678 397 678 C205 678 50 532 50 333 C50 135 204 -12 397 -12 L397 -12 Z M397 608 C547 608 668 486 668 333 C668 180 547 58 397 58 C247 58 126 180 126 333 C126 486 247 608 397 608 L397 608 Z M462 882 L336 752 L379 720 L532 837 L462 882 Z " />
<glyph glyph-name="Ocircumflex" unicode="&#xd4;" horiz-adv-x="794" d="M397 -12 C590 -12 744 135 744 333 C744 532 589 678 397 678 C205 678 50 532 50 333 C50 135 204 -12 397 -12 L397 -12 Z M397 608 C547 608 668 486 668 333 C668 180 547 58 397 58 C247 58 126 180 126 333 C126 486 247 608 397 608 L397 608 Z M397 797 L485 721 L537 762 L397 881 L257 762 L309 721 L397 797 Z " />
<glyph glyph-name="Otilde" unicode="&#xd5;" horiz-adv-x="794" d="M397 -12 C590 -12 744 135 744 333 C744 532 589 678 397 678 C205 678 50 532 50 333 C50 135 204 -12 397 -12 L397 -12 Z M397 608 C547 608 668 486 668 333 C668 180 547 58 397 58 C247 58 126 180 126 333 C126 486 247 608 397 608 L397 608 Z M509 842 C505 831 498 820 491 813 C481 803 470 799 459 799 C442 799 422 810 403 820 C385 829 362 841 335 841 C307 841 288 830 272 814 C259 802 249 788 242 769 L286 733 C289 745 296 756 303 764 C312 773 322 777 333 777 C348 777 364 769 389 757 C415 744 432 735 456 735 C475 735 502 741 526 766 C537 777 546 791 552 807 L509 842 Z " />
<glyph glyph-name="Odieresis" unicode="&#xd6;" horiz-adv-x="794" d="M397 -12 C590 -12 744 135 744 333 C744 532 589 678 397 678 C205 678 50 532 50 333 C50 135 204 -12 397 -12 L397 -12 Z M397 608 C547 608 668 486 668 333 C668 180 547 58 397 58 C247 58 126 180 126 333 C126 486 247 608 397 608 L397 608 Z M251 784 C251 756 274 733 302 733 C330 733 353 756 353 784 C353 812 330 835 302 835 C274 835 251 812 251 784 L251 784 Z M441 784 C441 756 464 733 492 733 C520 733 543 756 543 784 C543 812 520 835 492 835 C464 835 441 812 441 784 L441 784 Z " />
<glyph glyph-name="multiply" unicode="&#xd7;" horiz-adv-x="500" d="M60 190 L107 143 L250 286 L393 143 L440 190 L297 333 L446 482 L399 529 L250 380 L101 529 L54 482 L203 333 L60 190 Z " />
<glyph glyph-name="Oslash" unicode="&#xd8;" horiz-adv-x="794" d="M744 635 L694 685 L615 605 C538 664 457 678 397 678 C206 678 50 532 50 333 C50 270 66 190 124 116 L44 37 L94 -13 L174 66 C216 31 287 -12 397 -12 C589 -12 744 135 744 333 C744 453 691 524 665 555 L744 635 Z M182 166 C161 193 126 248 126 333 C126 486 247 608 397 608 C480 608 535 572 557 555 L182 166 Z M608 506 C655 448 668 383 668 333 C668 180 546 58 397 58 C359 58 293 67 231 115 L608 506 Z " />
<glyph glyph-name="Ugrave" unicode="&#xd9;" horiz-adv-x="646" d="M160 667 L86 667 L86 238 C86 182 92 128 128 78 C168 23 238 -12 323 -12 C408 -12 478 23 518 78 C554 128 560 182 560 238 L560 667 L486 667 L486 258 C486 202 486 141 433 96 C406 73 360 58 323 58 C286 58 240 73 213 96 C160 141 160 202 160 258 L160 667 Z M331 720 L374 752 L248 882 L178 837 L331 720 Z " />
<glyph glyph-name="Uacute" unicode="&#xda;" horiz-adv-x="646" d="M160 667 L86 667 L86 238 C86 182 92 128 128 78 C168 23 238 -12 323 -12 C408 -12 478 23 518 78 C554 128 560 182 560 238 L560 667 L486 667 L486 258 C486 202 486 141 433 96 C406 73 360 58 323 58 C286 58 240 73 213 96 C160 141 160 202 160 258 L160 667 Z M398 882 L272 752 L315 720 L468 837 L398 882 Z " />
<glyph glyph-name="Ucircumflex" unicode="&#xdb;" horiz-adv-x="646" d="M160 667 L86 667 L86 238 C86 182 92 128 128 78 C168 23 238 -12 323 -12 C408 -12 478 23 518 78 C554 128 560 182 560 238 L560 667 L486 667 L486 258 C486 202 486 141 433 96 C406 73 360 58 323 58 C286 58 240 73 213 96 C160 141 160 202 160 258 L160 667 Z M323 797 L411 721 L463 762 L323 881 L183 762 L235 721 L323 797 Z " />
<glyph glyph-name="Udieresis" unicode="&#xdc;" horiz-adv-x="646" d="M160 667 L86 667 L86 238 C86 182 92 128 128 78 C168 23 238 -12 323 -12 C408 -12 478 23 518 78 C554 128 560 182 560 238 L560 667 L486 667 L486 258 C486 202 486 141 433 96 C406 73 360 58 323 58 C286 58 240 73 213 96 C160 141 160 202 160 258 L160 667 Z M177 784 C177 756 200 733 228 733 C256 733 279 756 279 784 C279 812 256 835 228 835 C200 835 177 812 177 784 L177 784 Z M367 784 C367 756 390 733 418 733 C446 733 469 756 469 784 C469 812 446 835 418 835 C390 835 367 812 367 784 L367 784 Z " />
<glyph glyph-name="Yacute" unicode="&#xdd;" horiz-adv-x="530" d="M227 0 L301 0 L301 287 L522 667 L436 667 L264 369 L94 667 L8 667 L227 287 L227 0 Z M347 882 L221 752 L264 720 L417 837 L347 882 Z " />
<glyph glyph-name="Thorn" unicode="&#xde;" horiz-adv-x="456" d="M86 667 L86 0 L160 0 L160 190 L225 190 C377 190 436 283 436 377 C436 419 424 478 375 520 C330 559 274 567 207 567 L160 567 L160 667 L86 667 Z M160 497 L215 497 C263 497 362 487 362 381 C362 304 309 260 221 260 L160 260 L160 497 Z " />
<glyph glyph-name="germandbls" unicode="&#xdf;" horiz-adv-x="532" d="M148 0 L148 521 C148 562 149 608 171 639 C185 659 209 677 251 677 C286 677 308 665 320 654 C334 641 350 616 350 568 C350 549 347 518 325 494 C303 471 266 460 237 460 L237 396 C274 395 327 384 366 347 C391 323 414 283 414 230 C414 180 394 142 370 117 C341 87 293 62 237 58 L237 -12 C328 -9 391 34 424 68 C462 107 490 163 490 234 C490 305 461 351 435 378 C413 402 382 421 347 433 C361 440 384 454 402 483 C420 512 424 543 424 573 C424 611 416 653 379 691 C343 728 298 741 251 741 C187 741 148 717 125 693 C81 648 76 586 76 549 L76 415 L6 415 L6 349 L76 349 L76 0 L148 0 Z " />
<glyph glyph-name="agrave" unicode="&#xe0;" horiz-adv-x="526" d="M386 356 C367 381 324 425 244 425 C138 425 42 351 42 208 C42 62 139 -12 244 -12 C317 -12 362 27 386 58 L386 0 L458 0 L458 415 L386 415 L386 356 Z M252 361 C316 361 390 314 390 207 C390 125 340 52 252 52 C166 52 116 119 116 208 C116 309 181 361 252 361 L252 361 Z M249 497 L293 521 L188 666 L114 632 L249 497 Z " />
<glyph glyph-name="aacute" unicode="&#xe1;" horiz-adv-x="526" d="M386 356 C367 381 324 425 244 425 C138 425 42 351 42 208 C42 62 139 -12 244 -12 C317 -12 362 27 386 58 L386 0 L458 0 L458 415 L386 415 L386 356 Z M252 361 C316 361 390 314 390 207 C390 125 340 52 252 52 C166 52 116 119 116 208 C116 309 181 361 252 361 L252 361 Z M312 666 L207 521 L252 497 L386 632 L312 666 Z " />
<glyph glyph-name="acircumflex" unicode="&#xe2;" horiz-adv-x="526" d="M386 356 C367 381 324 425 244 425 C138 425 42 351 42 208 C42 62 139 -12 244 -12 C317 -12 362 27 386 58 L386 0 L458 0 L458 415 L386 415 L386 356 Z M252 361 C316 361 390 314 390 207 C390 125 340 52 252 52 C166 52 116 119 116 208 C116 309 181 361 252 361 L252 361 Z M256 578 L348 497 L394 533 L256 654 L118 533 L164 497 L256 578 Z " />
<glyph glyph-name="atilde" unicode="&#xe3;" horiz-adv-x="526" d="M386 356 C367 381 324 425 244 425 C138 425 42 351 42 208 C42 62 139 -12 244 -12 C317 -12 362 27 386 58 L386 0 L458 0 L458 415 L386 415 L386 356 Z M252 361 C316 361 390 314 390 207 C390 125 340 52 252 52 C166 52 116 119 116 208 C116 309 181 361 252 361 L252 361 Z M164 497 C169 506 176 517 185 526 C194 535 202 540 214 540 C229 540 245 532 269 521 C288 512 314 500 338 500 C357 500 381 506 404 530 C417 543 425 556 430 569 L389 603 C385 595 375 580 368 572 C359 562 351 560 339 560 C320 560 306 568 283 580 C261 591 240 600 213 600 C192 600 175 594 156 576 C145 565 131 546 122 531 L164 497 Z " />
<glyph glyph-name="adieresis" unicode="&#xe4;" horiz-adv-x="526" d="M386 356 C367 381 324 425 244 425 C138 425 42 351 42 208 C42 62 139 -12 244 -12 C317 -12 362 27 386 58 L386 0 L458 0 L458 415 L386 415 L386 356 Z M252 361 C316 361 390 314 390 207 C390 125 340 52 252 52 C166 52 116 119 116 208 C116 309 181 361 252 361 L252 361 Z M130 550 C130 523 153 500 180 500 C207 500 230 523 230 550 C230 577 207 600 180 600 C153 600 130 577 130 550 L130 550 Z M304 550 C304 523 327 500 354 500 C381 500 404 523 404 550 C404 577 381 600 354 600 C327 600 304 577 304 550 L304 550 Z " />
<glyph glyph-name="aring" unicode="&#xe5;" horiz-adv-x="526" d="M386 356 C367 381 324 425 244 425 C138 425 42 351 42 208 C42 62 139 -12 244 -12 C317 -12 362 27 386 58 L386 0 L458 0 L458 415 L386 415 L386 356 Z M252 361 C316 361 390 314 390 207 C390 125 340 52 252 52 C166 52 116 119 116 208 C116 309 181 361 252 361 L252 361 Z M182 583 C182 536 221 497 268 497 C315 497 354 536 354 583 C354 630 315 669 268 669 C221 669 182 630 182 583 L182 583 Z M226 583 C226 605 246 625 268 625 C290 625 310 605 310 583 C310 561 290 541 268 541 C246 541 226 561 226 583 L226 583 Z " />
<glyph glyph-name="ae" unicode="&#xe6;" horiz-adv-x="774" d="M667 140 C643 92 597 52 539 52 C468 52 411 111 408 193 L732 193 L732 200 C732 336 655 425 534 425 C467 425 408 396 374 341 C338 417 263 425 217 425 C183 425 143 421 88 403 L88 335 C113 344 168 361 216 361 C259 361 294 349 315 313 C331 287 335 249 334 225 C302 248 265 260 215 260 C119 260 42 212 42 123 C42 32 124 -12 221 -12 C264 -12 335 -3 377 71 C430 -7 505 -12 540 -12 C644 -12 699 51 727 104 L667 140 Z M413 253 C424 322 475 361 535 361 C597 361 649 321 658 253 L413 253 Z M221 196 C303 196 330 155 330 126 C330 94 302 52 219 52 C136 52 114 93 114 123 C114 163 150 196 221 196 L221 196 Z " />
<glyph glyph-name="ccedilla" unicode="&#xe7;" horiz-adv-x="438" d="M393 385 C373 399 330 425 264 425 C136 425 42 332 42 205 C42 80 135 -12 264 -12 C303 -12 351 -2 396 31 L396 117 C358 71 305 52 262 52 C188 52 116 105 116 206 C116 307 186 361 263 361 C300 361 355 347 393 299 L393 385 Z M246 -52 L162 -183 L211 -207 L312 -79 L246 -52 Z " />
<glyph glyph-name="egrave" unicode="&#xe8;" horiz-adv-x="481" d="M376 139 C367 119 352 98 333 82 C309 62 282 52 248 52 C176 52 117 107 116 193 L439 193 C441 248 426 312 400 349 C375 385 324 425 243 425 C118 425 42 329 42 205 C42 51 147 -12 247 -12 C300 -12 347 5 385 39 C406 58 424 83 436 106 L376 139 Z M121 253 C132 315 182 361 243 361 C304 361 353 318 365 253 L121 253 Z M249 497 L293 521 L188 666 L114 632 L249 497 Z " />
<glyph glyph-name="eacute" unicode="&#xe9;" horiz-adv-x="481" d="M376 139 C367 119 352 98 333 82 C309 62 282 52 248 52 C176 52 117 107 116 193 L439 193 C441 248 426 312 400 349 C375 385 324 425 243 425 C118 425 42 329 42 205 C42 51 147 -12 247 -12 C300 -12 347 5 385 39 C406 58 424 83 436 106 L376 139 Z M121 253 C132 315 182 361 243 361 C304 361 353 318 365 253 L121 253 Z M292 666 L187 521 L232 497 L366 632 L292 666 Z " />
<glyph glyph-name="ecircumflex" unicode="&#xea;" horiz-adv-x="481" d="M376 139 C367 119 352 98 333 82 C309 62 282 52 248 52 C176 52 117 107 116 193 L439 193 C441 248 426 312 400 349 C375 385 324 425 243 425 C118 425 42 329 42 205 C42 51 147 -12 247 -12 C300 -12 347 5 385 39 C406 58 424 83 436 106 L376 139 Z M121 253 C132 315 182 361 243 361 C304 361 353 318 365 253 L121 253 Z M242 578 L334 497 L380 533 L242 654 L104 533 L150 497 L242 578 Z " />
<glyph glyph-name="edieresis" unicode="&#xeb;" horiz-adv-x="481" d="M376 139 C367 119 352 98 333 82 C309 62 282 52 248 52 C176 52 117 107 116 193 L439 193 C441 248 426 312 400 349 C375 385 324 425 243 425 C118 425 42 329 42 205 C42 51 147 -12 247 -12 C300 -12 347 5 385 39 C406 58 424 83 436 106 L376 139 Z M121 253 C132 315 182 361 243 361 C304 361 353 318 365 253 L121 253 Z M105 550 C105 523 128 500 155 500 C182 500 205 523 205 550 C205 577 182 600 155 600 C128 600 105 577 105 550 L105 550 Z M279 550 C279 523 302 500 329 500 C356 500 379 523 379 550 C379 577 356 600 329 600 C302 600 279 577 279 550 L279 550 Z " />
<glyph glyph-name="igrave" unicode="&#xec;" horiz-adv-x="208" d="M68 415 L68 0 L140 0 L140 415 L68 415 Z M109 493 L154 514 L63 667 L-14 640 L109 493 Z " />
<glyph glyph-name="iacute" unicode="&#xed;" horiz-adv-x="208" d="M68 415 L68 0 L140 0 L140 415 L68 415 Z M145 667 L52 514 L99 493 L222 640 L145 667 Z " />
<glyph glyph-name="icircumflex" unicode="&#xee;" horiz-adv-x="208" d="M68 415 L68 0 L140 0 L140 415 L68 415 Z M104 572 L179 505 L222 540 L104 646 L-14 540 L29 505 L104 572 Z " />
<glyph glyph-name="idieresis" unicode="&#xef;" horiz-adv-x="208" d="M68 415 L68 0 L140 0 L140 415 L68 415 Z M-33 550 C-33 523 -10 500 17 500 C44 500 67 523 67 550 C67 577 44 600 17 600 C-10 600 -33 577 -33 550 L-33 550 Z M141 550 C141 523 164 500 191 500 C218 500 241 523 241 550 C241 577 218 600 191 600 C164 600 141 577 141 550 L141 550 Z " />
<glyph glyph-name="eth" unicode="&#xf0;" horiz-adv-x="524" d="M83 612 C148 605 195 589 227 574 L93 530 L111 476 L290 535 C313 517 334 496 354 467 C371 442 383 418 391 388 C373 404 333 437 256 437 C181 437 133 405 107 379 C75 347 42 293 42 212 C42 138 69 87 103 52 C132 23 182 -12 262 -12 C356 -12 415 38 447 94 C476 145 482 203 482 252 C482 357 459 418 437 462 C418 500 396 530 363 559 L458 590 L440 644 L311 602 C275 625 203 664 100 673 L83 612 Z M408 218 C408 171 392 123 359 91 C341 73 309 52 262 52 C229 52 191 65 162 93 C125 129 116 173 116 210 C116 266 135 306 164 333 C185 353 218 373 265 373 C307 373 338 359 360 338 C387 313 408 270 408 218 L408 218 Z " />
<glyph glyph-name="ntilde" unicode="&#xf1;" horiz-adv-x="470" d="M68 0 L140 0 L140 217 C140 247 142 296 170 329 C191 354 218 361 243 361 C275 361 297 349 311 331 C328 309 330 280 330 255 L330 0 L402 0 L402 257 C402 303 399 337 378 368 C353 405 308 425 259 425 C190 425 153 384 140 367 L140 415 L68 415 L68 0 Z M118 497 C123 506 130 517 139 526 C148 535 156 540 168 540 C183 540 199 532 223 521 C242 512 268 500 292 500 C311 500 335 506 358 530 C371 543 379 556 384 569 L343 603 C339 595 329 580 322 572 C313 562 305 560 293 560 C274 560 260 568 237 580 C215 591 194 600 167 600 C146 600 129 594 110 576 C99 565 85 546 76 531 L118 497 Z " />
<glyph glyph-name="ograve" unicode="&#xf2;" horiz-adv-x="524" d="M262 -12 C388 -12 482 80 482 206 C482 332 389 425 262 425 C135 425 42 332 42 206 C42 80 136 -12 262 -12 L262 -12 Z M262 361 C338 361 408 308 408 206 C408 105 337 52 262 52 C188 52 116 104 116 206 C116 307 186 361 262 361 L262 361 Z M261 497 L305 521 L200 666 L126 632 L261 497 Z " />
<glyph glyph-name="oacute" unicode="&#xf3;" horiz-adv-x="524" d="M262 -12 C388 -12 482 80 482 206 C482 332 389 425 262 425 C135 425 42 332 42 206 C42 80 136 -12 262 -12 L262 -12 Z M262 361 C338 361 408 308 408 206 C408 105 337 52 262 52 C188 52 116 104 116 206 C116 307 186 361 262 361 L262 361 Z M324 666 L219 521 L264 497 L398 632 L324 666 Z " />
<glyph glyph-name="ocircumflex" unicode="&#xf4;" horiz-adv-x="524" d="M262 -12 C388 -12 482 80 482 206 C482 332 389 425 262 425 C135 425 42 332 42 206 C42 80 136 -12 262 -12 L262 -12 Z M262 361 C338 361 408 308 408 206 C408 105 337 52 262 52 C188 52 116 104 116 206 C116 307 186 361 262 361 L262 361 Z M262 578 L354 497 L400 533 L262 654 L124 533 L170 497 L262 578 Z " />
<glyph glyph-name="otilde" unicode="&#xf5;" horiz-adv-x="524" d="M262 -12 C388 -12 482 80 482 206 C482 332 389 425 262 425 C135 425 42 332 42 206 C42 80 136 -12 262 -12 L262 -12 Z M262 361 C338 361 408 308 408 206 C408 105 337 52 262 52 C188 52 116 104 116 206 C116 307 186 361 262 361 L262 361 Z M150 497 C155 506 162 517 171 526 C180 535 188 540 200 540 C215 540 231 532 255 521 C274 512 300 500 324 500 C343 500 367 506 390 530 C403 543 411 556 416 569 L375 603 C371 595 361 580 354 572 C345 562 337 560 325 560 C306 560 292 568 269 580 C247 591 226 600 199 600 C178 600 161 594 142 576 C131 565 117 546 108 531 L150 497 Z " />
<glyph glyph-name="odieresis" unicode="&#xf6;" horiz-adv-x="524" d="M262 -12 C388 -12 482 80 482 206 C482 332 389 425 262 425 C135 425 42 332 42 206 C42 80 136 -12 262 -12 L262 -12 Z M262 361 C338 361 408 308 408 206 C408 105 337 52 262 52 C188 52 116 104 116 206 C116 307 186 361 262 361 L262 361 Z M125 550 C125 523 148 500 175 500 C202 500 225 523 225 550 C225 577 202 600 175 600 C148 600 125 577 125 550 L125 550 Z M299 550 C299 523 322 500 349 500 C376 500 399 523 399 550 C399 577 376 600 349 600 C322 600 299 577 299 550 L299 550 Z " />
<glyph glyph-name="divide" unicode="&#xf7;" horiz-adv-x="500" d="M201 515 C201 488 223 466 250 466 C277 466 299 488 299 515 C299 542 277 564 250 564 C223 564 201 542 201 515 L201 515 Z M201 151 C201 124 223 102 250 102 C277 102 299 124 299 151 C299 178 277 200 250 200 C223 200 201 178 201 151 L201 151 Z M33 300 L467 300 L467 366 L33 366 L33 300 Z " />
<glyph glyph-name="oslash" unicode="&#xf8;" horiz-adv-x="524" d="M497 400 L453 445 L392 385 C372 400 331 425 262 425 C136 425 42 333 42 206 C42 137 67 96 82 75 L21 15 L67 -30 L128 30 C151 13 192 -12 262 -12 C388 -12 482 79 482 206 C482 275 458 316 438 341 L497 400 Z M135 124 C124 146 116 172 116 206 C116 308 186 361 262 361 C293 361 319 353 342 338 L135 124 Z M386 292 C400 267 408 240 408 206 C408 104 337 52 262 52 C226 52 200 63 179 78 L386 292 Z " />
<glyph glyph-name="ugrave" unicode="&#xf9;" horiz-adv-x="466" d="M140 415 L68 415 L68 165 C68 114 73 76 106 40 C143 1 192 -12 233 -12 C274 -12 323 1 360 40 C393 76 398 114 398 165 L398 415 L326 415 L326 173 C326 144 326 110 306 84 C295 70 273 52 233 52 C193 52 171 70 160 84 C140 110 140 144 140 173 L140 415 Z M239 497 L283 521 L178 666 L104 632 L239 497 Z " />
<glyph glyph-name="uacute" unicode="&#xfa;" horiz-adv-x="466" d="M140 415 L68 415 L68 165 C68 114 73 76 106 40 C143 1 192 -12 233 -12 C274 -12 323 1 360 40 C393 76 398 114 398 165 L398 415 L326 415 L326 173 C326 144 326 110 306 84 C295 70 273 52 233 52 C193 52 171 70 160 84 C140 110 140 144 140 173 L140 415 Z M286 666 L181 521 L226 497 L360 632 L286 666 Z " />
<glyph glyph-name="ucircumflex" unicode="&#xfb;" horiz-adv-x="466" d="M140 415 L68 415 L68 165 C68 114 73 76 106 40 C143 1 192 -12 233 -12 C274 -12 323 1 360 40 C393 76 398 114 398 165 L398 415 L326 415 L326 173 C326 144 326 110 306 84 C295 70 273 52 233 52 C193 52 171 70 160 84 C140 110 140 144 140 173 L140 415 Z M233 578 L325 497 L371 533 L233 654 L95 533 L141 497 L233 578 Z " />
<glyph glyph-name="udieresis" unicode="&#xfc;" horiz-adv-x="466" d="M140 415 L68 415 L68 165 C68 114 73 76 106 40 C143 1 192 -12 233 -12 C274 -12 323 1 360 40 C393 76 398 114 398 165 L398 415 L326 415 L326 173 C326 144 326 110 306 84 C295 70 273 52 233 52 C193 52 171 70 160 84 C140 110 140 144 140 173 L140 415 Z M96 550 C96 523 119 500 146 500 C173 500 196 523 196 550 C196 577 173 600 146 600 C119 600 96 577 96 550 L96 550 Z M270 550 C270 523 293 500 320 500 C347 500 370 523 370 550 C370 577 347 600 320 600 C293 600 270 577 270 550 L270 550 Z " />
<glyph glyph-name="yacute" unicode="&#xfd;" horiz-adv-x="460" d="M67 -230 L147 -230 L452 415 L372 415 L237 118 L90 415 L8 415 L199 39 L67 -230 Z M292 666 L187 521 L232 497 L366 632 L292 666 Z " />
<glyph glyph-name="thorn" unicode="&#xfe;" horiz-adv-x="526" d="M140 58 C171 18 218 -12 285 -12 C411 -12 484 91 484 205 C484 317 412 425 282 425 C252 425 189 418 140 357 L140 729 L68 729 L68 -230 L140 -230 L140 58 Z M275 52 C190 52 136 121 136 206 C136 306 207 361 274 361 C341 361 410 307 410 205 C410 122 359 52 275 52 L275 52 Z " />
<glyph glyph-name="ydieresis" unicode="&#xff;" horiz-adv-x="460" d="M67 -230 L147 -230 L452 415 L372 415 L237 118 L90 415 L8 415 L199 39 L67 -230 Z M103 550 C103 523 126 500 153 500 C180 500 203 523 203 550 C203 577 180 600 153 600 C126 600 103 577 103 550 L103 550 Z M277 550 C277 523 300 500 327 500 C354 500 377 523 377 550 C377 577 354 600 327 600 C300 600 277 577 277 550 L277 550 Z " />
<glyph glyph-name="Amacron" unicode="&#x100;" horiz-adv-x="622" d="M532 0 L614 0 L315 699 L8 0 L90 0 L170 188 L454 188 L532 0 Z M199 258 L313 525 L425 258 L199 258 Z M155 733 L475 733 L475 797 L155 797 L155 733 Z " />
<glyph glyph-name="amacron" unicode="&#x101;" horiz-adv-x="526" d="M386 356 C367 381 324 425 244 425 C138 425 42 351 42 208 C42 62 139 -12 244 -12 C317 -12 362 27 386 58 L386 0 L458 0 L458 415 L386 415 L386 356 Z M252 361 C316 361 390 314 390 207 C390 125 340 52 252 52 C166 52 116 119 116 208 C116 309 181 361 252 361 L252 361 Z M113 513 L415 513 L415 573 L113 573 L113 513 Z " />
<glyph glyph-name="Abreve" unicode="&#x102;" horiz-adv-x="622" d="M532 0 L614 0 L315 699 L8 0 L90 0 L170 188 L454 188 L532 0 Z M199 258 L313 525 L425 258 L199 258 Z M404 841 C400 829 393 816 379 805 C361 791 337 785 315 785 C293 785 269 791 251 805 C237 816 230 829 226 841 L160 841 C165 815 176 792 191 774 C211 751 249 721 315 721 C381 721 419 751 439 774 C454 792 465 815 470 841 L404 841 Z " />
<glyph glyph-name="abreve" unicode="&#x103;" horiz-adv-x="526" d="M386 356 C367 381 324 425 244 425 C138 425 42 351 42 208 C42 62 139 -12 244 -12 C317 -12 362 27 386 58 L386 0 L458 0 L458 415 L386 415 L386 356 Z M252 361 C316 361 390 314 390 207 C390 125 340 52 252 52 C166 52 116 119 116 208 C116 309 181 361 252 361 L252 361 Z M123 617 C130 579 148 556 152 550 C170 527 204 497 268 497 C332 497 366 527 384 550 C388 556 406 579 413 617 L352 617 C347 599 337 586 328 578 C311 563 290 557 268 557 C246 557 225 563 208 578 C199 586 189 599 184 617 L123 617 Z " />
<glyph glyph-name="Aogonek" unicode="&#x104;" horiz-adv-x="622" d="M315 699 L8 0 L90 0 L170 188 L454 188 L532 0 C514 -10 496 -25 483 -41 C466 -63 460 -85 460 -104 C460 -131 471 -150 483 -161 C501 -178 533 -190 561 -190 C578 -190 597 -186 616 -176 L624 -117 C608 -126 590 -130 574 -130 C560 -130 545 -126 536 -118 C531 -113 524 -104 524 -89 C524 -68 536 -51 544 -41 C558 -24 577 -10 594 0 L614 0 L315 699 Z M199 258 L313 525 L425 258 L199 258 Z " />
<glyph glyph-name="aogonek" unicode="&#x105;" horiz-adv-x="526" d="M386 356 C353 399 305 425 244 425 C187 425 135 403 102 370 C67 335 42 279 42 208 C42 116 82 65 101 45 C132 14 180 -12 244 -12 C267 -12 299 -8 330 10 C349 21 370 39 386 58 L386 0 C348 -22 314 -57 314 -102 C314 -129 326 -148 336 -158 C355 -177 386 -186 410 -186 C419 -186 444 -185 466 -172 L474 -117 C456 -128 435 -130 426 -130 C421 -130 398 -130 386 -119 C379 -113 374 -103 374 -90 C374 -67 388 -49 397 -39 C411 -24 429 -9 444 0 L458 0 L458 415 L386 415 L386 356 Z M252 361 C294 361 329 343 351 319 C372 296 390 259 390 207 C390 148 366 111 345 89 C320 64 291 52 254 52 C216 52 182 67 160 87 C143 103 116 138 116 204 C116 259 134 296 157 321 C179 344 211 361 252 361 L252 361 Z " />
<glyph glyph-name="Cacute" unicode="&#x106;" horiz-adv-x="646" d="M596 612 C516 673 439 678 399 678 C199 678 50 530 50 331 C50 138 197 -12 395 -12 C445 -12 522 0 596 53 L596 145 C584 133 557 108 519 89 C484 71 440 58 395 58 C273 58 126 149 126 330 C126 484 240 608 394 608 C433 608 474 598 509 582 C543 566 575 541 596 520 L596 612 Z M452 882 L326 752 L369 720 L522 837 L452 882 Z " />
<glyph glyph-name="cacute" unicode="&#x107;" horiz-adv-x="438" d="M393 385 C373 399 330 425 264 425 C136 425 42 332 42 205 C42 80 135 -12 264 -12 C303 -12 351 -2 396 31 L396 117 C358 71 305 52 262 52 C188 52 116 105 116 206 C116 307 186 361 263 361 C300 361 355 347 393 299 L393 385 Z M292 666 L187 521 L232 497 L366 632 L292 666 Z " />
<glyph glyph-name="Ccircumflex" unicode="&#x108;" horiz-adv-x="646" d="M596 612 C516 673 439 678 399 678 C199 678 50 530 50 331 C50 138 197 -12 395 -12 C445 -12 522 0 596 53 L596 145 C584 133 557 108 519 89 C484 71 440 58 395 58 C273 58 126 149 126 330 C126 484 240 608 394 608 C433 608 474 598 509 582 C543 566 575 541 596 520 L596 612 Z M400 797 L488 721 L540 762 L400 881 L260 762 L312 721 L400 797 Z " />
<glyph glyph-name="ccircumflex" unicode="&#x109;" horiz-adv-x="438" d="M393 385 C373 399 330 425 264 425 C136 425 42 332 42 205 C42 80 135 -12 264 -12 C303 -12 351 -2 396 31 L396 117 C358 71 305 52 262 52 C188 52 116 105 116 206 C116 307 186 361 263 361 C300 361 355 347 393 299 L393 385 Z M260 578 L352 497 L398 533 L260 654 L122 533 L168 497 L260 578 Z " />
<glyph glyph-name="Cdotaccent" unicode="&#x10a;" horiz-adv-x="646" d="M596 612 C516 673 439 678 399 678 C199 678 50 530 50 331 C50 138 197 -12 395 -12 C445 -12 522 0 596 53 L596 145 C584 133 557 108 519 89 C484 71 440 58 395 58 C273 58 126 149 126 330 C126 484 240 608 394 608 C433 608 474 598 509 582 C543 566 575 541 596 520 L596 612 Z M338 784 C338 752 361 729 393 729 C425 729 448 752 448 784 C448 816 425 839 393 839 C361 839 338 816 338 784 L338 784 Z " />
<glyph glyph-name="cdotaccent" unicode="&#x10b;" horiz-adv-x="438" d="M393 385 C373 399 330 425 264 425 C136 425 42 332 42 205 C42 80 135 -12 264 -12 C303 -12 351 -2 396 31 L396 117 C358 71 305 52 262 52 C188 52 116 105 116 206 C116 307 186 361 263 361 C300 361 355 347 393 299 L393 385 Z M211 553 C211 523 234 500 264 500 C294 500 317 523 317 553 C317 583 294 606 264 606 C234 606 211 583 211 553 L211 553 Z " />
<glyph glyph-name="Ccaron" unicode="&#x10c;" horiz-adv-x="646" d="M596 612 C516 673 439 678 399 678 C199 678 50 530 50 331 C50 138 197 -12 395 -12 C445 -12 522 0 596 53 L596 145 C584 133 557 108 519 89 C484 71 440 58 395 58 C273 58 126 149 126 330 C126 484 240 608 394 608 C433 608 474 598 509 582 C543 566 575 541 596 520 L596 612 Z M400 805 L312 881 L260 840 L400 721 L540 840 L488 881 L400 805 Z " />
<glyph glyph-name="ccaron" unicode="&#x10d;" horiz-adv-x="438" d="M393 385 C373 399 330 425 264 425 C136 425 42 332 42 205 C42 80 135 -12 264 -12 C303 -12 351 -2 396 31 L396 117 C358 71 305 52 262 52 C188 52 116 105 116 206 C116 307 186 361 263 361 C300 361 355 347 393 299 L393 385 Z M260 573 L168 654 L122 618 L260 497 L398 618 L352 654 L260 573 Z " />
<glyph glyph-name="Dcaron" unicode="&#x10e;" horiz-adv-x="632" d="M86 0 L221 0 C340 0 404 25 465 77 C513 118 582 193 582 333 C582 453 529 538 468 589 C384 660 289 667 222 667 L86 667 L86 0 Z M160 597 L225 597 C394 597 506 493 506 333 C506 238 466 172 416 130 C351 76 278 70 225 70 L160 70 L160 597 Z M280 805 L192 881 L140 840 L280 721 L420 840 L368 881 L280 805 Z " />
<glyph glyph-name="dcaron" unicode="&#x10f;" horiz-adv-x="596" d="M386 356 C367 381 324 425 244 425 C138 425 42 351 42 208 C42 62 139 -12 244 -12 C317 -12 362 27 386 58 L386 0 L458 0 L458 729 L386 729 L386 356 Z M252 361 C316 361 390 314 390 207 C390 125 340 52 252 52 C166 52 116 119 116 208 C116 309 181 361 252 361 L252 361 Z M500 530 L546 510 L616 666 L552 690 L500 530 Z " />
<glyph glyph-name="Dcroat" unicode="&#x110;" horiz-adv-x="632" d="M86 0 L221 0 C340 0 404 25 465 77 C513 118 582 193 582 333 C582 453 529 538 468 589 C384 660 289 667 222 667 L86 667 L86 400 L0 400 L0 336 L86 336 L86 0 Z M160 597 L225 597 C394 597 506 493 506 333 C506 238 466 172 416 130 C351 76 278 70 225 70 L160 70 L160 336 L296 336 L296 400 L160 400 L160 597 Z " />
<glyph glyph-name="dcroat" unicode="&#x111;" horiz-adv-x="526" d="M386 356 C367 381 324 425 244 425 C138 425 42 351 42 208 C42 62 139 -12 244 -12 C317 -12 362 27 386 58 L386 0 L458 0 L458 554 L526 554 L526 614 L458 614 L458 729 L386 729 L386 614 L186 614 L186 554 L386 554 L386 356 Z M252 361 C319 361 390 315 390 207 C390 124 339 52 252 52 C166 52 116 119 116 208 C116 309 181 361 252 361 L252 361 Z " />
<glyph glyph-name="Emacron" unicode="&#x112;" horiz-adv-x="482" d="M432 667 L86 667 L86 0 L432 0 L432 70 L160 70 L160 329 L424 329 L424 399 L160 399 L160 597 L432 597 L432 667 Z M100 733 L420 733 L420 797 L100 797 L100 733 Z " />
<glyph glyph-name="emacron" unicode="&#x113;" horiz-adv-x="481" d="M376 139 C367 119 352 98 333 82 C309 62 282 52 248 52 C176 52 117 107 116 193 L439 193 C441 248 426 312 400 349 C375 385 324 425 243 425 C118 425 42 329 42 205 C42 51 147 -12 247 -12 C300 -12 347 5 385 39 C406 58 424 83 436 106 L376 139 Z M121 253 C132 315 182 361 243 361 C304 361 353 318 365 253 L121 253 Z M91 513 L393 513 L393 573 L91 573 L91 513 Z " />
<glyph glyph-name="Edotaccent" unicode="&#x116;" horiz-adv-x="482" d="M432 667 L86 667 L86 0 L432 0 L432 70 L160 70 L160 329 L424 329 L424 399 L160 399 L160 597 L432 597 L432 667 Z M205 784 C205 752 228 729 260 729 C292 729 315 752 315 784 C315 816 292 839 260 839 C228 839 205 816 205 784 L205 784 Z " />
<glyph glyph-name="edotaccent" unicode="&#x117;" horiz-adv-x="481" d="M376 139 C367 119 352 98 333 82 C309 62 282 52 248 52 C176 52 117 107 116 193 L439 193 C441 248 426 312 400 349 C375 385 324 425 243 425 C118 425 42 329 42 205 C42 51 147 -12 247 -12 C300 -12 347 5 385 39 C406 58 424 83 436 106 L376 139 Z M121 253 C132 315 182 361 243 361 C304 361 353 318 365 253 L121 253 Z M189 553 C189 523 212 500 242 500 C272 500 295 523 295 553 C295 583 272 606 242 606 C212 606 189 583 189 553 L189 553 Z " />
<glyph glyph-name="Eogonek" unicode="&#x118;" horiz-adv-x="482" d="M432 667 L86 667 L86 0 L326 0 C314 -9 292 -27 281 -41 C266 -59 258 -82 258 -104 C258 -131 269 -150 281 -161 C299 -178 331 -190 359 -190 C376 -190 395 -186 414 -176 L422 -117 C406 -126 388 -130 372 -130 C358 -130 343 -126 334 -118 C329 -113 322 -104 322 -89 C322 -68 334 -51 342 -41 C356 -24 375 -10 392 0 L432 0 L432 70 L160 70 L160 329 L424 329 L424 399 L160 399 L160 597 L432 597 L432 667 Z " />
<glyph glyph-name="eogonek" unicode="&#x119;" horiz-adv-x="482" d="M377 139 C367 119 352 97 334 82 C316 67 288 52 249 52 C212 52 178 66 156 89 C131 115 117 157 116 193 L440 193 C440 223 439 314 383 371 C352 403 303 425 244 425 C177 425 132 399 104 371 C66 333 42 274 42 205 C42 120 75 70 103 43 C131 16 178 -12 243 -12 C230 -22 217 -35 208 -48 C197 -63 190 -81 190 -102 C190 -129 201 -148 213 -159 C230 -176 257 -186 286 -186 C302 -186 322 -183 342 -172 L350 -117 C329 -128 314 -130 302 -130 C289 -130 271 -127 261 -117 C259 -115 250 -106 250 -90 C250 -79 254 -60 273 -40 C281 -32 295 -19 324 -2 C348 12 361 18 386 40 C410 61 425 80 437 106 L377 139 Z M122 253 C127 278 140 306 159 326 C179 347 209 361 244 361 C271 361 302 352 328 327 C343 313 360 289 366 253 L122 253 Z " />
<glyph glyph-name="Ecaron" unicode="&#x11a;" horiz-adv-x="482" d="M432 667 L86 667 L86 0 L432 0 L432 70 L160 70 L160 329 L424 329 L424 399 L160 399 L160 597 L432 597 L432 667 Z M260 805 L172 881 L120 840 L260 721 L400 840 L348 881 L260 805 Z " />
<glyph glyph-name="ecaron" unicode="&#x11b;" horiz-adv-x="481" d="M376 139 C367 119 352 98 333 82 C309 62 282 52 248 52 C176 52 117 107 116 193 L439 193 C441 248 426 312 400 349 C375 385 324 425 243 425 C118 425 42 329 42 205 C42 51 147 -12 247 -12 C300 -12 347 5 385 39 C406 58 424 83 436 106 L376 139 Z M121 253 C132 315 182 361 243 361 C304 361 353 318 365 253 L121 253 Z M242 573 L150 654 L104 618 L242 497 L380 618 L334 654 L242 573 Z " />
<glyph glyph-name="Gcircumflex" unicode="&#x11c;" horiz-adv-x="758" d="M430 265 L628 265 C626 223 613 191 601 170 C563 103 486 58 397 58 C271 58 126 150 126 332 C126 487 238 608 399 608 C479 608 529 578 561 552 C583 534 605 510 624 483 L679 533 C660 559 632 589 602 612 C537 662 462 678 398 678 C199 678 50 527 50 333 C50 139 198 -12 396 -12 C549 -12 624 81 644 108 C686 165 708 245 708 319 L708 335 L430 335 L430 265 Z M396 797 L484 721 L536 762 L396 881 L256 762 L308 721 L396 797 Z " />
<glyph glyph-name="gcircumflex" unicode="&#x11d;" horiz-adv-x="526" d="M386 356 C353 399 305 425 244 425 C188 425 137 403 102 369 C72 339 42 289 42 208 C42 124 74 72 102 44 C134 12 183 -12 244 -12 C317 -12 362 27 386 58 L386 -2 C386 -37 384 -74 363 -108 C339 -148 304 -166 253 -166 C221 -166 183 -159 153 -126 C135 -106 121 -75 121 -40 L50 -40 C50 -101 76 -146 104 -174 C132 -202 181 -230 252 -230 C330 -230 387 -195 418 -153 C458 -99 458 -35 458 10 L458 415 L386 415 L386 356 Z M252 361 C289 361 323 347 346 324 C372 299 390 256 390 207 C390 158 371 114 343 87 C320 64 290 52 252 52 C214 52 186 65 163 86 C123 123 116 172 116 208 C116 242 123 286 158 322 C178 342 208 361 252 361 L252 361 Z M263 578 L355 497 L401 533 L263 654 L125 533 L171 497 L263 578 Z " />
<glyph glyph-name="Gbreve" unicode="&#x11e;" horiz-adv-x="758" d="M430 265 L628 265 C626 223 613 191 601 170 C563 103 486 58 397 58 C271 58 126 150 126 332 C126 487 238 608 399 608 C479 608 529 578 561 552 C583 534 605 510 624 483 L679 533 C660 559 632 589 602 612 C537 662 462 678 398 678 C199 678 50 527 50 333 C50 139 198 -12 396 -12 C549 -12 624 81 644 108 C686 165 708 245 708 319 L708 335 L430 335 L430 265 Z M485 841 C481 829 474 816 460 805 C442 791 418 785 396 785 C374 785 350 791 332 805 C318 816 311 829 307 841 L241 841 C246 815 257 792 272 774 C292 751 330 721 396 721 C462 721 500 751 520 774 C535 792 546 815 551 841 L485 841 Z " />
<glyph glyph-name="gbreve" unicode="&#x11f;" horiz-adv-x="526" d="M386 356 C353 399 305 425 244 425 C188 425 137 403 102 369 C72 339 42 289 42 208 C42 124 74 72 102 44 C134 12 183 -12 244 -12 C317 -12 362 27 386 58 L386 -2 C386 -37 384 -74 363 -108 C339 -148 304 -166 253 -166 C221 -166 183 -159 153 -126 C135 -106 121 -75 121 -40 L50 -40 C50 -101 76 -146 104 -174 C132 -202 181 -230 252 -230 C330 -230 387 -195 418 -153 C458 -99 458 -35 458 10 L458 415 L386 415 L386 356 Z M252 361 C289 361 323 347 346 324 C372 299 390 256 390 207 C390 158 371 114 343 87 C320 64 290 52 252 52 C214 52 186 65 163 86 C123 123 116 172 116 208 C116 242 123 286 158 322 C178 342 208 361 252 361 L252 361 Z M118 617 C125 579 143 556 147 550 C165 527 199 497 263 497 C327 497 361 527 379 550 C383 556 401 579 408 617 L347 617 C342 599 332 586 323 578 C306 563 285 557 263 557 C241 557 220 563 203 578 C194 586 184 599 179 617 L118 617 Z " />
<glyph glyph-name="Gdotaccent" unicode="&#x120;" horiz-adv-x="758" d="M430 265 L628 265 C626 223 613 191 601 170 C563 103 486 58 397 58 C271 58 126 150 126 332 C126 487 238 608 399 608 C479 608 529 578 561 552 C583 534 605 510 624 483 L679 533 C660 559 632 589 602 612 C537 662 462 678 398 678 C199 678 50 527 50 333 C50 139 198 -12 396 -12 C549 -12 624 81 644 108 C686 165 708 245 708 319 L708 335 L430 335 L430 265 Z M344 784 C344 752 367 729 399 729 C431 729 454 752 454 784 C454 816 431 839 399 839 C367 839 344 816 344 784 L344 784 Z " />
<glyph glyph-name="gdotaccent" unicode="&#x121;" horiz-adv-x="526" d="M386 356 C353 399 305 425 244 425 C188 425 137 403 102 369 C72 339 42 289 42 208 C42 124 74 72 102 44 C134 12 183 -12 244 -12 C317 -12 362 27 386 58 L386 -2 C386 -37 384 -74 363 -108 C339 -148 304 -166 253 -166 C221 -166 183 -159 153 -126 C135 -106 121 -75 121 -40 L50 -40 C50 -101 76 -146 104 -174 C132 -202 181 -230 252 -230 C330 -230 387 -195 418 -153 C458 -99 458 -35 458 10 L458 415 L386 415 L386 356 Z M252 361 C289 361 323 347 346 324 C372 299 390 256 390 207 C390 158 371 114 343 87 C320 64 290 52 252 52 C214 52 186 65 163 86 C123 123 116 172 116 208 C116 242 123 286 158 322 C178 342 208 361 252 361 L252 361 Z M193 553 C193 523 216 500 246 500 C276 500 299 523 299 553 C299 583 276 606 246 606 C216 606 193 583 193 553 L193 553 Z " />
<glyph glyph-name="Gcommaaccent" unicode="&#x122;" horiz-adv-x="758" d="M430 265 L628 265 C626 223 613 191 601 170 C563 103 486 58 397 58 C271 58 126 150 126 332 C126 487 238 608 399 608 C479 608 529 578 561 552 C583 534 605 510 624 483 L679 533 C660 559 632 589 602 612 C537 662 462 678 398 678 C199 678 50 527 50 333 C50 139 198 -12 396 -12 C549 -12 624 81 644 108 C686 165 708 245 708 319 L708 335 L430 335 L430 265 Z M318 -210 L368 -230 L438 -74 L374 -50 L318 -210 Z " />
<glyph glyph-name="gcommaaccent" unicode="&#x123;" horiz-adv-x="526" d="M386 356 C353 399 305 425 244 425 C188 425 137 403 102 369 C72 339 42 289 42 208 C42 124 74 72 102 44 C134 12 183 -12 244 -12 C317 -12 362 27 386 58 L386 -2 C386 -37 384 -74 363 -108 C339 -148 304 -166 253 -166 C221 -166 183 -159 153 -126 C135 -106 121 -75 121 -40 L50 -40 C50 -101 76 -146 104 -174 C132 -202 181 -230 252 -230 C330 -230 387 -195 418 -153 C458 -99 458 -35 458 10 L458 415 L386 415 L386 356 Z M252 361 C289 361 323 347 346 324 C372 299 390 256 390 207 C390 158 371 114 343 87 C320 64 290 52 252 52 C214 52 186 65 163 86 C123 123 116 172 116 208 C116 242 123 286 158 322 C178 342 208 361 252 361 L252 361 Z M315 650 L265 670 L195 514 L259 490 L315 650 Z " />
<glyph glyph-name="Hcircumflex" unicode="&#x124;" horiz-adv-x="662" d="M160 667 L86 667 L86 0 L160 0 L160 326 L502 326 L502 0 L576 0 L576 667 L502 667 L502 396 L160 396 L160 667 Z M331 797 L419 721 L471 762 L331 881 L191 762 L243 721 L331 797 Z " />
<glyph glyph-name="hcircumflex" unicode="&#x125;" horiz-adv-x="470" d="M68 0 L140 0 L140 217 C140 247 142 296 170 329 C191 354 218 361 243 361 C275 361 297 349 311 331 C328 309 330 280 330 255 L330 0 L402 0 L402 257 C402 303 399 337 378 368 C353 405 308 425 259 425 C190 425 153 384 140 367 L140 729 L68 729 L68 0 Z M106 818 L198 737 L244 773 L106 894 L-32 773 L14 737 L106 818 Z " />
<glyph glyph-name="Hbar" unicode="&#x126;" horiz-adv-x="662" d="M160 667 L86 667 L86 614 L26 614 L26 552 L86 552 L86 0 L160 0 L160 326 L502 326 L502 0 L576 0 L576 552 L636 552 L636 614 L576 614 L576 667 L502 667 L502 614 L160 614 L160 667 Z M502 552 L502 396 L160 396 L160 552 L502 552 Z " />
<glyph glyph-name="hbar" unicode="&#x127;" horiz-adv-x="470" d="M68 0 L140 0 L140 217 C140 247 142 296 170 329 C191 354 218 361 243 361 C275 361 297 349 311 331 C328 309 330 280 330 255 L330 0 L402 0 L402 257 C402 303 399 337 378 368 C353 405 308 425 259 425 C190 425 153 384 140 367 L140 554 L340 554 L340 614 L140 614 L140 729 L68 729 L68 614 L0 614 L0 554 L68 554 L68 0 Z " />
<glyph glyph-name="Imacron" unicode="&#x12a;" horiz-adv-x="246" d="M86 667 L86 0 L160 0 L160 667 L86 667 Z M0 733 L246 733 L246 797 L0 797 L0 733 Z " />
<glyph glyph-name="imacron" unicode="&#x12b;" horiz-adv-x="208" d="M68 415 L68 0 L140 0 L140 415 L68 415 Z M0 513 L208 513 L208 573 L0 573 L0 513 Z " />
<glyph glyph-name="Iogonek" unicode="&#x12e;" horiz-adv-x="246" d="M86 667 L86 0 L98 0 C89 -5 68 -17 50 -39 C35 -58 26 -80 26 -103 C26 -159 75 -190 123 -190 C137 -190 160 -187 182 -176 L190 -117 C180 -123 162 -130 142 -130 C102 -130 90 -110 90 -90 C90 -67 108 -45 113 -39 C125 -25 145 -10 160 0 L160 667 L86 667 Z " />
<glyph glyph-name="iogonek" unicode="&#x12f;" horiz-adv-x="208" d="M68 415 L68 0 L82 0 C55 -13 40 -31 34 -39 C19 -58 10 -80 10 -103 C10 -154 57 -186 106 -186 C120 -186 141 -183 162 -172 L170 -117 C160 -123 142 -130 122 -130 C82 -130 70 -110 70 -90 C70 -67 88 -45 93 -39 C105 -25 125 -10 140 0 L140 415 L68 415 Z M53 572 C53 544 76 521 104 521 C132 521 155 544 155 572 C155 600 132 623 104 623 C76 623 53 600 53 572 L53 572 Z " />
<glyph glyph-name="Idotaccent" unicode="&#x130;" horiz-adv-x="246" d="M86 667 L86 0 L160 0 L160 667 L86 667 Z M68 784 C68 752 91 729 123 729 C155 729 178 752 178 784 C178 816 155 839 123 839 C91 839 68 816 68 784 L68 784 Z " />
<glyph glyph-name="dotlessi" unicode="&#x131;" horiz-adv-x="208" d="M68 415 L68 0 L140 0 L140 415 L68 415 Z " />
<glyph glyph-name="Jcircumflex" unicode="&#x134;" horiz-adv-x="306" d="M146 667 L146 185 C146 144 146 102 121 77 C109 65 91 58 71 58 C46 58 17 71 -5 95 L-46 37 C-16 3 25 -12 73 -12 C122 -12 156 5 179 30 C219 72 220 133 220 187 L220 667 L146 667 Z M180 797 L268 721 L320 762 L180 881 L40 762 L92 721 L180 797 Z " />
<glyph glyph-name="jcircumflex" unicode="&#x135;" horiz-adv-x="208" d="M68 415 L68 -230 L140 -230 L140 415 L68 415 Z M104 572 L179 505 L222 540 L104 646 L-14 540 L29 505 L104 572 Z " />
<glyph glyph-name="Kcommaaccent" unicode="&#x136;" horiz-adv-x="568" d="M160 667 L86 667 L86 0 L160 0 L160 287 L179 306 L452 0 L554 0 L232 356 L544 667 L444 667 L160 381 L160 667 Z M202 -210 L252 -230 L322 -74 L258 -50 L202 -210 Z " />
<glyph glyph-name="kcommaaccent" unicode="&#x137;" horiz-adv-x="422" d="M68 729 L68 0 L140 0 L140 171 L158 189 L324 0 L418 0 L208 237 L386 415 L292 415 L140 261 L140 729 L68 729 Z M131 -210 L181 -230 L251 -74 L187 -50 L131 -210 Z " />
<glyph glyph-name="Lacute" unicode="&#x139;" horiz-adv-x="358" d="M86 667 L86 0 L344 0 L344 70 L160 70 L160 667 L86 667 Z M242 882 L116 752 L159 720 L312 837 L242 882 Z " />
<glyph glyph-name="lacute" unicode="&#x13a;" horiz-adv-x="208" d="M68 729 L68 0 L140 0 L140 729 L68 729 Z M172 926 L67 781 L112 757 L246 892 L172 926 Z " />
<glyph glyph-name="Lcommaaccent" unicode="&#x13b;" horiz-adv-x="358" d="M86 667 L86 0 L344 0 L344 70 L160 70 L160 667 L86 667 Z M138 -210 L188 -230 L258 -74 L194 -50 L138 -210 Z " />
<glyph glyph-name="lcommaaccent" unicode="&#x13c;" horiz-adv-x="208" d="M68 729 L68 0 L140 0 L140 729 L68 729 Z M24 -210 L74 -230 L144 -74 L80 -50 L24 -210 Z " />
<glyph glyph-name="Lcaron" unicode="&#x13d;" horiz-adv-x="358" d="M86 667 L86 0 L344 0 L344 70 L160 70 L160 667 L86 667 Z M250 520 L296 500 L366 656 L302 680 L250 520 Z " />
<glyph glyph-name="lcaron" unicode="&#x13e;" horiz-adv-x="278" d="M68 729 L68 0 L140 0 L140 729 L68 729 Z M182 530 L228 510 L298 666 L234 690 L182 530 Z " />
<glyph glyph-name="Ldot" unicode="&#x13f;" horiz-adv-x="357" d="M86 667 L86 0 L344 0 L344 70 L160 70 L160 667 L86 667 Z M242 334 C242 302 265 279 297 279 C329 279 352 302 352 334 C352 366 329 389 297 389 C265 389 242 366 242 334 L242 334 Z " />
<glyph glyph-name="ldot" unicode="&#x140;" horiz-adv-x="314" d="M68 729 L68 0 L140 0 L140 729 L68 729 Z M208 365 C208 335 231 312 261 312 C291 312 314 335 314 365 C314 395 291 418 261 418 C231 418 208 395 208 365 L208 365 Z " />
<glyph glyph-name="Lslash" unicode="&#x141;" horiz-adv-x="358" d="M86 667 L86 369 L0 314 L0 250 L86 305 L86 0 L344 0 L344 70 L160 70 L160 342 L260 406 L260 470 L160 406 L160 667 L86 667 Z " />
<glyph glyph-name="lslash" unicode="&#x142;" horiz-adv-x="208" d="M68 729 L68 453 L0 400 L0 340 L68 393 L68 0 L140 0 L140 439 L208 492 L208 552 L140 499 L140 729 L68 729 Z " />
<glyph glyph-name="Nacute" unicode="&#x143;" horiz-adv-x="766" d="M160 0 L160 515 L680 -30 L680 667 L606 667 L606 150 L86 695 L86 0 L160 0 Z M465 882 L339 752 L382 720 L535 837 L465 882 Z " />
<glyph glyph-name="nacute" unicode="&#x144;" horiz-adv-x="470" d="M68 0 L140 0 L140 217 C140 247 142 296 170 329 C191 354 218 361 243 361 C275 361 297 349 311 331 C328 309 330 280 330 255 L330 0 L402 0 L402 257 C402 303 399 337 378 368 C353 405 308 425 259 425 C190 425 153 384 140 367 L140 415 L68 415 L68 0 Z M312 666 L207 521 L252 497 L386 632 L312 666 Z " />
<glyph glyph-name="Ncommaaccent" unicode="&#x145;" horiz-adv-x="766" d="M160 0 L160 515 L680 -30 L680 667 L606 667 L606 150 L86 695 L86 0 L160 0 Z M308 -210 L358 -230 L428 -74 L364 -50 L308 -210 Z " />
<glyph glyph-name="ncommaaccent" unicode="&#x146;" horiz-adv-x="470" d="M68 0 L140 0 L140 217 C140 247 142 296 170 329 C191 354 218 361 243 361 C275 361 297 349 311 331 C328 309 330 280 330 255 L330 0 L402 0 L402 257 C402 303 399 337 378 368 C353 405 308 425 259 425 C190 425 153 384 140 367 L140 415 L68 415 L68 0 Z M155 -210 L205 -230 L275 -74 L211 -50 L155 -210 Z " />
<glyph glyph-name="Ncaron" unicode="&#x147;" horiz-adv-x="766" d="M160 0 L160 515 L680 -30 L680 667 L606 667 L606 150 L86 695 L86 0 L160 0 Z M383 805 L295 881 L243 840 L383 721 L523 840 L471 881 L383 805 Z " />
<glyph glyph-name="ncaron" unicode="&#x148;" horiz-adv-x="470" d="M68 0 L140 0 L140 217 C140 247 142 296 170 329 C191 354 218 361 243 361 C275 361 297 349 311 331 C328 309 330 280 330 255 L330 0 L402 0 L402 257 C402 303 399 337 378 368 C353 405 308 425 259 425 C190 425 153 384 140 367 L140 415 L68 415 L68 0 Z M250 573 L158 654 L112 618 L250 497 L388 618 L342 654 L250 573 Z " />
<glyph glyph-name="Omacron" unicode="&#x14c;" horiz-adv-x="794" d="M397 -12 C590 -12 744 135 744 333 C744 532 589 678 397 678 C205 678 50 532 50 333 C50 135 204 -12 397 -12 L397 -12 Z M397 608 C547 608 668 486 668 333 C668 180 547 58 397 58 C247 58 126 180 126 333 C126 486 247 608 397 608 L397 608 Z M237 733 L557 733 L557 797 L237 797 L237 733 Z " />
<glyph glyph-name="omacron" unicode="&#x14d;" horiz-adv-x="524" d="M262 -12 C388 -12 482 80 482 206 C482 332 389 425 262 425 C135 425 42 332 42 206 C42 80 136 -12 262 -12 L262 -12 Z M262 361 C338 361 408 308 408 206 C408 105 337 52 262 52 C188 52 116 104 116 206 C116 307 186 361 262 361 L262 361 Z M111 513 L413 513 L413 573 L111 573 L111 513 Z " />
<glyph glyph-name="Obreve" unicode="&#x14e;" horiz-adv-x="794" d="M397 -12 C590 -12 744 135 744 333 C744 532 589 678 397 678 C205 678 50 532 50 333 C50 135 204 -12 397 -12 L397 -12 Z M397 608 C547 608 668 486 668 333 C668 180 547 58 397 58 C247 58 126 180 126 333 C126 486 247 608 397 608 L397 608 Z M486 841 C482 829 475 816 461 805 C443 791 419 785 397 785 C375 785 351 791 333 805 C319 816 312 829 308 841 L242 841 C247 815 258 792 273 774 C293 751 331 721 397 721 C463 721 501 751 521 774 C536 792 547 815 552 841 L486 841 Z " />
<glyph glyph-name="obreve" unicode="&#x14f;" horiz-adv-x="524" d="M262 -12 C388 -12 482 80 482 206 C482 332 389 425 262 425 C135 425 42 332 42 206 C42 80 136 -12 262 -12 L262 -12 Z M262 361 C338 361 408 308 408 206 C408 105 337 52 262 52 C188 52 116 104 116 206 C116 307 186 361 262 361 L262 361 Z M117 617 C124 579 142 556 146 550 C164 527 198 497 262 497 C326 497 360 527 378 550 C382 556 400 579 407 617 L346 617 C341 599 331 586 322 578 C305 563 284 557 262 557 C240 557 219 563 202 578 C193 586 183 599 178 617 L117 617 Z " />
<glyph glyph-name="Ohungarumlaut" unicode="&#x150;" horiz-adv-x="794" d="M397 -12 C590 -12 744 135 744 333 C744 532 589 678 397 678 C205 678 50 532 50 333 C50 135 204 -12 397 -12 L397 -12 Z M397 608 C547 608 668 486 668 333 C668 180 547 58 397 58 C247 58 126 180 126 333 C126 486 247 608 397 608 L397 608 Z M401 882 L281 746 L324 720 L471 842 L401 882 Z M551 882 L431 746 L474 720 L621 842 L551 882 Z " />
<glyph glyph-name="ohungarumlaut" unicode="&#x151;" horiz-adv-x="524" d="M262 -12 C388 -12 482 80 482 206 C482 332 389 425 262 425 C135 425 42 332 42 206 C42 80 136 -12 262 -12 L262 -12 Z M262 361 C338 361 408 308 408 206 C408 105 337 52 262 52 C188 52 116 104 116 206 C116 307 186 361 262 361 L262 361 Z M262 666 L156 521 L197 498 L334 634 L262 666 Z M396 666 L290 521 L331 498 L466 634 L396 666 Z " />
<glyph glyph-name="OE" unicode="&#x152;" horiz-adv-x="1056" d="M1006 667 L665 667 L665 536 C601 630 502 678 398 678 C206 678 50 521 50 332 C50 145 204 -12 401 -12 C494 -12 599 28 665 128 L665 0 L1006 0 L1006 70 L739 70 L739 329 L999 329 L999 399 L739 399 L739 597 L1006 597 L1006 667 Z M396 608 C544 608 665 483 665 331 C665 182 545 58 395 58 C245 58 126 183 126 332 C126 482 246 608 396 608 L396 608 Z " />
<glyph glyph-name="oe" unicode="&#x153;" horiz-adv-x="852" d="M810 209 C810 340 733 425 609 425 C574 425 491 418 442 326 C409 380 351 425 263 425 C137 425 42 331 42 206 C42 83 136 -12 260 -12 C338 -12 402 26 442 87 C493 -8 594 -12 616 -12 C707 -12 771 43 805 106 L744 141 C723 92 679 52 619 52 C540 52 486 117 483 194 L810 194 L810 209 Z M489 254 C502 321 552 361 612 361 C675 361 726 319 736 254 L489 254 Z M261 361 C354 361 406 291 406 204 C406 102 332 52 260 52 C171 52 116 125 116 206 C116 285 168 361 261 361 L261 361 Z " />
<glyph glyph-name="Racute" unicode="&#x154;" horiz-adv-x="502" d="M86 667 L86 0 L160 0 L160 292 L179 292 L382 0 L472 0 L260 298 C361 305 428 380 428 482 C428 553 394 604 355 630 C305 664 238 667 193 667 L86 667 Z M160 597 L205 597 C237 597 271 595 301 578 C343 554 354 517 354 480 C354 402 299 358 207 358 L160 358 L160 597 Z M312 882 L186 752 L229 720 L382 837 L312 882 Z " />
<glyph glyph-name="racute" unicode="&#x155;" horiz-adv-x="296" d="M68 0 L140 0 L140 219 C140 287 152 315 164 331 C175 345 193 357 222 357 C233 357 248 354 264 343 L298 408 C280 417 256 425 234 425 C178 425 147 381 140 370 L140 415 L68 415 L68 0 Z M252 666 L147 521 L192 497 L326 632 L252 666 Z " />
<glyph glyph-name="Rcommaaccent" unicode="&#x156;" horiz-adv-x="502" d="M86 667 L86 0 L160 0 L160 292 L179 292 L382 0 L472 0 L260 298 C361 305 428 380 428 482 C428 553 394 604 355 630 C305 664 238 667 193 667 L86 667 Z M160 597 L205 597 C237 597 271 595 301 578 C343 554 354 517 354 480 C354 402 299 358 207 358 L160 358 L160 597 Z M178 -210 L228 -230 L298 -74 L234 -50 L178 -210 Z " />
<glyph glyph-name="rcommaaccent" unicode="&#x157;" horiz-adv-x="296" d="M68 0 L140 0 L140 219 C140 287 152 315 164 331 C175 345 193 357 222 357 C233 357 248 354 264 343 L298 408 C280 417 256 425 234 425 C178 425 147 381 140 370 L140 415 L68 415 L68 0 Z M65 -210 L115 -230 L185 -74 L121 -50 L65 -210 Z " />
<glyph glyph-name="Rcaron" unicode="&#x158;" horiz-adv-x="502" d="M86 667 L86 0 L160 0 L160 292 L179 292 L382 0 L472 0 L260 298 C361 305 428 380 428 482 C428 553 394 604 355 630 C305 664 238 667 193 667 L86 667 Z M160 597 L205 597 C237 597 271 595 301 578 C343 554 354 517 354 480 C354 402 299 358 207 358 L160 358 L160 597 Z M230 805 L142 881 L90 840 L230 721 L370 840 L318 881 L230 805 Z " />
<glyph glyph-name="rcaron" unicode="&#x159;" horiz-adv-x="296" d="M68 0 L140 0 L140 219 C140 287 152 315 164 331 C175 345 193 357 222 357 C233 357 248 354 264 343 L298 408 C280 417 256 425 234 425 C178 425 147 381 140 370 L140 415 L68 415 L68 0 Z M200 573 L108 654 L62 618 L200 497 L338 618 L292 654 L200 573 Z " />
<glyph glyph-name="Sacute" unicode="&#x15a;" horiz-adv-x="518" d="M443 574 C428 603 405 630 378 648 C345 670 312 678 271 678 C163 678 84 609 84 506 C84 456 101 425 130 397 C160 368 193 354 219 342 L279 314 C314 298 340 286 359 268 C383 246 392 220 392 190 C392 123 349 58 258 58 C224 58 191 66 162 95 C143 115 127 145 122 180 L50 160 C59 120 79 74 112 42 C158 -3 213 -12 257 -12 C377 -12 468 70 468 193 C468 241 454 280 420 314 C392 342 356 360 317 377 L253 405 C228 416 203 427 183 447 C165 464 158 479 158 505 C158 567 204 608 270 608 C308 608 332 595 345 585 C360 573 375 553 384 535 L443 574 Z M341 882 L215 752 L258 720 L411 837 L341 882 Z " />
<glyph glyph-name="sacute" unicode="&#x15b;" horiz-adv-x="352" d="M298 350 C265 421 206 425 184 425 C114 425 63 382 63 309 C63 288 66 268 82 248 C101 225 133 209 183 187 C222 170 250 157 250 118 C250 87 229 52 182 52 C130 52 106 98 98 120 L36 94 C71 -10 164 -12 181 -12 C261 -12 324 37 324 124 C324 147 320 169 302 191 C286 211 258 230 198 255 C151 275 131 284 131 314 C131 346 155 361 181 361 C208 361 229 343 239 319 L298 350 Z M238 666 L133 521 L178 497 L312 632 L238 666 Z " />
<glyph glyph-name="Scircumflex" unicode="&#x15c;" horiz-adv-x="518" d="M443 574 C428 603 405 630 378 648 C345 670 312 678 271 678 C163 678 84 609 84 506 C84 456 101 425 130 397 C160 368 193 354 219 342 L279 314 C314 298 340 286 359 268 C383 246 392 220 392 190 C392 123 349 58 258 58 C224 58 191 66 162 95 C143 115 127 145 122 180 L50 160 C59 120 79 74 112 42 C158 -3 213 -12 257 -12 C377 -12 468 70 468 193 C468 241 454 280 420 314 C392 342 356 360 317 377 L253 405 C228 416 203 427 183 447 C165 464 158 479 158 505 C158 567 204 608 270 608 C308 608 332 595 345 585 C360 573 375 553 384 535 L443 574 Z M274 797 L362 721 L414 762 L274 881 L134 762 L186 721 L274 797 Z " />
<glyph glyph-name="scircumflex" unicode="&#x15d;" horiz-adv-x="352" d="M298 350 C265 421 206 425 184 425 C114 425 63 382 63 309 C63 288 66 268 82 248 C101 225 133 209 183 187 C222 170 250 157 250 118 C250 87 229 52 182 52 C130 52 106 98 98 120 L36 94 C71 -10 164 -12 181 -12 C261 -12 324 37 324 124 C324 147 320 169 302 191 C286 211 258 230 198 255 C151 275 131 284 131 314 C131 346 155 361 181 361 C208 361 229 343 239 319 L298 350 Z M184 578 L276 497 L322 533 L184 654 L46 533 L92 497 L184 578 Z " />
<glyph glyph-name="Scedilla" unicode="&#x15e;" horiz-adv-x="518" d="M443 574 C428 603 405 630 378 648 C345 670 312 678 271 678 C163 678 84 609 84 506 C84 456 101 425 130 397 C160 368 193 354 219 342 L279 314 C314 298 340 286 359 268 C383 246 392 220 392 190 C392 123 349 58 258 58 C224 58 191 66 162 95 C143 115 127 145 122 180 L50 160 C59 120 79 74 112 42 C158 -3 213 -12 257 -12 C377 -12 468 70 468 193 C468 241 454 280 420 314 C392 342 356 360 317 377 L253 405 C228 416 203 427 183 447 C165 464 158 479 158 505 C158 567 204 608 270 608 C308 608 332 595 345 585 C360 573 375 553 384 535 L443 574 Z M254 -52 L170 -184 L220 -210 L324 -82 L254 -52 Z " />
<glyph glyph-name="scedilla" unicode="&#x15f;" horiz-adv-x="352" d="M298 350 C265 421 206 425 184 425 C114 425 63 382 63 309 C63 288 66 268 82 248 C101 225 133 209 183 187 C222 170 250 157 250 118 C250 87 229 52 182 52 C130 52 106 98 98 120 L36 94 C71 -10 164 -12 181 -12 C261 -12 324 37 324 124 C324 147 320 169 302 191 C286 211 258 230 198 255 C151 275 131 284 131 314 C131 346 155 361 181 361 C208 361 229 343 239 319 L298 350 Z M176 -52 L92 -183 L141 -207 L242 -79 L176 -52 Z " />
<glyph glyph-name="Scaron" unicode="&#x160;" horiz-adv-x="518" d="M443 574 C428 603 405 630 378 648 C345 670 312 678 271 678 C163 678 84 609 84 506 C84 456 101 425 130 397 C160 368 193 354 219 342 L279 314 C314 298 340 286 359 268 C383 246 392 220 392 190 C392 123 349 58 258 58 C224 58 191 66 162 95 C143 115 127 145 122 180 L50 160 C59 120 79 74 112 42 C158 -3 213 -12 257 -12 C377 -12 468 70 468 193 C468 241 454 280 420 314 C392 342 356 360 317 377 L253 405 C228 416 203 427 183 447 C165 464 158 479 158 505 C158 567 204 608 270 608 C308 608 332 595 345 585 C360 573 375 553 384 535 L443 574 Z M274 805 L186 881 L134 840 L274 721 L414 840 L362 881 L274 805 Z " />
<glyph glyph-name="scaron" unicode="&#x161;" horiz-adv-x="352" d="M298 350 C265 421 206 425 184 425 C114 425 63 382 63 309 C63 288 66 268 82 248 C101 225 133 209 183 187 C222 170 250 157 250 118 C250 87 229 52 182 52 C130 52 106 98 98 120 L36 94 C71 -10 164 -12 181 -12 C261 -12 324 37 324 124 C324 147 320 169 302 191 C286 211 258 230 198 255 C151 275 131 284 131 314 C131 346 155 361 181 361 C208 361 229 343 239 319 L298 350 Z M184 573 L92 654 L46 618 L184 497 L322 618 L276 654 L184 573 Z " />
<glyph glyph-name="Tcedilla" unicode="&#x162;" horiz-adv-x="426" d="M412 597 L412 667 L14 667 L14 597 L176 597 L176 0 L250 0 L250 597 L412 597 Z M204 -52 L120 -184 L170 -210 L274 -82 L204 -52 Z " />
<glyph glyph-name="tcedilla" unicode="&#x163;" horiz-adv-x="214" d="M214 349 L214 415 L142 415 L142 565 L70 565 L70 415 L26 415 L26 349 L70 349 L70 0 L142 0 L142 349 L214 349 Z M96 -52 L12 -183 L61 -207 L162 -79 L96 -52 Z " />
<glyph glyph-name="Tcaron" unicode="&#x164;" horiz-adv-x="426" d="M412 597 L412 667 L14 667 L14 597 L176 597 L176 0 L250 0 L250 597 L412 597 Z M213 805 L125 881 L73 840 L213 721 L353 840 L301 881 L213 805 Z " />
<glyph glyph-name="tcaron" unicode="&#x165;" horiz-adv-x="276" d="M214 349 L214 415 L142 415 L142 565 L70 565 L70 415 L26 415 L26 349 L70 349 L70 0 L142 0 L142 349 L214 349 Z M180 530 L226 510 L296 666 L232 690 L180 530 Z " />
<glyph glyph-name="Utilde" unicode="&#x168;" horiz-adv-x="646" d="M160 667 L86 667 L86 238 C86 182 92 128 128 78 C168 23 238 -12 323 -12 C408 -12 478 23 518 78 C554 128 560 182 560 238 L560 667 L486 667 L486 258 C486 202 486 141 433 96 C406 73 360 58 323 58 C286 58 240 73 213 96 C160 141 160 202 160 258 L160 667 Z M435 842 C431 831 424 820 417 813 C407 803 396 799 385 799 C368 799 348 810 329 820 C311 829 288 841 261 841 C233 841 214 830 198 814 C185 802 175 788 168 769 L212 733 C215 745 222 756 229 764 C238 773 248 777 259 777 C274 777 290 769 315 757 C341 744 358 735 382 735 C401 735 428 741 452 766 C463 777 472 791 478 807 L435 842 Z " />
<glyph glyph-name="utilde" unicode="&#x169;" horiz-adv-x="466" d="M140 415 L68 415 L68 165 C68 114 73 76 106 40 C143 1 192 -12 233 -12 C274 -12 323 1 360 40 C393 76 398 114 398 165 L398 415 L326 415 L326 173 C326 144 326 110 306 84 C295 70 273 52 233 52 C193 52 171 70 160 84 C140 110 140 144 140 173 L140 415 Z M121 497 C126 506 133 517 142 526 C151 535 159 540 171 540 C186 540 202 532 226 521 C245 512 271 500 295 500 C314 500 338 506 361 530 C374 543 382 556 387 569 L346 603 C342 595 332 580 325 572 C316 562 308 560 296 560 C277 560 263 568 240 580 C218 591 197 600 170 600 C149 600 132 594 113 576 C102 565 88 546 79 531 L121 497 Z " />
<glyph glyph-name="Umacron" unicode="&#x16a;" horiz-adv-x="646" d="M160 667 L86 667 L86 238 C86 182 92 128 128 78 C168 23 238 -12 323 -12 C408 -12 478 23 518 78 C554 128 560 182 560 238 L560 667 L486 667 L486 258 C486 202 486 141 433 96 C406 73 360 58 323 58 C286 58 240 73 213 96 C160 141 160 202 160 258 L160 667 Z M163 733 L483 733 L483 797 L163 797 L163 733 Z " />
<glyph glyph-name="umacron" unicode="&#x16b;" horiz-adv-x="466" d="M140 415 L68 415 L68 165 C68 114 73 76 106 40 C143 1 192 -12 233 -12 C274 -12 323 1 360 40 C393 76 398 114 398 165 L398 415 L326 415 L326 173 C326 144 326 110 306 84 C295 70 273 52 233 52 C193 52 171 70 160 84 C140 110 140 144 140 173 L140 415 Z M82 513 L384 513 L384 573 L82 573 L82 513 Z " />
<glyph glyph-name="Ubreve" unicode="&#x16c;" horiz-adv-x="646" d="M160 667 L86 667 L86 238 C86 182 92 128 128 78 C168 23 238 -12 323 -12 C408 -12 478 23 518 78 C554 128 560 182 560 238 L560 667 L486 667 L486 258 C486 202 486 141 433 96 C406 73 360 58 323 58 C286 58 240 73 213 96 C160 141 160 202 160 258 L160 667 Z M412 841 C408 829 401 816 387 805 C369 791 345 785 323 785 C301 785 277 791 259 805 C245 816 238 829 234 841 L168 841 C173 815 184 792 199 774 C219 751 257 721 323 721 C389 721 427 751 447 774 C462 792 473 815 478 841 L412 841 Z " />
<glyph glyph-name="ubreve" unicode="&#x16d;" horiz-adv-x="466" d="M140 415 L68 415 L68 165 C68 114 73 76 106 40 C143 1 192 -12 233 -12 C274 -12 323 1 360 40 C393 76 398 114 398 165 L398 415 L326 415 L326 173 C326 144 326 110 306 84 C295 70 273 52 233 52 C193 52 171 70 160 84 C140 110 140 144 140 173 L140 415 Z M88 617 C95 579 113 556 117 550 C135 527 169 497 233 497 C297 497 331 527 349 550 C353 556 371 579 378 617 L317 617 C312 599 302 586 293 578 C276 563 255 557 233 557 C211 557 190 563 173 578 C164 586 154 599 149 617 L88 617 Z " />
<glyph glyph-name="Uring" unicode="&#x16e;" horiz-adv-x="646" d="M160 667 L86 667 L86 238 C86 182 92 128 128 78 C168 23 238 -12 323 -12 C408 -12 478 23 518 78 C554 128 560 182 560 238 L560 667 L486 667 L486 258 C486 202 486 141 433 96 C406 73 360 58 323 58 C286 58 240 73 213 96 C160 141 160 202 160 258 L160 667 Z M235 818 C235 770 275 730 323 730 C371 730 411 770 411 818 C411 866 371 906 323 906 C275 906 235 866 235 818 L235 818 Z M281 819 C281 841 301 861 323 861 C345 861 365 841 365 819 C365 797 345 777 323 777 C301 777 281 797 281 819 L281 819 Z " />
<glyph glyph-name="uring" unicode="&#x16f;" horiz-adv-x="466" d="M140 415 L68 415 L68 165 C68 114 73 76 106 40 C143 1 192 -12 233 -12 C274 -12 323 1 360 40 C393 76 398 114 398 165 L398 415 L326 415 L326 173 C326 144 326 110 306 84 C295 70 273 52 233 52 C193 52 171 70 160 84 C140 110 140 144 140 173 L140 415 Z M147 583 C147 536 186 497 233 497 C280 497 319 536 319 583 C319 630 280 669 233 669 C186 669 147 630 147 583 L147 583 Z M191 583 C191 605 211 625 233 625 C255 625 275 605 275 583 C275 561 255 541 233 541 C211 541 191 561 191 583 L191 583 Z " />
<glyph glyph-name="Uhungarumlaut" unicode="&#x170;" horiz-adv-x="646" d="M160 667 L86 667 L86 238 C86 182 92 128 128 78 C168 23 238 -12 323 -12 C408 -12 478 23 518 78 C554 128 560 182 560 238 L560 667 L486 667 L486 258 C486 202 486 141 433 96 C406 73 360 58 323 58 C286 58 240 73 213 96 C160 141 160 202 160 258 L160 667 Z M327 882 L207 746 L250 720 L397 842 L327 882 Z M477 882 L357 746 L400 720 L547 842 L477 882 Z " />
<glyph glyph-name="uhungarumlaut" unicode="&#x171;" horiz-adv-x="466" d="M140 415 L68 415 L68 165 C68 114 73 76 106 40 C143 1 192 -12 233 -12 C274 -12 323 1 360 40 C393 76 398 114 398 165 L398 415 L326 415 L326 173 C326 144 326 110 306 84 C295 70 273 52 233 52 C193 52 171 70 160 84 C140 110 140 144 140 173 L140 415 Z M233 666 L127 521 L168 498 L305 634 L233 666 Z M367 666 L261 521 L302 498 L437 634 L367 666 Z " />
<glyph glyph-name="Uogonek" unicode="&#x172;" horiz-adv-x="646" d="M160 667 L86 667 L86 238 C86 181 92 128 128 78 C175 13 255 -12 323 -12 C312 -20 302 -30 292 -44 C279 -62 271 -81 271 -104 C271 -125 276 -143 292 -160 C309 -177 337 -190 368 -190 C386 -190 407 -186 427 -176 L435 -117 C419 -126 404 -130 387 -130 C375 -130 360 -129 348 -119 C339 -111 335 -102 335 -90 C335 -75 342 -57 355 -42 C370 -24 394 -11 414 0 C445 18 483 38 503 59 C557 115 560 189 560 238 L560 667 L486 667 L486 247 C486 205 486 141 433 96 C406 73 360 58 323 58 C279 58 231 78 203 106 C163 147 160 197 160 245 L160 667 Z " />
<glyph glyph-name="uogonek" unicode="&#x173;" horiz-adv-x="466" d="M140 415 L68 415 L68 165 C68 114 73 76 106 40 C140 4 185 -10 223 -12 C201 -29 188 -48 186 -51 C175 -67 170 -84 170 -103 C170 -129 181 -147 192 -158 C208 -174 234 -186 265 -186 C279 -186 301 -184 322 -172 L330 -117 C316 -125 299 -130 282 -130 C268 -130 253 -127 243 -119 C235 -113 230 -104 230 -90 C230 -78 234 -62 250 -43 C260 -31 275 -17 300 -2 C323 12 341 21 360 40 C397 78 398 126 398 165 L398 415 L326 415 L326 173 C326 144 326 110 306 84 C295 70 273 52 233 52 C193 52 171 70 160 84 C140 110 140 144 140 173 L140 415 Z " />
<glyph glyph-name="Ydieresis" unicode="&#x178;" horiz-adv-x="530" d="M227 0 L301 0 L301 287 L522 667 L436 667 L264 369 L94 667 L8 667 L227 287 L227 0 Z M119 784 C119 756 142 733 170 733 C198 733 221 756 221 784 C221 812 198 835 170 835 C142 835 119 812 119 784 L119 784 Z M309 784 C309 756 332 733 360 733 C388 733 411 756 411 784 C411 812 388 835 360 835 C332 835 309 812 309 784 L309 784 Z " />
<glyph glyph-name="Zacute" unicode="&#x179;" horiz-adv-x="536" d="M512 667 L71 667 L71 597 L388 597 L24 0 L502 0 L502 70 L148 70 L512 667 Z M350 882 L224 752 L267 720 L420 837 L350 882 Z " />
<glyph glyph-name="zacute" unicode="&#x17a;" horiz-adv-x="460" d="M452 415 L66 415 L66 349 L308 349 L8 0 L440 0 L440 66 L152 66 L452 415 Z M292 666 L187 521 L232 497 L366 632 L292 666 Z " />
<glyph glyph-name="Zdotaccent" unicode="&#x17b;" horiz-adv-x="536" d="M512 667 L71 667 L71 597 L388 597 L24 0 L502 0 L502 70 L148 70 L512 667 Z M225 784 C225 752 248 729 280 729 C312 729 335 752 335 784 C335 816 312 839 280 839 C248 839 225 816 225 784 L225 784 Z " />
<glyph glyph-name="zdotaccent" unicode="&#x17c;" horiz-adv-x="460" d="M452 415 L66 415 L66 349 L308 349 L8 0 L440 0 L440 66 L152 66 L452 415 Z M197 553 C197 523 220 500 250 500 C280 500 303 523 303 553 C303 583 280 606 250 606 C220 606 197 583 197 553 L197 553 Z " />
<glyph glyph-name="Zcaron" unicode="&#x17d;" horiz-adv-x="536" d="M512 667 L71 667 L71 597 L388 597 L24 0 L502 0 L502 70 L148 70 L512 667 Z M280 805 L192 881 L140 840 L280 721 L420 840 L368 881 L280 805 Z " />
<glyph glyph-name="zcaron" unicode="&#x17e;" horiz-adv-x="460" d="M452 415 L66 415 L66 349 L308 349 L8 0 L440 0 L440 66 L152 66 L452 415 Z M250 573 L158 654 L112 618 L250 497 L388 618 L342 654 L250 573 Z " />
<glyph glyph-name="uni018F" unicode="&#x18f;" horiz-adv-x="756" d="M132 483 C151 510 173 534 195 552 C227 579 277 608 357 608 C519 608 630 484 630 335 L50 335 L50 319 C50 245 72 165 114 108 C160 45 244 -12 362 -12 C559 -12 706 139 706 333 C706 527 557 678 358 678 C294 678 219 662 154 612 C124 589 96 559 77 533 L132 483 Z M623 265 C596 145 486 58 357 58 C268 58 191 102 153 170 C141 191 128 223 126 265 L623 265 Z " />
<glyph glyph-name="florin" unicode="&#x192;" horiz-adv-x="568" d="M427 355 L436 415 L330 415 L360 574 C370 629 382 648 392 658 C403 668 417 674 436 674 C452 674 468 669 482 663 L495 730 C483 734 461 740 431 740 C403 740 367 735 339 707 C328 696 303 667 290 594 L257 415 L183 415 L174 355 L246 355 L191 53 C179 -15 165 -53 143 -75 C115 -102 75 -104 54 -104 C44 -104 36 -103 29 -102 L15 -166 C27 -168 40 -170 57 -170 C117 -170 163 -155 196 -123 C237 -83 248 -29 258 26 L319 355 L427 355 Z " />
<glyph glyph-name="uni01CF" unicode="&#x1cf;" horiz-adv-x="246" d="M85 667 L85 0 L159 0 L159 667 L85 667 Z M123 805 L35 881 L-17 840 L123 721 L263 840 L211 881 L123 805 Z " />
<glyph glyph-name="uni01D0" unicode="&#x1d0;" horiz-adv-x="208" d="M68 415 L68 0 L140 0 L140 415 L68 415 Z M104 579 L29 646 L-14 611 L104 505 L222 611 L179 646 L104 579 Z " />
<glyph glyph-name="uni01DD" unicode="&#x1dd;" horiz-adv-x="482" d="M105 274 C114 294 129 315 148 331 C172 352 199 361 233 361 C306 361 365 306 366 220 L42 220 C38 167 51 105 80 64 C106 28 157 -12 238 -12 C364 -12 440 84 440 208 C440 362 334 425 234 425 C191 425 140 414 96 374 C75 355 57 330 45 307 L105 274 Z M360 160 C349 98 299 52 238 52 C174 52 126 96 116 160 L360 160 Z " />
<glyph glyph-name="Gcaron" unicode="&#x1e6;" horiz-adv-x="758" d="M430 265 L628 265 C626 223 613 191 601 170 C563 103 486 58 397 58 C271 58 126 150 126 332 C126 487 238 608 399 608 C479 608 529 578 561 552 C583 534 605 510 624 483 L679 533 C660 559 632 589 602 612 C537 662 462 678 398 678 C199 678 50 527 50 333 C50 139 198 -12 396 -12 C549 -12 624 81 644 108 C686 165 708 245 708 319 L708 335 L430 335 L430 265 Z M379 805 L291 881 L239 840 L379 721 L519 840 L467 881 L379 805 Z " />
<glyph glyph-name="gcaron" unicode="&#x1e7;" horiz-adv-x="526" d="M386 356 C353 399 305 425 244 425 C188 425 137 403 102 369 C72 339 42 289 42 208 C42 124 74 72 102 44 C134 12 183 -12 244 -12 C317 -12 362 27 386 58 L386 -2 C386 -37 384 -74 363 -108 C339 -148 304 -166 253 -166 C221 -166 183 -159 153 -126 C135 -106 121 -75 121 -40 L50 -40 C50 -101 76 -146 104 -174 C132 -202 181 -230 252 -230 C330 -230 387 -195 418 -153 C458 -99 458 -35 458 10 L458 415 L386 415 L386 356 Z M252 361 C289 361 323 347 346 324 C372 299 390 256 390 207 C390 158 371 114 343 87 C320 64 290 52 252 52 C214 52 186 65 163 86 C123 123 116 172 116 208 C116 242 123 286 158 322 C178 342 208 361 252 361 L252 361 Z M263 573 L171 654 L125 618 L263 497 L401 618 L355 654 L263 573 Z " />
<glyph glyph-name="AEacute" unicode="&#x1fc;" horiz-adv-x="900" d="M538 0 L886 0 L857 70 L586 70 L478 329 L740 329 L711 399 L447 399 L364 597 L633 597 L604 667 L311 667 L14 0 L96 0 L175 187 L459 187 L538 0 Z M207 257 L320 518 L430 257 L207 257 Z M532 882 L406 752 L449 720 L602 837 L532 882 Z " />
<glyph glyph-name="aeacute" unicode="&#x1fd;" horiz-adv-x="774" d="M667 140 C643 92 597 52 539 52 C468 52 411 111 408 193 L732 193 L732 200 C732 336 655 425 534 425 C467 425 408 396 374 341 C338 417 263 425 217 425 C183 425 143 421 88 403 L88 335 C113 344 168 361 216 361 C259 361 294 349 315 313 C331 287 335 249 334 225 C302 248 265 260 215 260 C119 260 42 212 42 123 C42 32 124 -12 221 -12 C264 -12 335 -3 377 71 C430 -7 505 -12 540 -12 C644 -12 699 51 727 104 L667 140 Z M413 253 C424 322 475 361 535 361 C597 361 649 321 658 253 L413 253 Z M221 196 C303 196 330 155 330 126 C330 94 302 52 219 52 C136 52 114 93 114 123 C114 163 150 196 221 196 L221 196 Z M449 666 L344 521 L389 497 L523 632 L449 666 Z " />
<glyph glyph-name="Scommaaccent" unicode="&#x218;" horiz-adv-x="518" d="M443 574 C428 603 405 630 378 648 C345 670 312 678 271 678 C163 678 84 609 84 506 C84 456 101 425 130 397 C160 368 193 354 219 342 L279 314 C314 298 340 286 359 268 C383 246 392 220 392 190 C392 123 349 58 258 58 C224 58 191 66 162 95 C143 115 127 145 122 180 L50 160 C59 120 79 74 112 42 C158 -3 213 -12 257 -12 C377 -12 468 70 468 193 C468 241 454 280 420 314 C392 342 356 360 317 377 L253 405 C228 416 203 427 183 447 C165 464 158 479 158 505 C158 567 204 608 270 608 C308 608 332 595 345 585 C360 573 375 553 384 535 L443 574 Z M188 -210 L238 -230 L308 -74 L244 -50 L188 -210 Z " />
<glyph glyph-name="scommaaccent" unicode="&#x219;" horiz-adv-x="352" d="M298 350 C265 421 206 425 184 425 C114 425 63 382 63 309 C63 288 66 268 82 248 C101 225 133 209 183 187 C222 170 250 157 250 118 C250 87 229 52 182 52 C130 52 106 98 98 120 L36 94 C71 -10 164 -12 181 -12 C261 -12 324 37 324 124 C324 147 320 169 302 191 C286 211 258 230 198 255 C151 275 131 284 131 314 C131 346 155 361 181 361 C208 361 229 343 239 319 L298 350 Z M110 -210 L160 -230 L230 -74 L166 -50 L110 -210 Z " />
<glyph glyph-name="Tcommaaccent" unicode="&#x21a;" horiz-adv-x="426" d="M412 597 L412 667 L14 667 L14 597 L176 597 L176 0 L250 0 L250 597 L412 597 Z M128 -210 L178 -230 L248 -74 L184 -50 L128 -210 Z " />
<glyph glyph-name="tcommaaccent" unicode="&#x21b;" horiz-adv-x="214" d="M214 349 L214 415 L142 415 L142 565 L70 565 L70 415 L26 415 L26 349 L70 349 L70 0 L142 0 L142 349 L214 349 Z M30 -210 L80 -230 L150 -74 L86 -50 L30 -210 Z " />
<glyph glyph-name="uni0228" unicode="&#x228;" horiz-adv-x="482" d="M432 667 L86 667 L86 0 L432 0 L432 70 L160 70 L160 329 L424 329 L424 399 L160 399 L160 597 L432 597 L432 667 Z M255 -52 L171 -184 L221 -210 L325 -82 L255 -52 Z " />
<glyph glyph-name="uni0229" unicode="&#x229;" horiz-adv-x="481" d="M376 139 C367 119 352 98 333 82 C309 62 282 52 248 52 C176 52 117 107 116 193 L439 193 C441 248 426 312 400 349 C375 385 324 425 243 425 C118 425 42 329 42 205 C42 51 147 -12 247 -12 C300 -12 347 5 385 39 C406 58 424 83 436 106 L376 139 Z M121 253 C132 315 182 361 243 361 C304 361 353 318 365 253 L121 253 Z M256 -52 L172 -183 L221 -207 L322 -79 L256 -52 Z " />
<glyph glyph-name="uni0237" unicode="&#x237;" horiz-adv-x="208" d="M68 415 L68 -230 L140 -230 L140 415 L68 415 Z " />
<glyph glyph-name="uni0259" unicode="&#x259;" horiz-adv-x="482" d="M105 274 C114 294 129 315 148 331 C172 352 199 361 233 361 C306 361 365 306 366 220 L42 220 C38 167 51 105 80 64 C106 28 157 -12 238 -12 C364 -12 440 84 440 208 C440 362 334 425 234 425 C191 425 140 414 96 374 C75 355 57 330 45 307 L105 274 Z M360 160 C349 98 299 52 238 52 C174 52 126 96 116 160 L360 160 Z " />
<glyph glyph-name="afii57929" unicode="&#x2bc;" horiz-adv-x="500" d="M190 530 L236 510 L306 666 L242 690 L190 530 Z " />
<glyph glyph-name="circumflex" unicode="&#x2c6;" horiz-adv-x="500" d="M250 578 L342 497 L388 533 L250 654 L112 533 L158 497 L250 578 Z " />
<glyph glyph-name="caron" unicode="&#x2c7;" horiz-adv-x="500" d="M250 573 L158 654 L112 618 L250 497 L388 618 L342 654 L250 573 Z " />
<glyph glyph-name="uni02C9" unicode="&#x2c9;" horiz-adv-x="500" d="M99 513 L401 513 L401 573 L99 573 L99 513 Z " />
<glyph glyph-name="breve" unicode="&#x2d8;" horiz-adv-x="500" d="M105 617 C112 579 130 556 134 550 C152 527 186 497 250 497 C314 497 348 527 366 550 C370 556 388 579 395 617 L334 617 C329 599 319 586 310 578 C293 563 272 557 250 557 C228 557 207 563 190 578 C181 586 171 599 166 617 L105 617 Z " />
<glyph glyph-name="dotaccent" unicode="&#x2d9;" horiz-adv-x="500" d="M197 553 C197 523 220 500 250 500 C280 500 303 523 303 553 C303 583 280 606 250 606 C220 606 197 583 197 553 L197 553 Z " />
<glyph glyph-name="ring" unicode="&#x2da;" horiz-adv-x="500" d="M164 583 C164 536 203 497 250 497 C297 497 336 536 336 583 C336 630 297 669 250 669 C203 669 164 630 164 583 L164 583 Z M208 583 C208 605 228 625 250 625 C272 625 292 605 292 583 C292 561 272 541 250 541 C228 541 208 561 208 583 L208 583 Z " />
<glyph glyph-name="ogonek" unicode="&#x2db;" horiz-adv-x="500" d="M364 -117 C354 -123 336 -130 316 -130 C276 -130 264 -110 264 -90 C264 -67 282 -45 287 -39 C299 -25 319 -10 334 0 L276 0 C249 -13 234 -31 228 -39 C213 -58 204 -80 204 -103 C204 -154 251 -186 300 -186 C314 -186 335 -183 356 -172 L364 -117 Z " />
<glyph glyph-name="tilde" unicode="&#x2dc;" horiz-adv-x="500" d="M138 497 C143 506 150 517 159 526 C168 535 176 540 188 540 C203 540 219 532 243 521 C262 512 288 500 312 500 C331 500 355 506 378 530 C391 543 399 556 404 569 L363 603 C359 595 349 580 342 572 C333 562 325 560 313 560 C294 560 280 568 257 580 C235 591 214 600 187 600 C166 600 149 594 130 576 C119 565 105 546 96 531 L138 497 Z " />
<glyph glyph-name="hungarumlaut" unicode="&#x2dd;" horiz-adv-x="500" d="M250 666 L144 521 L185 498 L322 634 L250 666 Z M384 666 L278 521 L319 498 L454 634 L384 666 Z " />
<glyph glyph-name="acutecomb" unicode="&#x301;" horiz-adv-x="2" d="M-186 666 L-291 521 L-246 497 L-112 632 L-186 666 Z " />
<glyph glyph-name="&amp;#x394;" unicode="&#x394;" horiz-adv-x="668" d="M640 0 L372 667 L296 667 L28 0 L640 0 Z M334 574 L534 70 L134 70 L334 574 Z " />
<glyph glyph-name="&amp;#x2206;" unicode="&#x2206;" horiz-adv-x="668" d="M640 0 L372 667 L296 667 L28 0 L640 0 Z M334 574 L534 70 L134 70 L334 574 Z " />
<glyph glyph-name="&amp;#x3a9;" unicode="&#x3a9;" horiz-adv-x="668" d="M379 0 L639 0 L639 70 L460 70 C510 96 552 133 581 173 C623 231 639 293 639 359 C639 459 601 543 547 596 C507 636 438 678 334 678 C230 678 161 636 121 596 C67 543 29 459 29 359 C29 293 45 231 87 173 C116 133 158 96 208 70 L29 70 L29 0 L289 0 L289 70 C242 95 188 138 156 183 C132 218 105 272 105 352 C105 450 143 513 181 549 C215 581 266 608 334 608 C402 608 453 581 487 549 C525 513 563 450 563 352 C563 272 536 218 512 183 C480 138 426 95 379 70 L379 0 Z " />
<glyph glyph-name="&amp;#x2126;" unicode="&#x2126;" horiz-adv-x="668" d="M379 0 L639 0 L639 70 L460 70 C510 96 552 133 581 173 C623 231 639 293 639 359 C639 459 601 543 547 596 C507 636 438 678 334 678 C230 678 161 636 121 596 C67 543 29 459 29 359 C29 293 45 231 87 173 C116 133 158 96 208 70 L29 70 L29 0 L289 0 L289 70 C242 95 188 138 156 183 C132 218 105 272 105 352 C105 450 143 513 181 549 C215 581 266 608 334 608 C402 608 453 581 487 549 C525 513 563 450 563 352 C563 272 536 218 512 183 C480 138 426 95 379 70 L379 0 Z " />
<glyph glyph-name="pi" unicode="&#x3c0;" horiz-adv-x="538" d="M174 0 L174 349 L364 349 L364 0 L436 0 L436 349 L510 349 L510 415 L28 415 L28 349 L102 349 L102 0 L174 0 Z " />
<glyph glyph-name="afii10023" unicode="&#x401;" horiz-adv-x="482" d="M432 667 L86 667 L86 0 L432 0 L432 70 L160 70 L160 329 L424 329 L424 399 L160 399 L160 597 L432 597 L432 667 Z M112 784 C112 756 135 733 163 733 C191 733 214 756 214 784 C214 812 191 835 163 835 C135 835 112 812 112 784 L112 784 Z M302 784 C302 756 325 733 353 733 C381 733 404 756 404 784 C404 812 381 835 353 835 C325 835 302 812 302 784 L302 784 Z " />
<glyph glyph-name="afii10051" unicode="&#x402;" horiz-adv-x="646" d="M450 597 L450 667 L14 667 L14 597 L174 597 L174 0 L248 0 L248 315 C288 329 338 338 378 338 C436 338 478 318 500 292 C518 270 528 236 528 195 C528 156 520 118 488 91 C461 68 429 64 395 64 C374 64 355 65 332 70 L332 0 C352 -3 379 -6 400 -6 C444 -6 498 4 534 31 C567 55 604 106 604 194 C604 249 591 303 560 341 C527 381 470 408 385 408 C343 408 294 400 248 385 L248 597 L450 597 Z " />
<glyph glyph-name="afii10052" unicode="&#x403;" horiz-adv-x="404" d="M86 0 L160 0 L160 597 L390 597 L390 667 L86 667 L86 0 Z M322 882 L196 752 L239 720 L392 837 L322 882 Z " />
<glyph glyph-name="afii10053" unicode="&#x404;" horiz-adv-x="645" d="M595 612 C518 665 440 678 378 678 C176 678 50 530 50 331 C50 136 173 -12 374 -12 C429 -12 513 0 595 53 L595 145 C573 122 549 106 518 91 C470 68 418 58 374 58 C244 58 125 159 126 310 L515 310 L515 380 L129 380 C139 506 236 608 373 608 C418 608 467 598 508 580 C525 572 560 555 595 520 L595 612 Z " />
<glyph glyph-name="afii10054" unicode="&#x405;" horiz-adv-x="518" d="M443 574 C428 603 405 630 378 648 C345 670 312 678 271 678 C163 678 84 609 84 506 C84 456 101 425 130 397 C160 368 193 354 219 342 L279 314 C314 298 340 286 359 268 C383 246 392 220 392 190 C392 123 349 58 258 58 C224 58 191 66 162 95 C143 115 127 145 122 180 L50 160 C59 120 79 74 112 42 C158 -3 213 -12 257 -12 C377 -12 468 70 468 193 C468 241 454 280 420 314 C392 342 356 360 317 377 L253 405 C228 416 203 427 183 447 C165 464 158 479 158 505 C158 567 204 608 270 608 C308 608 332 595 345 585 C360 573 375 553 384 535 L443 574 Z " />
<glyph glyph-name="afii10055" unicode="&#x406;" horiz-adv-x="246" d="M86 667 L86 0 L160 0 L160 667 L86 667 Z " />
<glyph glyph-name="afii10056" unicode="&#x407;" horiz-adv-x="246" d="M86 667 L86 0 L160 0 L160 667 L86 667 Z M15 784 C15 756 34 733 60 733 C86 733 105 757 105 784 C105 811 86 835 60 835 C34 835 15 812 15 784 L15 784 Z M141 784 C141 757 160 733 186 733 C212 733 231 756 231 784 C231 812 212 835 186 835 C160 835 141 811 141 784 L141 784 Z " />
<glyph glyph-name="afii10057" unicode="&#x408;" horiz-adv-x="306" d="M146 667 L146 185 C146 144 146 102 121 77 C109 65 91 58 71 58 C46 58 17 71 -5 95 L-46 37 C-16 3 25 -12 73 -12 C122 -12 156 5 179 30 C219 72 220 133 220 187 L220 667 L146 667 Z " />
<glyph glyph-name="afii10058" unicode="&#x409;" horiz-adv-x="922" d="M154 667 L154 269 C154 201 155 129 116 90 C103 77 81 64 51 64 C37 64 24 67 14 70 L14 0 C34 -5 49 -6 54 -6 C98 -6 139 8 168 34 C231 91 228 179 228 239 L228 597 L486 597 L486 0 L664 0 C795 0 880 75 880 202 C880 373 732 390 650 390 L560 390 L560 667 L154 667 Z M560 320 L638 320 C679 320 719 320 750 303 C796 278 804 234 804 202 C804 154 787 124 769 107 C731 70 676 70 646 70 L560 70 L560 320 Z " />
<glyph glyph-name="afii10059" unicode="&#x40a;" horiz-adv-x="938" d="M160 667 L86 667 L86 0 L160 0 L160 320 L502 320 L502 0 L680 0 C811 0 896 75 896 202 C896 373 748 390 666 390 L576 390 L576 667 L502 667 L502 390 L160 390 L160 667 Z M576 320 L654 320 C695 320 735 320 766 303 C812 278 820 234 820 202 C820 154 803 124 785 107 C747 70 692 70 662 70 L576 70 L576 320 Z " />
<glyph glyph-name="afii10060" unicode="&#x40b;" horiz-adv-x="678" d="M450 597 L450 667 L14 667 L14 597 L174 597 L174 0 L248 0 L248 331 C280 334 325 338 382 338 C434 338 474 335 498 317 C538 288 538 233 538 207 L538 0 L612 0 L612 217 C612 262 607 329 551 372 C519 397 469 408 386 408 C351 408 288 404 248 401 L248 597 L450 597 Z " />
<glyph glyph-name="afii10061" unicode="&#x40c;" horiz-adv-x="568" d="M160 667 L86 667 L86 0 L160 0 L160 287 L179 306 L452 0 L554 0 L232 356 L544 667 L444 667 L160 381 L160 667 Z M366 882 L240 752 L283 720 L436 837 L366 882 Z " />
<glyph glyph-name="afii10062" unicode="&#x40e;" horiz-adv-x="568" d="M8 667 L264 186 L179 0 L259 0 L560 667 L480 667 L306 274 L98 667 L8 667 Z M135 818 C141 801 176 721 290 721 C404 721 439 801 445 818 L375 841 C359 786 298 785 290 785 C282 785 221 786 205 841 L135 818 Z " />
<glyph glyph-name="afii10145" unicode="&#x40f;" horiz-adv-x="658" d="M86 0 L294 0 L294 -160 L364 -160 L364 0 L572 0 L572 667 L498 667 L498 70 L160 70 L160 667 L86 667 L86 0 Z " />
<glyph glyph-name="afii10017" unicode="&#x410;" horiz-adv-x="622" d="M532 0 L614 0 L315 699 L8 0 L90 0 L170 188 L454 188 L532 0 Z M199 258 L313 525 L425 258 L199 258 Z " />
<glyph glyph-name="afii10018" unicode="&#x411;" horiz-adv-x="530" d="M86 0 L264 0 C395 0 480 75 480 202 C480 373 332 390 250 390 L160 390 L160 597 L417 597 L417 667 L86 667 L86 0 Z M160 320 L238 320 C279 320 319 320 350 303 C396 278 404 234 404 202 C404 154 387 124 369 107 C331 70 276 70 246 70 L160 70 L160 320 Z " />
<glyph glyph-name="afii10019" unicode="&#x412;" horiz-adv-x="530" d="M86 667 L86 0 L252 0 C298 0 359 2 412 44 C448 72 480 124 480 188 C480 252 446 333 353 356 C412 396 419 454 419 487 C419 568 380 609 359 625 C310 664 243 667 206 667 L86 667 Z M160 597 L218 597 C239 597 347 595 347 485 C347 382 255 374 216 374 L160 374 L160 597 Z M160 308 L236 308 C289 308 324 302 349 288 C375 274 406 243 406 190 C406 150 388 117 362 98 C330 73 288 70 245 70 L160 70 L160 308 Z " />
<glyph glyph-name="afii10020" unicode="&#x413;" horiz-adv-x="404" d="M86 0 L160 0 L160 597 L390 597 L390 667 L86 667 L86 0 Z " />
<glyph glyph-name="afii10021" unicode="&#x414;" horiz-adv-x="640" d="M144 667 L144 335 C144 243 133 193 120 160 C100 110 62 68 14 70 L14 -140 L84 -140 L84 0 L556 0 L556 -140 L626 -140 L626 70 L550 70 L550 667 L144 667 Z M218 597 L476 597 L476 70 L143 70 C165 92 182 117 194 149 C210 191 218 243 218 335 L218 597 Z " />
<glyph glyph-name="afii10022" unicode="&#x415;" horiz-adv-x="482" d="M432 667 L86 667 L86 0 L432 0 L432 70 L160 70 L160 329 L424 329 L424 399 L160 399 L160 597 L432 597 L432 667 Z " />
<glyph glyph-name="afii10024" unicode="&#x416;" horiz-adv-x="810" d="M368 667 L368 381 L114 667 L22 667 L302 356 L14 0 L108 0 L352 305 L368 287 L368 0 L442 0 L442 287 L458 305 L702 0 L796 0 L508 356 L788 667 L696 667 L442 381 L442 667 L368 667 Z " />
<glyph glyph-name="afii10025" unicode="&#x417;" horiz-adv-x="576" d="M157 536 C197 594 243 608 291 608 C317 608 355 604 381 577 C397 561 408 536 408 507 C408 446 365 394 272 394 L212 394 L212 324 L272 324 C337 324 450 315 450 193 C450 157 439 116 396 86 C368 67 330 58 294 58 C214 58 149 105 122 180 L50 148 C84 70 159 -12 291 -12 C345 -12 401 3 443 32 C484 61 526 112 526 195 C526 276 481 347 392 367 C444 391 484 440 484 508 C484 563 461 605 432 631 C386 673 325 678 291 678 C226 678 154 661 100 581 L157 536 Z " />
<glyph glyph-name="afii10026" unicode="&#x418;" horiz-adv-x="710" d="M550 0 L624 0 L624 695 L160 156 L160 667 L86 667 L86 -30 L550 509 L550 0 Z " />
<glyph glyph-name="afii10027" unicode="&#x419;" horiz-adv-x="710" d="M550 0 L624 0 L624 695 L160 156 L160 667 L86 667 L86 -30 L550 509 L550 0 Z M200 818 C206 801 241 721 355 721 C469 721 504 801 510 818 L440 841 C424 786 363 785 355 785 C347 785 286 786 270 841 L200 818 Z " />
<glyph glyph-name="afii10028" unicode="&#x41a;" horiz-adv-x="568" d="M160 667 L86 667 L86 0 L160 0 L160 287 L179 306 L452 0 L554 0 L232 356 L544 667 L444 667 L160 381 L160 667 Z " />
<glyph glyph-name="afii10029" unicode="&#x41b;" horiz-adv-x="646" d="M154 667 L154 269 C154 201 155 129 116 90 C103 77 81 64 51 64 C37 64 24 67 14 70 L14 0 C34 -5 49 -6 54 -6 C98 -6 139 8 168 34 C231 91 228 179 228 239 L228 597 L486 597 L486 0 L560 0 L560 667 L154 667 Z " />
<glyph glyph-name="afii10030" unicode="&#x41c;" horiz-adv-x="863" d="M139 0 L205 464 L429 -28 L656 464 L719 0 L795 0 L691 705 L430 141 L174 704 L63 0 L139 0 Z " />
<glyph glyph-name="afii10031" unicode="&#x41d;" horiz-adv-x="662" d="M160 667 L86 667 L86 0 L160 0 L160 326 L502 326 L502 0 L576 0 L576 667 L502 667 L502 396 L160 396 L160 667 Z " />
<glyph glyph-name="afii10032" unicode="&#x41e;" horiz-adv-x="794" d="M397 -12 C590 -12 744 135 744 333 C744 532 589 678 397 678 C205 678 50 532 50 333 C50 135 204 -12 397 -12 L397 -12 Z M397 608 C547 608 668 486 668 333 C668 180 547 58 397 58 C247 58 126 180 126 333 C126 486 247 608 397 608 L397 608 Z " />
<glyph glyph-name="afii10033" unicode="&#x41f;" horiz-adv-x="662" d="M86 667 L86 0 L160 0 L160 597 L502 597 L502 0 L576 0 L576 667 L86 667 Z " />
<glyph glyph-name="afii10034" unicode="&#x420;" horiz-adv-x="456" d="M86 667 L86 0 L160 0 L160 290 L225 290 C377 290 436 383 436 477 C436 519 424 578 375 620 C330 659 274 667 207 667 L86 667 Z M160 597 L215 597 C263 597 362 587 362 481 C362 404 309 360 221 360 L160 360 L160 597 Z " />
<glyph glyph-name="afii10035" unicode="&#x421;" horiz-adv-x="646" d="M596 612 C516 673 439 678 399 678 C199 678 50 530 50 331 C50 138 197 -12 395 -12 C445 -12 522 0 596 53 L596 145 C584 133 557 108 519 89 C484 71 440 58 395 58 C273 58 126 149 126 330 C126 484 240 608 394 608 C433 608 474 598 509 582 C543 566 575 541 596 520 L596 612 Z " />
<glyph glyph-name="afii10036" unicode="&#x422;" horiz-adv-x="426" d="M412 597 L412 667 L14 667 L14 597 L176 597 L176 0 L250 0 L250 597 L412 597 Z " />
<glyph glyph-name="afii10037" unicode="&#x423;" horiz-adv-x="568" d="M8 667 L264 186 L179 0 L259 0 L560 667 L480 667 L306 274 L98 667 L8 667 Z " />
<glyph glyph-name="afii10038" unicode="&#x424;" horiz-adv-x="822" d="M374 0 L448 0 L448 94 L466 94 C714 94 772 246 772 354 C772 462 714 614 466 614 L448 614 L448 694 L374 694 L374 614 L356 614 C108 614 50 462 50 354 C50 246 108 94 356 94 L374 94 L374 0 Z M374 164 L354 164 C172 164 126 269 126 354 C126 439 172 544 354 544 L374 544 L374 164 Z M448 544 L468 544 C650 544 696 439 696 354 C696 269 650 164 468 164 L448 164 L448 544 Z " />
<glyph glyph-name="afii10039" unicode="&#x425;" horiz-adv-x="504" d="M14 0 L98 0 L253 274 L406 0 L490 0 L297 345 L480 667 L396 667 L254 416 L116 667 L32 667 L211 345 L14 0 Z " />
<glyph glyph-name="afii10040" unicode="&#x426;" horiz-adv-x="662" d="M86 0 L578 0 L578 -140 L648 -140 L648 70 L572 70 L572 667 L498 667 L498 70 L160 70 L160 667 L86 667 L86 0 Z " />
<glyph glyph-name="afii10041" unicode="&#x427;" horiz-adv-x="590" d="M430 0 L504 0 L504 667 L430 667 L430 356 C398 353 353 349 296 349 C244 349 204 352 180 370 C140 399 140 454 140 480 L140 667 L66 667 L66 470 C66 425 71 358 127 315 C159 290 209 279 292 279 C327 279 390 283 430 286 L430 0 Z " />
<glyph glyph-name="afii10042" unicode="&#x428;" horiz-adv-x="922" d="M86 0 L836 0 L836 667 L762 667 L762 70 L498 70 L498 667 L424 667 L424 70 L160 70 L160 667 L86 667 L86 0 Z " />
<glyph glyph-name="afii10043" unicode="&#x429;" horiz-adv-x="926" d="M86 0 L842 0 L842 -140 L912 -140 L912 70 L836 70 L836 667 L762 667 L762 70 L498 70 L498 667 L424 667 L424 70 L160 70 L160 667 L86 667 L86 0 Z " />
<glyph glyph-name="afii10044" unicode="&#x42a;" horiz-adv-x="610" d="M174 0 L352 0 C483 0 568 75 568 202 C568 373 420 390 338 390 L248 390 L248 667 L14 667 L14 597 L174 597 L174 0 Z M248 320 L326 320 C367 320 407 320 438 303 C484 278 492 234 492 202 C492 154 475 124 457 107 C419 70 364 70 334 70 L248 70 L248 320 Z " />
<glyph glyph-name="afii10045" unicode="&#x42b;" horiz-adv-x="710" d="M86 0 L264 0 C395 0 480 75 480 202 C480 373 332 390 250 390 L160 390 L160 667 L86 667 L86 0 Z M160 320 L238 320 C279 320 319 320 350 303 C396 278 404 234 404 202 C404 154 387 124 369 107 C331 70 276 70 246 70 L160 70 L160 320 Z M550 667 L550 0 L624 0 L624 667 L550 667 Z " />
<glyph glyph-name="afii10046" unicode="&#x42c;" horiz-adv-x="522" d="M86 0 L264 0 C395 0 480 75 480 202 C480 373 332 390 250 390 L160 390 L160 667 L86 667 L86 0 Z M160 320 L238 320 C279 320 319 320 350 303 C396 278 404 234 404 202 C404 154 387 124 369 107 C331 70 276 70 246 70 L160 70 L160 320 Z " />
<glyph glyph-name="afii10047" unicode="&#x42d;" horiz-adv-x="645" d="M50 520 C85 555 120 572 137 580 C178 598 227 608 272 608 C409 608 506 506 516 380 L130 380 L130 310 L519 310 C520 159 401 58 271 58 C227 58 175 68 127 91 C96 106 72 122 50 145 L50 53 C132 0 216 -12 271 -12 C472 -12 595 136 595 331 C595 530 469 678 267 678 C205 678 127 665 50 612 L50 520 Z " />
<glyph glyph-name="afii10048" unicode="&#x42e;" horiz-adv-x="990" d="M160 389 L160 667 L86 667 L86 0 L160 0 L160 319 L259 319 C266 142 400 -12 599 -12 C795 -12 940 135 940 333 C940 535 795 678 599 678 C420 678 286 553 262 389 L160 389 Z M599 608 C746 608 864 490 864 333 C864 176 746 58 599 58 C452 58 335 176 335 333 C335 490 452 608 599 608 L599 608 Z " />
<glyph glyph-name="afii10049" unicode="&#x42f;" horiz-adv-x="510" d="M30 0 L120 0 L310 292 L350 292 L350 0 L424 0 L424 667 L268 667 C228 667 154 665 102 607 C75 577 56 534 56 474 C56 429 66 377 114 338 C150 309 196 299 226 296 L30 0 Z M350 597 L350 358 L272 358 C240 358 198 364 170 386 C149 403 132 431 132 476 C132 513 146 543 164 562 C196 595 243 597 278 597 L350 597 Z " />
<glyph glyph-name="afii10065" unicode="&#x430;" horiz-adv-x="526" d="M386 356 C367 381 324 425 244 425 C138 425 42 351 42 208 C42 62 139 -12 244 -12 C317 -12 362 27 386 58 L386 0 L458 0 L458 415 L386 415 L386 356 Z M252 361 C316 361 390 314 390 207 C390 125 340 52 252 52 C166 52 116 119 116 208 C116 309 181 361 252 361 L252 361 Z " />
<glyph glyph-name="afii10066" unicode="&#x431;" horiz-adv-x="524" d="M388 700 C379 677 361 660 305 647 C257 636 205 627 160 596 C45 517 42 328 42 254 C42 181 49 98 112 40 C139 15 185 -12 255 -12 C391 -12 482 82 482 206 C482 330 390 425 266 425 C192 425 142 395 115 349 L113 349 C116 425 148 500 200 539 C240 568 293 577 332 587 C376 598 444 620 468 700 L388 700 Z M262 361 C338 361 408 308 408 206 C408 105 337 52 262 52 C188 52 116 104 116 206 C116 307 186 361 262 361 L262 361 Z " />
<glyph glyph-name="afii10067" unicode="&#x432;" horiz-adv-x="430" d="M68 415 L68 0 L247 0 C280 0 320 9 345 28 C368 46 388 78 388 122 C388 154 378 180 355 202 C335 221 315 227 303 230 C328 246 348 272 348 313 C348 355 327 379 312 391 C283 414 247 415 225 415 L68 415 Z M140 246 L140 351 L204 351 C226 351 245 352 262 341 C273 333 282 321 282 301 C282 276 270 264 262 258 C246 247 223 246 216 246 L140 246 Z M140 64 L140 186 L232 186 C252 186 279 185 297 171 C311 160 318 143 318 124 C318 105 307 88 294 78 C276 65 249 64 229 64 L140 64 Z " />
<glyph glyph-name="afii10068" unicode="&#x433;" horiz-adv-x="318" d="M68 0 L140 0 L140 349 L314 349 L314 415 L68 415 L68 0 Z " />
<glyph glyph-name="afii10069" unicode="&#x434;" horiz-adv-x="460" d="M98 415 L98 230 C98 188 95 149 81 120 C67 91 40 67 4 66 L4 -110 L70 -110 L70 0 L386 0 L386 -110 L452 -110 L452 66 L390 66 L390 415 L98 415 Z M318 66 L120 66 C159 100 170 145 170 193 L170 349 L318 349 L318 66 Z " />
<glyph glyph-name="afii10070" unicode="&#x435;" horiz-adv-x="481" d="M376 139 C367 119 352 98 333 82 C309 62 282 52 248 52 C176 52 117 107 116 193 L439 193 C441 248 426 312 400 349 C375 385 324 425 243 425 C118 425 42 329 42 205 C42 51 147 -12 247 -12 C300 -12 347 5 385 39 C406 58 424 83 436 106 L376 139 Z M121 253 C132 315 182 361 243 361 C304 361 353 318 365 253 L121 253 Z " />
<glyph glyph-name="afii10072" unicode="&#x436;" horiz-adv-x="596" d="M262 415 L262 245 L106 415 L22 415 L202 223 L4 0 L94 0 L248 175 L262 161 L262 0 L334 0 L334 161 L348 175 L502 0 L592 0 L394 223 L574 415 L490 415 L334 245 L334 415 L262 415 Z " />
<glyph glyph-name="afii10073" unicode="&#x437;" horiz-adv-x="422" d="M122 309 C132 327 145 338 156 345 C177 358 197 361 213 361 C226 361 249 361 266 346 C277 337 284 321 284 303 C284 284 273 272 262 265 C256 261 241 254 208 254 L173 254 L173 188 L215 188 C234 188 262 188 283 174 C297 165 308 149 308 126 C308 96 293 77 279 68 C257 53 225 52 209 52 C187 52 164 56 141 73 C118 90 108 110 104 120 L42 94 C54 68 73 41 97 23 C132 -4 171 -12 208 -12 C253 -12 296 -2 326 20 C360 45 380 84 380 127 C380 159 368 185 351 203 C341 214 324 225 303 230 C324 243 350 268 350 317 C350 346 341 373 314 396 C283 422 249 425 216 425 C189 425 157 421 125 402 C105 390 86 370 72 350 L122 309 Z " />
<glyph glyph-name="afii10074" unicode="&#x438;" horiz-adv-x="492" d="M68 415 L68 -29 L352 277 L352 0 L424 0 L424 447 L140 141 L140 415 L68 415 Z " />
<glyph glyph-name="afii10075" unicode="&#x439;" horiz-adv-x="492" d="M68 415 L68 -29 L352 277 L352 0 L424 0 L424 447 L140 141 L140 415 L68 415 Z M104 594 C125 535 179 497 249 497 C319 497 373 535 394 594 L334 617 C324 583 296 557 249 557 C202 557 174 583 164 617 L104 594 Z " />
<glyph glyph-name="afii10076" unicode="&#x43a;" horiz-adv-x="422" d="M68 415 L68 0 L140 0 L140 161 L162 182 L324 0 L418 0 L216 230 L396 415 L308 415 L140 245 L140 415 L68 415 Z " />
<glyph glyph-name="afii10077" unicode="&#x43b;" horiz-adv-x="450" d="M382 415 L90 415 L90 162 C90 137 89 111 76 91 C68 78 51 64 24 64 C19 64 13 65 8 66 L8 0 C15 -1 23 -2 30 -2 C86 -2 117 26 130 42 C162 81 162 127 162 162 L162 349 L310 349 L310 0 L382 0 L382 415 Z " />
<glyph glyph-name="afii10078" unicode="&#x43c;" horiz-adv-x="580" d="M20 0 L94 0 L147 257 L290 -29 L431 257 L486 0 L560 0 L460 447 L292 109 L120 447 L20 0 Z " />
<glyph glyph-name="afii10079" unicode="&#x43d;" horiz-adv-x="476" d="M68 0 L140 0 L140 179 L336 179 L336 0 L408 0 L408 415 L336 415 L336 245 L140 245 L140 415 L68 415 L68 0 Z " />
<glyph glyph-name="afii10080" unicode="&#x43e;" horiz-adv-x="524" d="M262 -12 C388 -12 482 80 482 206 C482 332 389 425 262 425 C135 425 42 332 42 206 C42 80 136 -12 262 -12 L262 -12 Z M262 361 C338 361 408 308 408 206 C408 105 337 52 262 52 C188 52 116 104 116 206 C116 307 186 361 262 361 L262 361 Z " />
<glyph glyph-name="afii10081" unicode="&#x43f;" horiz-adv-x="470" d="M68 415 L68 0 L140 0 L140 349 L330 349 L330 0 L402 0 L402 415 L68 415 Z " />
<glyph glyph-name="afii10082" unicode="&#x440;" horiz-adv-x="526" d="M140 58 C171 18 218 -12 285 -12 C411 -12 484 91 484 205 C484 317 412 425 282 425 C252 425 189 418 140 357 L140 415 L68 415 L68 -230 L140 -230 L140 58 Z M275 52 C190 52 136 121 136 206 C136 306 207 361 274 361 C341 361 410 307 410 205 C410 122 359 52 275 52 L275 52 Z " />
<glyph glyph-name="afii10083" unicode="&#x441;" horiz-adv-x="438" d="M393 385 C373 399 330 425 264 425 C136 425 42 332 42 205 C42 80 135 -12 264 -12 C303 -12 351 -2 396 31 L396 117 C358 71 305 52 262 52 C188 52 116 105 116 206 C116 307 186 361 263 361 C300 361 355 347 393 299 L393 385 Z " />
<glyph glyph-name="afii10084" unicode="&#x442;" horiz-adv-x="348" d="M340 349 L340 415 L8 415 L8 349 L138 349 L138 0 L210 0 L210 349 L340 349 Z " />
<glyph glyph-name="afii10085" unicode="&#x443;" horiz-adv-x="460" d="M67 -230 L147 -230 L452 415 L372 415 L237 118 L90 415 L8 415 L199 39 L67 -230 Z " />
<glyph glyph-name="afii10086" unicode="&#x444;" horiz-adv-x="650" d="M289 -230 L361 -230 L361 -7 C400 -7 477 -1 536 47 C584 86 608 139 608 208 C608 285 576 336 537 368 C493 405 431 422 361 422 L361 667 L289 667 L289 422 C219 422 157 405 113 368 C74 336 42 285 42 208 C42 139 66 86 114 47 C173 -1 250 -7 289 -7 L289 -230 Z M289 57 C250 57 205 65 174 87 C144 108 116 144 116 208 C116 278 151 315 178 332 C206 350 250 358 289 358 L289 57 Z M361 358 C400 358 444 350 472 332 C499 315 534 278 534 208 C534 144 506 108 476 87 C445 65 400 57 361 57 L361 358 Z " />
<glyph glyph-name="afii10087" unicode="&#x445;" horiz-adv-x="454" d="M8 0 L96 0 L227 169 L358 0 L446 0 L274 221 L426 415 L338 415 L229 274 L122 415 L34 415 L185 222 L8 0 Z " />
<glyph glyph-name="afii10088" unicode="&#x446;" horiz-adv-x="474" d="M68 0 L400 0 L400 -110 L466 -110 L466 66 L398 66 L398 415 L326 415 L326 66 L140 66 L140 415 L68 415 L68 0 Z " />
<glyph glyph-name="afii10089" unicode="&#x447;" horiz-adv-x="430" d="M290 0 L362 0 L362 415 L290 415 L290 229 C259 223 227 220 200 220 C178 220 150 222 137 247 C130 259 128 281 128 296 L128 415 L56 415 L56 286 C56 246 63 209 91 184 C123 155 171 154 192 154 C221 154 264 159 290 163 L290 0 Z " />
<glyph glyph-name="afii10090" unicode="&#x448;" horiz-adv-x="672" d="M68 0 L604 0 L604 415 L532 415 L532 66 L372 66 L372 415 L300 415 L300 66 L140 66 L140 415 L68 415 L68 0 Z " />
<glyph glyph-name="afii10091" unicode="&#x449;" horiz-adv-x="680" d="M68 0 L606 0 L606 -110 L672 -110 L672 66 L604 66 L604 415 L532 415 L532 66 L372 66 L372 415 L300 415 L300 66 L140 66 L140 415 L68 415 L68 0 Z " />
<glyph glyph-name="afii10092" unicode="&#x44a;" horiz-adv-x="430" d="M98 0 L243 0 C284 0 329 1 365 35 C383 52 402 83 402 128 C402 170 386 199 370 215 C333 253 281 256 244 256 L170 256 L170 415 L8 415 L8 349 L98 349 L98 0 Z M170 64 L170 192 L238 192 C261 192 284 192 302 180 C323 167 328 146 328 128 C328 96 310 81 301 75 C284 65 261 64 237 64 L170 64 Z " />
<glyph glyph-name="afii10093" unicode="&#x44b;" horiz-adv-x="562" d="M68 0 L213 0 C254 0 299 1 335 35 C353 52 372 83 372 128 C372 170 356 199 340 215 C303 253 251 256 214 256 L140 256 L140 415 L68 415 L68 0 Z M140 64 L140 192 L208 192 C231 192 254 192 272 180 C293 167 298 146 298 128 C298 96 280 81 271 75 C254 65 231 64 207 64 L140 64 Z M422 0 L494 0 L494 415 L422 415 L422 0 Z " />
<glyph glyph-name="afii10094" unicode="&#x44c;" horiz-adv-x="400" d="M68 0 L213 0 C254 0 299 1 335 35 C353 52 372 83 372 128 C372 170 356 199 340 215 C303 253 251 256 214 256 L140 256 L140 415 L68 415 L68 0 Z M140 64 L140 192 L208 192 C231 192 254 192 272 180 C293 167 298 146 298 128 C298 96 280 81 271 75 C254 65 231 64 207 64 L140 64 Z " />
<glyph glyph-name="afii10095" unicode="&#x44d;" horiz-adv-x="423" d="M42 334 C81 352 124 361 158 361 C229 361 291 320 307 244 L88 244 L88 180 L307 180 C299 102 234 52 159 52 C125 52 80 61 42 81 L42 11 C59 4 98 -12 160 -12 C292 -12 381 80 381 205 C381 333 298 425 155 425 C122 425 84 421 42 404 L42 334 Z " />
<glyph glyph-name="afii10096" unicode="&#x44e;" horiz-adv-x="690" d="M140 245 L140 415 L68 415 L68 0 L140 0 L140 179 L211 179 C216 129 237 91 257 66 C288 27 342 -12 428 -12 C555 -12 648 80 648 206 C648 332 556 425 428 425 C362 425 307 401 271 363 C245 336 222 295 215 245 L140 245 Z M428 361 C504 361 574 307 574 206 C574 105 503 52 428 52 C355 52 285 104 285 206 C285 305 351 361 428 361 L428 361 Z " />
<glyph glyph-name="afii10097" unicode="&#x44f;" horiz-adv-x="408" d="M20 0 L106 0 L224 167 L268 167 L268 0 L340 0 L340 415 L195 415 C154 415 109 414 73 380 C50 359 36 326 36 287 C36 248 52 220 69 204 C99 175 144 171 149 171 L20 0 Z M268 227 L200 227 C183 227 157 226 136 239 C118 250 110 267 110 289 C110 316 124 332 136 340 C151 349 172 351 201 351 L268 351 L268 227 Z " />
<glyph glyph-name="afii10071" unicode="&#x451;" horiz-adv-x="481" d="M376 139 C367 119 352 98 333 82 C309 62 282 52 248 52 C176 52 117 107 116 193 L439 193 C441 248 426 312 400 349 C375 385 324 425 243 425 C118 425 42 329 42 205 C42 51 147 -12 247 -12 C300 -12 347 5 385 39 C406 58 424 83 436 106 L376 139 Z M121 253 C132 315 182 361 243 361 C304 361 353 318 365 253 L121 253 Z M110 550 C110 523 133 500 160 500 C187 500 210 523 210 550 C210 577 187 600 160 600 C133 600 110 577 110 550 L110 550 Z M284 550 C284 523 307 500 334 500 C361 500 384 523 384 550 C384 577 361 600 334 600 C307 600 284 577 284 550 L284 550 Z " />
<glyph glyph-name="afii10099" unicode="&#x452;" horiz-adv-x="470" d="M68 0 L140 0 L140 177 C140 207 142 256 170 289 C191 314 218 321 243 321 C275 321 297 309 311 291 C328 269 330 240 330 215 L330 -78 C330 -106 329 -125 321 -138 C314 -149 300 -160 275 -160 C259 -160 242 -156 228 -151 L228 -221 C244 -227 259 -230 279 -230 C314 -230 344 -222 370 -195 C398 -165 402 -129 402 -86 L402 217 C402 263 399 297 378 328 C353 365 308 385 259 385 C190 385 153 344 140 327 L140 514 L340 514 L340 574 L140 574 L140 729 L68 729 L68 574 L0 574 L0 514 L68 514 L68 0 Z " />
<glyph glyph-name="afii10100" unicode="&#x453;" horiz-adv-x="318" d="M68 0 L140 0 L140 349 L314 349 L314 415 L68 415 L68 0 Z M252 666 L147 521 L192 497 L326 632 L252 666 Z " />
<glyph glyph-name="afii10101" unicode="&#x454;" horiz-adv-x="438" d="M393 385 C373 399 330 425 264 425 C136 425 42 332 42 205 C42 80 135 -12 264 -12 C303 -12 351 -2 396 31 L396 117 C358 71 305 52 262 52 C191 52 127 102 118 180 L336 180 L336 244 L119 244 C133 319 198 361 263 361 C304 361 355 344 393 299 L393 385 Z " />
<glyph glyph-name="afii10102" unicode="&#x455;" horiz-adv-x="352" d="M298 350 C265 421 206 425 184 425 C114 425 63 382 63 309 C63 288 66 268 82 248 C101 225 133 209 183 187 C222 170 250 157 250 118 C250 87 229 52 182 52 C130 52 106 98 98 120 L36 94 C71 -10 164 -12 181 -12 C261 -12 324 37 324 124 C324 147 320 169 302 191 C286 211 258 230 198 255 C151 275 131 284 131 314 C131 346 155 361 181 361 C208 361 229 343 239 319 L298 350 Z " />
<glyph glyph-name="afii10103" unicode="&#x456;" horiz-adv-x="208" d="M68 415 L68 0 L140 0 L140 415 L68 415 Z M53 572 C53 544 76 521 104 521 C132 521 155 544 155 572 C155 600 132 623 104 623 C76 623 53 600 53 572 L53 572 Z " />
<glyph glyph-name="afii10104" unicode="&#x457;" horiz-adv-x="208" d="M68 415 L68 0 L140 0 L140 415 L68 415 Z M9 573 C9 546 28 523 51 523 C74 523 93 546 93 573 C93 600 74 623 51 623 C28 623 9 600 9 573 L9 573 Z M115 573 C115 546 134 523 157 523 C180 523 199 546 199 573 C199 600 180 623 157 623 C134 623 115 600 115 573 L115 573 Z " />
<glyph glyph-name="afii10105" unicode="&#x458;" horiz-adv-x="208" d="M68 415 L68 -230 L140 -230 L140 415 L68 415 Z M53 572 C53 544 76 521 104 521 C132 521 155 544 155 572 C155 600 132 623 104 623 C76 623 53 600 53 572 L53 572 Z " />
<glyph glyph-name="afii10106" unicode="&#x459;" horiz-adv-x="642" d="M382 415 L90 415 L90 162 C90 137 89 111 76 91 C68 78 51 64 24 64 C19 64 13 65 8 66 L8 0 C15 -1 23 -2 30 -2 C86 -2 117 26 130 42 C162 81 162 127 162 162 L162 349 L310 349 L310 0 L455 0 C496 0 541 1 577 35 C595 52 614 83 614 128 C614 170 598 199 582 215 C545 253 493 256 456 256 L382 256 L382 415 Z M382 64 L382 192 L450 192 C473 192 496 192 514 180 C535 167 540 146 540 128 C540 96 522 81 513 75 C496 65 473 64 449 64 L382 64 Z " />
<glyph glyph-name="afii10107" unicode="&#x45a;" horiz-adv-x="668" d="M68 0 L140 0 L140 192 L336 192 L336 0 L481 0 C522 0 567 1 603 35 C621 52 640 83 640 128 C640 170 624 199 608 215 C571 253 519 256 482 256 L408 256 L408 415 L336 415 L336 258 L140 258 L140 415 L68 415 L68 0 Z M408 64 L408 192 L476 192 C499 192 522 192 540 180 C561 167 566 146 566 128 C566 96 548 81 539 75 C522 65 499 64 475 64 L408 64 Z " />
<glyph glyph-name="afii10108" unicode="&#x45b;" horiz-adv-x="470" d="M68 0 L140 0 L140 177 C140 207 142 256 170 289 C191 314 218 321 243 321 C275 321 297 309 311 291 C328 269 330 240 330 215 L330 0 L402 0 L402 217 C402 263 399 297 378 328 C353 365 308 385 259 385 C190 385 153 344 140 327 L140 514 L340 514 L340 574 L140 574 L140 729 L68 729 L68 574 L0 574 L0 514 L68 514 L68 0 Z " />
<glyph glyph-name="afii10109" unicode="&#x45c;" horiz-adv-x="422" d="M68 415 L68 0 L140 0 L140 161 L162 182 L324 0 L418 0 L216 230 L396 415 L308 415 L140 245 L140 415 L68 415 Z M273 666 L168 521 L213 497 L347 632 L273 666 Z " />
<glyph glyph-name="afii10110" unicode="&#x45e;" horiz-adv-x="460" d="M67 -230 L147 -230 L452 415 L372 415 L237 118 L90 415 L8 415 L199 39 L67 -230 Z M95 594 C116 535 170 497 240 497 C310 497 364 535 385 594 L325 617 C315 583 287 557 240 557 C193 557 165 583 155 617 L95 594 Z " />
<glyph glyph-name="afii10193" unicode="&#x45f;" horiz-adv-x="466" d="M68 0 L200 0 L200 -120 L266 -120 L266 0 L398 0 L398 415 L326 415 L326 66 L140 66 L140 415 L68 415 L68 0 Z " />
<glyph glyph-name="afii10146" unicode="&#x462;" horiz-adv-x="610" d="M174 0 L352 0 C483 0 568 75 568 202 C568 373 420 390 338 390 L248 390 L248 517 L428 517 L428 587 L248 587 L248 694 L174 694 L174 587 L14 587 L14 517 L174 517 L174 0 Z M248 320 L326 320 C367 320 407 320 438 303 C484 278 492 234 492 202 C492 154 475 124 457 107 C419 70 364 70 334 70 L248 70 L248 320 Z " />
<glyph glyph-name="afii10194" unicode="&#x463;" horiz-adv-x="430" d="M8 415 L8 349 L98 349 L98 0 L243 0 C284 0 329 1 365 35 C383 52 402 83 402 128 C402 170 386 199 370 215 C333 253 281 256 244 256 L170 256 L170 349 L290 349 L290 415 L170 415 L170 667 L98 667 L98 415 L8 415 Z M170 64 L170 192 L238 192 C261 192 284 192 302 180 C323 167 328 146 328 128 C328 96 310 81 301 75 C284 65 261 64 237 64 L170 64 Z " />
<glyph glyph-name="afii10147" unicode="&#x472;" horiz-adv-x="792" d="M396 -12 C588 -12 742 135 742 333 C742 532 588 678 396 678 C204 678 50 532 50 333 C50 135 204 -12 396 -12 L396 -12 Z M129 380 C154 528 280 608 396 608 C512 608 638 528 663 380 L129 380 Z M666 310 C652 157 529 58 396 58 C263 58 140 157 126 310 L666 310 Z " />
<glyph glyph-name="afii10195" unicode="&#x473;" horiz-adv-x="524" d="M262 -12 C388 -12 482 80 482 206 C482 332 389 425 262 425 C135 425 42 332 42 206 C42 80 136 -12 262 -12 L262 -12 Z M120 244 C134 321 198 361 262 361 C326 361 390 321 404 244 L120 244 Z M406 180 C398 102 334 52 262 52 C192 52 125 101 118 180 L406 180 Z " />
<glyph glyph-name="afii10148" unicode="&#x474;" horiz-adv-x="556" d="M8 667 L278 -40 L548 667 L466 667 L278 158 L90 667 L8 667 Z " />
<glyph glyph-name="afii10196" unicode="&#x475;" horiz-adv-x="424" d="M8 415 L212 -27 L416 415 L336 415 L212 135 L88 415 L8 415 Z " />
<glyph glyph-name="afii10050" unicode="&#x490;" horiz-adv-x="404" d="M86 0 L160 0 L160 597 L390 597 L390 807 L320 807 L320 667 L86 667 L86 0 Z " />
<glyph glyph-name="afii10098" unicode="&#x491;" horiz-adv-x="328" d="M68 0 L140 0 L140 349 L314 349 L314 525 L248 525 L248 415 L68 415 L68 0 Z " />
<glyph glyph-name="uni0492" unicode="&#x492;" horiz-adv-x="404" d="M86 0 L160 0 L160 334 L296 334 L296 400 L160 400 L160 597 L390 597 L390 667 L86 667 L86 400 L0 400 L0 334 L86 334 L86 0 Z " />
<glyph glyph-name="uni0493" unicode="&#x493;" horiz-adv-x="318" d="M68 0 L140 0 L140 188 L240 188 L240 248 L140 248 L140 349 L314 349 L314 415 L68 415 L68 248 L0 248 L0 188 L68 188 L68 0 Z " />
<glyph glyph-name="uni0494" unicode="&#x494;" horiz-adv-x="558" d="M402 597 L402 667 L86 667 L86 0 L160 0 L160 315 C200 329 250 338 290 338 C348 338 390 318 412 292 C430 270 440 236 440 195 C440 156 432 118 400 91 C373 68 341 64 307 64 C286 64 267 65 244 70 L244 0 C264 -3 291 -6 312 -6 C356 -6 410 4 446 31 C479 55 516 106 516 194 C516 249 503 303 472 341 C439 381 382 408 297 408 C255 408 206 400 160 385 L160 597 L402 597 Z " />
<glyph glyph-name="uni0495" unicode="&#x495;" horiz-adv-x="430" d="M68 0 L140 0 L140 170 L170 170 C222 170 254 157 273 140 C292 124 312 94 312 41 C312 -7 300 -51 259 -90 C226 -122 192 -134 163 -138 L163 -208 C232 -201 280 -169 309 -142 C365 -90 388 -23 388 40 C388 98 368 147 337 179 C284 232 206 236 170 236 L140 236 L140 349 L314 349 L314 415 L68 415 L68 0 Z " />
<glyph glyph-name="uni0496" unicode="&#x496;" horiz-adv-x="810" d="M368 667 L368 381 L114 667 L22 667 L302 356 L14 0 L108 0 L352 305 L368 287 L368 0 L442 0 L442 287 L458 305 L702 0 L726 0 L726 -140 L796 -140 L796 70 L739 70 L508 356 L788 667 L696 667 L442 381 L442 667 L368 667 Z " />
<glyph glyph-name="uni0497" unicode="&#x497;" horiz-adv-x="596" d="M262 415 L262 245 L106 415 L22 415 L202 223 L4 0 L94 0 L248 175 L262 161 L262 0 L334 0 L334 161 L348 175 L502 0 L526 0 L526 -110 L592 -110 L592 66 L534 66 L394 223 L574 415 L490 415 L334 245 L334 415 L262 415 Z " />
<glyph glyph-name="uni0498" unicode="&#x498;" horiz-adv-x="576" d="M157 536 C174 562 193 576 203 583 C232 603 261 608 291 608 C319 608 355 603 381 577 C394 564 408 541 408 507 C408 466 390 439 373 425 C340 396 292 394 272 394 L212 394 L212 324 L272 324 C318 324 375 321 414 285 C442 259 450 226 450 197 C450 146 429 115 412 98 C390 77 352 58 297 58 C247 58 204 73 169 107 C158 117 136 141 122 180 L50 148 C69 102 97 69 123 47 C167 9 212 -6 258 -10 L258 -160 L328 -160 L328 -10 C396 -5 443 27 470 55 C502 89 526 139 526 198 C526 253 507 292 479 320 C469 330 440 356 392 367 C422 380 443 401 457 420 C475 445 484 475 484 509 C484 563 462 602 436 627 C387 674 324 678 287 678 C252 678 215 673 178 653 C165 646 129 624 100 581 L157 536 Z " />
<glyph glyph-name="uni0499" unicode="&#x499;" horiz-adv-x="422" d="M122 309 C131 325 142 335 156 345 C175 358 186 361 210 361 C225 361 250 359 266 346 C276 337 284 320 284 304 C284 290 275 274 262 265 C246 255 218 254 208 254 L173 254 L173 188 L215 188 C239 188 263 187 283 174 C301 162 308 146 308 126 C308 95 293 77 277 67 C259 56 231 52 209 52 C183 52 161 58 141 73 C125 85 112 103 104 120 L42 94 C54 70 74 41 97 23 C115 9 143 -7 181 -10 L181 -120 L247 -120 L247 -10 C281 -8 312 3 342 34 C366 59 380 88 380 126 C380 166 364 190 351 203 C340 214 323 225 303 230 C318 238 329 249 336 261 C349 282 350 306 350 315 C350 346 340 374 314 396 C284 421 250 425 220 425 C190 425 157 422 125 402 C105 390 86 370 72 350 L122 309 Z " />
<glyph glyph-name="uni049A" unicode="&#x49a;" horiz-adv-x="568" d="M86 667 L86 0 L160 0 L160 287 L179 306 L452 0 L484 0 L484 -140 L554 -140 L554 70 L491 70 L232 356 L544 667 L444 667 L160 381 L160 667 L86 667 Z " />
<glyph glyph-name="uni049B" unicode="&#x49b;" horiz-adv-x="422" d="M68 415 L68 0 L140 0 L140 161 L162 182 L324 0 L352 0 L352 -110 L418 -110 L418 66 L360 66 L216 230 L396 415 L308 415 L140 245 L140 415 L68 415 Z " />
<glyph glyph-name="uni049C" unicode="&#x49c;" horiz-adv-x="644" d="M86 667 L86 0 L160 0 L160 310 L240 310 L240 160 L306 160 L306 310 L542 0 L630 0 L366 352 L621 667 L539 667 L306 376 L306 516 L240 516 L240 376 L160 376 L160 667 L86 667 Z " />
<glyph glyph-name="uni049D" unicode="&#x49d;" horiz-adv-x="450" d="M68 415 L68 0 L140 0 L140 185 L190 185 L190 75 L250 75 L250 185 L366 0 L446 0 L306 216 L437 415 L359 415 L250 245 L250 345 L190 345 L190 245 L140 245 L140 415 L68 415 Z " />
<glyph glyph-name="uni04A0" unicode="&#x4a0;" horiz-adv-x="656" d="M174 0 L248 0 L248 287 L267 306 L540 0 L642 0 L320 356 L632 667 L532 667 L248 381 L248 667 L14 667 L14 597 L174 597 L174 0 Z " />
<glyph glyph-name="uni04A1" unicode="&#x4a1;" horiz-adv-x="452" d="M98 0 L170 0 L170 161 L192 182 L354 0 L448 0 L246 230 L426 415 L338 415 L170 245 L170 415 L8 415 L8 349 L98 349 L98 0 Z " />
<glyph glyph-name="uni04A2" unicode="&#x4a2;" horiz-adv-x="666" d="M86 0 L160 0 L160 326 L502 326 L502 0 L582 0 L582 -140 L652 -140 L652 70 L576 70 L576 667 L502 667 L502 396 L160 396 L160 667 L86 667 L86 0 Z " />
<glyph glyph-name="uni04A3" unicode="&#x4a3;" horiz-adv-x="484" d="M68 0 L140 0 L140 179 L336 179 L336 0 L410 0 L410 -110 L476 -110 L476 66 L408 66 L408 415 L336 415 L336 245 L140 245 L140 415 L68 415 L68 0 Z " />
<glyph glyph-name="uni04A4" unicode="&#x4a4;" horiz-adv-x="820" d="M86 0 L160 0 L160 326 L502 326 L502 0 L576 0 L576 597 L806 597 L806 667 L502 667 L502 396 L160 396 L160 667 L86 667 L86 0 Z " />
<glyph glyph-name="uni04A5" unicode="&#x4a5;" horiz-adv-x="586" d="M68 0 L140 0 L140 179 L336 179 L336 0 L408 0 L408 349 L582 349 L582 415 L336 415 L336 245 L140 245 L140 415 L68 415 L68 0 Z " />
<glyph glyph-name="uni04AA" unicode="&#x4aa;" horiz-adv-x="646" d="M596 612 C562 640 500 678 399 678 C287 678 201 635 144 575 C93 521 50 439 50 331 C50 232 83 153 146 89 C219 15 299 -6 363 -10 L363 -160 L433 -160 L433 -10 C517 2 567 31 596 53 L596 145 C579 129 551 104 509 84 C469 65 432 58 395 58 C325 58 254 85 202 137 C161 178 126 239 126 330 C126 419 162 487 204 530 C251 577 321 608 394 608 C432 608 475 598 509 582 C543 566 575 541 596 520 L596 612 Z " />
<glyph glyph-name="uni04AB" unicode="&#x4ab;" horiz-adv-x="438" d="M393 385 C346 418 296 425 267 425 C204 425 142 400 103 361 C74 332 42 282 42 204 C42 146 58 94 101 51 C128 24 172 -5 236 -10 L236 -120 L302 -120 L302 -9 C352 -4 382 19 396 31 L396 117 C362 76 313 52 265 52 C223 52 181 68 152 101 C125 131 116 166 116 206 C116 239 122 283 157 318 C186 347 228 361 263 361 C300 361 355 346 393 299 L393 385 Z " />
<glyph glyph-name="uni04AE" unicode="&#x4ae;" horiz-adv-x="530" d="M227 0 L301 0 L301 287 L522 667 L436 667 L264 369 L94 667 L8 667 L227 287 L227 0 Z " />
<glyph glyph-name="uni04AF" unicode="&#x4af;" horiz-adv-x="424" d="M8 415 L176 51 L176 -230 L248 -230 L248 51 L416 415 L336 415 L212 135 L88 415 L8 415 Z " />
<glyph glyph-name="uni04B0" unicode="&#x4b0;" horiz-adv-x="530" d="M227 0 L301 0 L301 221 L491 221 L491 287 L301 287 L522 667 L436 667 L264 369 L94 667 L8 667 L227 287 L37 287 L37 221 L227 221 L227 0 Z " />
<glyph glyph-name="uni04B1" unicode="&#x4b1;" horiz-adv-x="424" d="M8 415 L176 51 L176 0 L56 0 L56 -66 L176 -66 L176 -230 L248 -230 L248 -66 L368 -66 L368 0 L248 0 L248 51 L416 415 L336 415 L212 135 L88 415 L8 415 Z " />
<glyph glyph-name="uni04B2" unicode="&#x4b2;" horiz-adv-x="520" d="M14 0 L98 0 L253 274 L406 0 L436 0 L436 -140 L506 -140 L506 70 L451 70 L297 345 L480 667 L396 667 L254 416 L116 667 L32 667 L211 345 L14 0 Z " />
<glyph glyph-name="uni04B3" unicode="&#x4b3;" horiz-adv-x="454" d="M8 0 L96 0 L227 169 L358 0 L380 0 L380 -110 L446 -110 L446 66 L395 66 L274 221 L426 415 L338 415 L229 274 L122 415 L34 415 L185 222 L8 0 Z " />
<glyph glyph-name="uni04B6" unicode="&#x4b6;" horiz-adv-x="594" d="M430 0 L510 0 L510 -140 L580 -140 L580 70 L504 70 L504 667 L430 667 L430 356 C398 353 353 349 296 349 C244 349 204 352 180 370 C140 399 140 454 140 480 L140 667 L66 667 L66 470 C66 425 71 358 127 315 C159 290 209 279 292 279 C327 279 390 283 430 286 L430 0 Z " />
<glyph glyph-name="uni04B7" unicode="&#x4b7;" horiz-adv-x="438" d="M290 0 L364 0 L364 -110 L430 -110 L430 66 L362 66 L362 415 L290 415 L290 229 C259 223 227 220 200 220 C178 220 150 222 137 247 C130 259 128 281 128 296 L128 415 L56 415 L56 286 C56 246 63 209 91 184 C123 155 171 154 192 154 C221 154 264 159 290 163 L290 0 Z " />
<glyph glyph-name="uni04B8" unicode="&#x4b8;" horiz-adv-x="620" d="M460 0 L534 0 L534 667 L460 667 L460 356 C434 354 407 352 344 350 L344 496 L278 496 L278 349 C256 348 205 351 180 370 C140 399 140 455 140 480 L140 667 L66 667 L66 470 C66 426 71 357 127 315 C174 279 259 279 278 279 L278 140 L344 140 L344 280 C408 283 426 284 460 286 L460 0 Z " />
<glyph glyph-name="uni04B9" unicode="&#x4b9;" horiz-adv-x="460" d="M320 0 L392 0 L392 415 L320 415 L320 229 C300 225 279 222 256 222 L256 325 L196 325 L196 221 C168 220 146 232 137 247 C130 258 128 282 128 296 L128 415 L56 415 L56 286 C56 246 63 208 91 184 C117 161 165 152 196 154 L196 55 L256 55 L256 157 C279 157 300 159 320 163 L320 0 Z " />
<glyph glyph-name="uni04BA" unicode="&#x4ba;" horiz-adv-x="590" d="M160 667 L86 667 L86 0 L160 0 L160 331 C192 334 237 338 294 338 C346 338 386 335 410 317 C450 288 450 233 450 207 L450 0 L524 0 L524 217 C524 262 519 329 463 372 C431 397 381 408 298 408 C263 408 200 404 160 401 L160 667 Z " />
<glyph glyph-name="uni04BB" unicode="&#x4bb;" horiz-adv-x="470" d="M68 0 L140 0 L140 217 C140 247 142 296 170 329 C191 354 218 361 243 361 C275 361 297 349 311 331 C328 309 330 280 330 255 L330 0 L402 0 L402 257 C402 303 399 337 378 368 C353 405 308 425 259 425 C190 425 153 384 140 367 L140 729 L68 729 L68 0 Z " />
<glyph glyph-name="uni04C0" unicode="&#x4c0;" horiz-adv-x="246" d="M86 667 L86 0 L160 0 L160 667 L86 667 Z " />
<glyph glyph-name="uni04C1" unicode="&#x4c1;" horiz-adv-x="810" d="M368 667 L368 381 L114 667 L22 667 L302 356 L14 0 L108 0 L352 305 L368 287 L368 0 L442 0 L442 287 L458 305 L702 0 L796 0 L508 356 L788 667 L696 667 L442 381 L442 667 L368 667 Z M250 818 C256 801 291 721 405 721 C519 721 554 801 560 818 L490 841 C474 786 413 785 405 785 C397 785 336 786 320 841 L250 818 Z " />
<glyph glyph-name="uni04C2" unicode="&#x4c2;" horiz-adv-x="596" d="M262 415 L262 245 L106 415 L22 415 L202 223 L4 0 L94 0 L248 175 L262 161 L262 0 L334 0 L334 161 L348 175 L502 0 L592 0 L394 223 L574 415 L490 415 L334 245 L334 415 L262 415 Z M153 594 C174 535 228 497 298 497 C368 497 422 535 443 594 L383 617 C373 583 345 557 298 557 C251 557 223 583 213 617 L153 594 Z " />
<glyph glyph-name="uni04C3" unicode="&#x4c3;" horiz-adv-x="584" d="M86 667 L86 0 L160 0 L160 317 C192 324 240 330 274 330 C320 330 366 318 397 294 C461 244 467 143 467 101 C467 29 447 -27 416 -57 C386 -85 348 -90 320 -90 C288 -90 262 -84 234 -68 L213 -139 C246 -152 280 -160 324 -160 C367 -160 428 -153 475 -104 C531 -46 542 51 542 108 C542 173 529 272 466 334 C418 382 351 395 284 395 L544 667 L444 667 L160 361 L160 667 L86 667 Z " />
<glyph glyph-name="uni04C4" unicode="&#x4c4;" horiz-adv-x="414" d="M68 415 L68 0 L140 0 L140 170 L170 170 C199 170 243 166 273 140 C291 124 312 92 312 38 C312 -18 292 -58 259 -90 C226 -122 192 -134 163 -138 L163 -208 C232 -201 280 -169 309 -142 C363 -92 388 -24 388 44 C388 109 363 153 337 179 C306 210 257 227 214 230 L396 415 L308 415 L140 245 L140 415 L68 415 Z " />
<glyph glyph-name="uni04C7" unicode="&#x4c7;" horiz-adv-x="662" d="M86 0 L160 0 L160 326 L502 326 L502 -90 C502 -108 501 -131 486 -145 C476 -154 458 -158 442 -158 C430 -158 415 -156 400 -149 L400 -221 C418 -228 434 -230 453 -230 C497 -230 525 -216 542 -199 C574 -167 576 -118 576 -86 L576 667 L502 667 L502 396 L160 396 L160 667 L86 667 L86 0 Z " />
<glyph glyph-name="uni04C8" unicode="&#x4c8;" horiz-adv-x="476" d="M68 0 L140 0 L140 179 L336 179 L336 -78 C336 -106 335 -125 327 -138 C320 -149 306 -160 281 -160 C265 -160 248 -156 234 -151 L234 -221 C250 -227 265 -230 285 -230 C320 -230 350 -222 376 -195 C404 -165 408 -129 408 -86 L408 415 L336 415 L336 245 L140 245 L140 415 L68 415 L68 0 Z " />
<glyph glyph-name="uni04D0" unicode="&#x4d0;" horiz-adv-x="622" d="M532 0 L614 0 L315 699 L8 0 L90 0 L170 188 L454 188 L532 0 Z M199 258 L313 525 L425 258 L199 258 Z M160 818 C166 801 201 721 315 721 C429 721 464 801 470 818 L400 841 C384 786 323 785 315 785 C307 785 246 786 230 841 L160 818 Z " />
<glyph glyph-name="uni04D1" unicode="&#x4d1;" horiz-adv-x="526" d="M386 356 C367 381 324 425 244 425 C138 425 42 351 42 208 C42 62 139 -12 244 -12 C317 -12 362 27 386 58 L386 0 L458 0 L458 415 L386 415 L386 356 Z M252 361 C316 361 390 314 390 207 C390 125 340 52 252 52 C166 52 116 119 116 208 C116 309 181 361 252 361 L252 361 Z M109 594 C130 535 184 497 254 497 C324 497 378 535 399 594 L339 617 C329 583 301 557 254 557 C207 557 179 583 169 617 L109 594 Z " />
<glyph glyph-name="uni04D2" unicode="&#x4d2;" horiz-adv-x="622" d="M532 0 L614 0 L315 699 L8 0 L90 0 L170 188 L454 188 L532 0 Z M199 258 L313 525 L425 258 L199 258 Z M169 784 C169 756 192 733 220 733 C248 733 271 756 271 784 C271 812 248 835 220 835 C192 835 169 812 169 784 L169 784 Z M359 784 C359 756 382 733 410 733 C438 733 461 756 461 784 C461 812 438 835 410 835 C382 835 359 812 359 784 L359 784 Z " />
<glyph glyph-name="uni04D3" unicode="&#x4d3;" horiz-adv-x="526" d="M386 356 C367 381 324 425 244 425 C138 425 42 351 42 208 C42 62 139 -12 244 -12 C317 -12 362 27 386 58 L386 0 L458 0 L458 415 L386 415 L386 356 Z M252 361 C316 361 390 314 390 207 C390 125 340 52 252 52 C166 52 116 119 116 208 C116 309 181 361 252 361 L252 361 Z M103 550 C103 523 126 500 153 500 C180 500 203 523 203 550 C203 577 180 600 153 600 C126 600 103 577 103 550 L103 550 Z M277 550 C277 523 300 500 327 500 C354 500 377 523 377 550 C377 577 354 600 327 600 C300 600 277 577 277 550 L277 550 Z " />
<glyph glyph-name="uni04D4" unicode="&#x4d4;" horiz-adv-x="900" d="M538 0 L886 0 L857 70 L586 70 L478 329 L740 329 L711 399 L447 399 L364 597 L633 597 L604 667 L311 667 L14 0 L96 0 L175 187 L459 187 L538 0 Z M207 257 L320 518 L430 257 L207 257 Z " />
<glyph glyph-name="uni04D5" unicode="&#x4d5;" horiz-adv-x="774" d="M667 140 C643 92 597 52 539 52 C468 52 411 111 408 193 L732 193 L732 200 C732 336 655 425 534 425 C467 425 408 396 374 341 C338 417 263 425 217 425 C183 425 143 421 88 403 L88 335 C113 344 168 361 216 361 C259 361 294 349 315 313 C331 287 335 249 334 225 C302 248 265 260 215 260 C119 260 42 212 42 123 C42 32 124 -12 221 -12 C264 -12 335 -3 377 71 C430 -7 505 -12 540 -12 C644 -12 699 51 727 104 L667 140 Z M413 253 C424 322 475 361 535 361 C597 361 649 321 658 253 L413 253 Z M221 196 C303 196 330 155 330 126 C330 94 302 52 219 52 C136 52 114 93 114 123 C114 163 150 196 221 196 L221 196 Z " />
<glyph glyph-name="uni04D6" unicode="&#x4d6;" horiz-adv-x="482" d="M432 667 L86 667 L86 0 L432 0 L432 70 L160 70 L160 329 L424 329 L424 399 L160 399 L160 597 L432 597 L432 667 Z M105 818 C111 801 146 721 260 721 C374 721 409 801 415 818 L345 841 C329 786 268 785 260 785 C252 785 191 786 175 841 L105 818 Z " />
<glyph glyph-name="uni04D7" unicode="&#x4d7;" horiz-adv-x="481" d="M376 139 C367 119 352 98 333 82 C309 62 282 52 248 52 C176 52 117 107 116 193 L439 193 C441 248 426 312 400 349 C375 385 324 425 243 425 C118 425 42 329 42 205 C42 51 147 -12 247 -12 C300 -12 347 5 385 39 C406 58 424 83 436 106 L376 139 Z M121 253 C132 315 182 361 243 361 C304 361 353 318 365 253 L121 253 Z M96 594 C117 535 171 497 241 497 C311 497 365 535 386 594 L326 617 C316 583 288 557 241 557 C194 557 166 583 156 617 L96 594 Z " />
<glyph glyph-name="uni04D8" unicode="&#x4d8;" horiz-adv-x="756" d="M132 483 C151 510 173 534 195 552 C227 579 277 608 357 608 C519 608 630 484 630 335 L50 335 L50 319 C50 245 72 165 114 108 C160 45 244 -12 362 -12 C559 -12 706 139 706 333 C706 527 557 678 358 678 C294 678 219 662 154 612 C124 589 96 559 77 533 L132 483 Z M623 265 C596 145 486 58 357 58 C268 58 191 102 153 170 C141 191 128 223 126 265 L623 265 Z " />
<glyph glyph-name="afii10846" unicode="&#x4d9;" horiz-adv-x="482" d="M105 274 C114 294 129 315 148 331 C172 352 199 361 233 361 C306 361 365 306 366 220 L42 220 C38 167 51 105 80 64 C106 28 157 -12 238 -12 C364 -12 440 84 440 208 C440 362 334 425 234 425 C191 425 140 414 96 374 C75 355 57 330 45 307 L105 274 Z M360 160 C349 98 299 52 238 52 C174 52 126 96 116 160 L360 160 Z " />
<glyph glyph-name="uni04DA" unicode="&#x4da;" horiz-adv-x="756" d="M132 483 C151 510 173 534 195 552 C227 579 277 608 357 608 C519 608 630 484 630 335 L50 335 L50 319 C50 245 72 165 114 108 C160 45 244 -12 362 -12 C559 -12 706 139 706 333 C706 527 557 678 358 678 C294 678 219 662 154 612 C124 589 96 559 77 533 L132 483 Z M623 265 C596 145 486 58 357 58 C268 58 191 102 153 170 C141 191 128 223 126 265 L623 265 Z M214 784 C214 756 237 733 265 733 C293 733 316 756 316 784 C316 812 293 835 265 835 C237 835 214 812 214 784 L214 784 Z M404 784 C404 756 427 733 455 733 C483 733 506 756 506 784 C506 812 483 835 455 835 C427 835 404 812 404 784 L404 784 Z " />
<glyph glyph-name="uni04DB" unicode="&#x4db;" horiz-adv-x="482" d="M105 274 C114 294 129 315 148 331 C172 352 199 361 233 361 C306 361 365 306 366 220 L42 220 C38 167 51 105 80 64 C106 28 157 -12 238 -12 C364 -12 440 84 440 208 C440 362 334 425 234 425 C191 425 140 414 96 374 C75 355 57 330 45 307 L105 274 Z M360 160 C349 98 299 52 238 52 C174 52 126 96 116 160 L360 160 Z M105 550 C105 523 128 500 155 500 C182 500 205 523 205 550 C205 577 182 600 155 600 C128 600 105 577 105 550 L105 550 Z M279 550 C279 523 302 500 329 500 C356 500 379 523 379 550 C379 577 356 600 329 600 C302 600 279 577 279 550 L279 550 Z " />
<glyph glyph-name="uni04DC" unicode="&#x4dc;" horiz-adv-x="810" d="M368 667 L368 381 L114 667 L22 667 L302 356 L14 0 L108 0 L352 305 L368 287 L368 0 L442 0 L442 287 L458 305 L702 0 L796 0 L508 356 L788 667 L696 667 L442 381 L442 667 L368 667 Z M259 784 C259 756 282 733 310 733 C338 733 361 756 361 784 C361 812 338 835 310 835 C282 835 259 812 259 784 L259 784 Z M449 784 C449 756 472 733 500 733 C528 733 551 756 551 784 C551 812 528 835 500 835 C472 835 449 812 449 784 L449 784 Z " />
<glyph glyph-name="uni04DD" unicode="&#x4dd;" horiz-adv-x="596" d="M262 415 L262 245 L106 415 L22 415 L202 223 L4 0 L94 0 L248 175 L262 161 L262 0 L334 0 L334 161 L348 175 L502 0 L592 0 L394 223 L574 415 L490 415 L334 245 L334 415 L262 415 Z M161 550 C161 523 184 500 211 500 C238 500 261 523 261 550 C261 577 238 600 211 600 C184 600 161 577 161 550 L161 550 Z M335 550 C335 523 358 500 385 500 C412 500 435 523 435 550 C435 577 412 600 385 600 C358 600 335 577 335 550 L335 550 Z " />
<glyph glyph-name="uni04DE" unicode="&#x4de;" horiz-adv-x="576" d="M157 536 C197 594 243 608 291 608 C317 608 355 604 381 577 C397 561 408 536 408 507 C408 446 365 394 272 394 L212 394 L212 324 L272 324 C337 324 450 315 450 193 C450 157 439 116 396 86 C368 67 330 58 294 58 C214 58 149 105 122 180 L50 148 C84 70 159 -12 291 -12 C345 -12 401 3 443 32 C484 61 526 112 526 195 C526 276 481 347 392 367 C444 391 484 440 484 508 C484 563 461 605 432 631 C386 673 325 678 291 678 C226 678 154 661 100 581 L157 536 Z M144 784 C144 756 167 733 195 733 C223 733 246 756 246 784 C246 812 223 835 195 835 C167 835 144 812 144 784 L144 784 Z M334 784 C334 756 357 733 385 733 C413 733 436 756 436 784 C436 812 413 835 385 835 C357 835 334 812 334 784 L334 784 Z " />
<glyph glyph-name="uni04DF" unicode="&#x4df;" horiz-adv-x="422" d="M122 309 C132 327 145 338 156 345 C177 358 197 361 213 361 C226 361 249 361 266 346 C277 337 284 321 284 303 C284 284 273 272 262 265 C256 261 241 254 208 254 L173 254 L173 188 L215 188 C234 188 262 188 283 174 C297 165 308 149 308 126 C308 96 293 77 279 68 C257 53 225 52 209 52 C187 52 164 56 141 73 C118 90 108 110 104 120 L42 94 C54 68 73 41 97 23 C132 -4 171 -12 208 -12 C253 -12 296 -2 326 20 C360 45 380 84 380 127 C380 159 368 185 351 203 C341 214 324 225 303 230 C324 243 350 268 350 317 C350 346 341 373 314 396 C283 422 249 425 216 425 C189 425 157 421 125 402 C105 390 86 370 72 350 L122 309 Z M83 550 C83 523 106 500 133 500 C160 500 183 523 183 550 C183 577 160 600 133 600 C106 600 83 577 83 550 L83 550 Z M257 550 C257 523 280 500 307 500 C334 500 357 523 357 550 C357 577 334 600 307 600 C280 600 257 577 257 550 L257 550 Z " />
<glyph glyph-name="uni04E2" unicode="&#x4e2;" horiz-adv-x="710" d="M550 0 L624 0 L624 695 L160 156 L160 667 L86 667 L86 -30 L550 509 L550 0 Z M200 733 L520 733 L520 797 L200 797 L200 733 Z " />
<glyph glyph-name="uni04E3" unicode="&#x4e3;" horiz-adv-x="492" d="M68 415 L68 -29 L352 277 L352 0 L424 0 L424 447 L140 141 L140 415 L68 415 Z M95 513 L397 513 L397 573 L95 573 L95 513 Z " />
<glyph glyph-name="uni04E4" unicode="&#x4e4;" horiz-adv-x="710" d="M550 0 L624 0 L624 695 L160 156 L160 667 L86 667 L86 -30 L550 509 L550 0 Z M214 784 C214 756 237 733 265 733 C293 733 316 756 316 784 C316 812 293 835 265 835 C237 835 214 812 214 784 L214 784 Z M404 784 C404 756 427 733 455 733 C483 733 506 756 506 784 C506 812 483 835 455 835 C427 835 404 812 404 784 L404 784 Z " />
<glyph glyph-name="uni04E5" unicode="&#x4e5;" horiz-adv-x="492" d="M68 415 L68 -29 L352 277 L352 0 L424 0 L424 447 L140 141 L140 415 L68 415 Z M109 550 C109 523 132 500 159 500 C186 500 209 523 209 550 C209 577 186 600 159 600 C132 600 109 577 109 550 L109 550 Z M283 550 C283 523 306 500 333 500 C360 500 383 523 383 550 C383 577 360 600 333 600 C306 600 283 577 283 550 L283 550 Z " />
<glyph glyph-name="uni04E6" unicode="&#x4e6;" horiz-adv-x="794" d="M397 -12 C590 -12 744 135 744 333 C744 532 589 678 397 678 C205 678 50 532 50 333 C50 135 204 -12 397 -12 L397 -12 Z M397 608 C547 608 668 486 668 333 C668 180 547 58 397 58 C247 58 126 180 126 333 C126 486 247 608 397 608 L397 608 Z M251 784 C251 756 274 733 302 733 C330 733 353 756 353 784 C353 812 330 835 302 835 C274 835 251 812 251 784 L251 784 Z M441 784 C441 756 464 733 492 733 C520 733 543 756 543 784 C543 812 520 835 492 835 C464 835 441 812 441 784 L441 784 Z " />
<glyph glyph-name="uni04E7" unicode="&#x4e7;" horiz-adv-x="524" d="M262 -12 C388 -12 482 80 482 206 C482 332 389 425 262 425 C135 425 42 332 42 206 C42 80 136 -12 262 -12 L262 -12 Z M262 361 C338 361 408 308 408 206 C408 105 337 52 262 52 C188 52 116 104 116 206 C116 307 186 361 262 361 L262 361 Z M125 550 C125 523 148 500 175 500 C202 500 225 523 225 550 C225 577 202 600 175 600 C148 600 125 577 125 550 L125 550 Z M299 550 C299 523 322 500 349 500 C376 500 399 523 399 550 C399 577 376 600 349 600 C322 600 299 577 299 550 L299 550 Z " />
<glyph glyph-name="uni04E8" unicode="&#x4e8;" horiz-adv-x="792" d="M396 -12 C588 -12 742 135 742 333 C742 532 588 678 396 678 C204 678 50 532 50 333 C50 135 204 -12 396 -12 L396 -12 Z M129 380 C154 528 280 608 396 608 C512 608 638 528 663 380 L129 380 Z M666 310 C652 157 529 58 396 58 C263 58 140 157 126 310 L666 310 Z " />
<glyph glyph-name="uni04E9" unicode="&#x4e9;" horiz-adv-x="524" d="M262 -12 C388 -12 482 80 482 206 C482 332 389 425 262 425 C135 425 42 332 42 206 C42 80 136 -12 262 -12 L262 -12 Z M120 244 C134 321 198 361 262 361 C326 361 390 321 404 244 L120 244 Z M406 180 C398 102 334 52 262 52 C192 52 125 101 118 180 L406 180 Z " />
<glyph glyph-name="uni04EA" unicode="&#x4ea;" horiz-adv-x="792" d="M396 -12 C588 -12 742 135 742 333 C742 532 588 678 396 678 C204 678 50 532 50 333 C50 135 204 -12 396 -12 L396 -12 Z M129 380 C154 528 280 608 396 608 C512 608 638 528 663 380 L129 380 Z M666 310 C652 157 529 58 396 58 C263 58 140 157 126 310 L666 310 Z M251 784 C251 756 274 733 302 733 C330 733 353 756 353 784 C353 812 330 835 302 835 C274 835 251 812 251 784 L251 784 Z M441 784 C441 756 464 733 492 733 C520 733 543 756 543 784 C543 812 520 835 492 835 C464 835 441 812 441 784 L441 784 Z " />
<glyph glyph-name="uni04EB" unicode="&#x4eb;" horiz-adv-x="524" d="M262 -12 C388 -12 482 80 482 206 C482 332 389 425 262 425 C135 425 42 332 42 206 C42 80 136 -12 262 -12 L262 -12 Z M120 244 C134 321 198 361 262 361 C326 361 390 321 404 244 L120 244 Z M406 180 C398 102 334 52 262 52 C192 52 125 101 118 180 L406 180 Z M125 550 C125 523 148 500 175 500 C202 500 225 523 225 550 C225 577 202 600 175 600 C148 600 125 577 125 550 L125 550 Z M299 550 C299 523 322 500 349 500 C376 500 399 523 399 550 C399 577 376 600 349 600 C322 600 299 577 299 550 L299 550 Z " />
<glyph glyph-name="uni04EE" unicode="&#x4ee;" horiz-adv-x="568" d="M8 667 L264 186 L179 0 L259 0 L560 667 L480 667 L306 274 L98 667 L8 667 Z M135 733 L455 733 L455 797 L135 797 L135 733 Z " />
<glyph glyph-name="uni04EF" unicode="&#x4ef;" horiz-adv-x="460" d="M67 -230 L147 -230 L452 415 L372 415 L237 118 L90 415 L8 415 L199 39 L67 -230 Z M79 513 L381 513 L381 573 L79 573 L79 513 Z " />
<glyph glyph-name="uni04F0" unicode="&#x4f0;" horiz-adv-x="568" d="M8 667 L264 186 L179 0 L259 0 L560 667 L480 667 L306 274 L98 667 L8 667 Z M149 784 C149 756 172 733 200 733 C228 733 251 756 251 784 C251 812 228 835 200 835 C172 835 149 812 149 784 L149 784 Z M339 784 C339 756 362 733 390 733 C418 733 441 756 441 784 C441 812 418 835 390 835 C362 835 339 812 339 784 L339 784 Z " />
<glyph glyph-name="uni04F1" unicode="&#x4f1;" horiz-adv-x="460" d="M67 -230 L147 -230 L452 415 L372 415 L237 118 L90 415 L8 415 L199 39 L67 -230 Z M103 550 C103 523 126 500 153 500 C180 500 203 523 203 550 C203 577 180 600 153 600 C126 600 103 577 103 550 L103 550 Z M277 550 C277 523 300 500 327 500 C354 500 377 523 377 550 C377 577 354 600 327 600 C300 600 277 577 277 550 L277 550 Z " />
<glyph glyph-name="uni04F2" unicode="&#x4f2;" horiz-adv-x="568" d="M8 667 L264 186 L179 0 L259 0 L560 667 L480 667 L306 274 L98 667 L8 667 Z M288 882 L168 746 L211 720 L358 842 L288 882 Z M438 882 L318 746 L361 720 L508 842 L438 882 Z " />
<glyph glyph-name="uni04F3" unicode="&#x4f3;" horiz-adv-x="460" d="M67 -230 L147 -230 L452 415 L372 415 L237 118 L90 415 L8 415 L199 39 L67 -230 Z M230 666 L124 521 L165 498 L302 634 L230 666 Z M364 666 L258 521 L299 498 L434 634 L364 666 Z " />
<glyph glyph-name="uni04F4" unicode="&#x4f4;" horiz-adv-x="590" d="M430 0 L504 0 L504 667 L430 667 L430 356 C398 353 353 349 296 349 C244 349 204 352 180 370 C140 399 140 454 140 480 L140 667 L66 667 L66 470 C66 425 71 358 127 315 C159 290 209 279 292 279 C327 279 390 283 430 286 L430 0 Z M144 784 C144 756 167 733 195 733 C223 733 246 756 246 784 C246 812 223 835 195 835 C167 835 144 812 144 784 L144 784 Z M334 784 C334 756 357 733 385 733 C413 733 436 756 436 784 C436 812 413 835 385 835 C357 835 334 812 334 784 L334 784 Z " />
<glyph glyph-name="uni04F5" unicode="&#x4f5;" horiz-adv-x="430" d="M290 0 L362 0 L362 415 L290 415 L290 229 C259 223 227 220 200 220 C178 220 150 222 137 247 C130 259 128 281 128 296 L128 415 L56 415 L56 286 C56 246 63 209 91 184 C123 155 171 154 192 154 C221 154 264 159 290 163 L290 0 Z M73 550 C73 523 96 500 123 500 C150 500 173 523 173 550 C173 577 150 600 123 600 C96 600 73 577 73 550 L73 550 Z M247 550 C247 523 270 500 297 500 C324 500 347 523 347 550 C347 577 324 600 297 600 C270 600 247 577 247 550 L247 550 Z " />
<glyph glyph-name="uni04F8" unicode="&#x4f8;" horiz-adv-x="710" d="M86 0 L264 0 C395 0 480 75 480 202 C480 373 332 390 250 390 L160 390 L160 667 L86 667 L86 0 Z M160 320 L238 320 C279 320 319 320 350 303 C396 278 404 234 404 202 C404 154 387 124 369 107 C331 70 276 70 246 70 L160 70 L160 320 Z M550 667 L550 0 L624 0 L624 667 L550 667 Z M209 784 C209 756 232 733 260 733 C288 733 311 756 311 784 C311 812 288 835 260 835 C232 835 209 812 209 784 L209 784 Z M399 784 C399 756 422 733 450 733 C478 733 501 756 501 784 C501 812 478 835 450 835 C422 835 399 812 399 784 L399 784 Z " />
<glyph glyph-name="uni04F9" unicode="&#x4f9;" horiz-adv-x="562" d="M68 0 L213 0 C254 0 299 1 335 35 C353 52 372 83 372 128 C372 170 356 199 340 215 C303 253 251 256 214 256 L140 256 L140 415 L68 415 L68 0 Z M140 64 L140 192 L208 192 C231 192 254 192 272 180 C293 167 298 146 298 128 C298 96 280 81 271 75 C254 65 231 64 207 64 L140 64 Z M422 0 L494 0 L494 415 L422 415 L422 0 Z M144 550 C144 523 167 500 194 500 C221 500 244 523 244 550 C244 577 221 600 194 600 C167 600 144 577 144 550 L144 550 Z M318 550 C318 523 341 500 368 500 C395 500 418 523 418 550 C418 577 395 600 368 600 C341 600 318 577 318 550 L318 550 Z " />
<glyph glyph-name="uni1E9E" unicode="&#x1e9e;" horiz-adv-x="577" d="M86 0 L160 0 L160 466 C160 498 164 538 192 569 C216 595 245 608 289 608 C348 608 398 586 413 517 L271 389 L271 329 C302 327 352 319 387 298 C423 276 451 244 451 191 C451 148 425 114 389 92 C353 70 306 61 271 58 L271 -12 C321 -9 386 5 431 33 C483 66 527 118 527 196 C527 250 503 297 461 330 C431 353 392 369 347 376 L490 498 C491 548 462 613 412 646 C365 677 322 678 287 678 C246 678 192 668 145 625 C98 582 86 523 86 480 L86 0 Z " />
<glyph glyph-name="uni2010" unicode="&#x2010;" horiz-adv-x="320" d="M50 176 L270 176 L270 250 L50 250 L50 176 Z " />
<glyph glyph-name="uni2011" unicode="&#x2011;" horiz-adv-x="320" d="M50 176 L270 176 L270 250 L50 250 L50 176 Z " />
<glyph glyph-name="figuredash" unicode="&#x2012;" horiz-adv-x="580" d="M70 307 L510 307 L510 371 L70 371 L70 307 Z " />
<glyph glyph-name="endash" unicode="&#x2013;" horiz-adv-x="580" d="M70 181 L510 181 L510 245 L70 245 L70 181 Z " />
<glyph glyph-name="emdash" unicode="&#x2014;" horiz-adv-x="800" d="M70 181 L730 181 L730 245 L70 245 L70 181 Z " />
<glyph glyph-name="afii00208" unicode="&#x2015;" horiz-adv-x="800" d="M70 181 L730 181 L730 245 L70 245 L70 181 Z " />
<glyph glyph-name="quoteleft" unicode="&#x2018;" horiz-adv-x="264" d="M206 667 L159 686 L58 460 L123 436 L206 667 Z " />
<glyph glyph-name="quoteright" unicode="&#x2019;" horiz-adv-x="264" d="M58 460 L105 441 L206 667 L139 691 L58 460 Z " />
<glyph glyph-name="quotesinglbase" unicode="&#x201a;" horiz-adv-x="308" d="M58 -133 L105 -152 L206 74 L139 98 L58 -133 Z " />
<glyph glyph-name="quotedblleft" unicode="&#x201c;" horiz-adv-x="410" d="M206 667 L159 686 L58 460 L123 436 L206 667 Z M352 667 L305 686 L204 460 L271 436 L352 667 Z " />
<glyph glyph-name="quotedblright" unicode="&#x201d;" horiz-adv-x="410" d="M58 460 L105 441 L206 667 L139 691 L58 460 Z M204 460 L251 441 L352 667 L287 691 L204 460 Z " />
<glyph glyph-name="quotedblbase" unicode="&#x201e;" horiz-adv-x="454" d="M58 -133 L105 -152 L206 74 L139 98 L58 -133 Z M204 -133 L251 -152 L352 74 L287 98 L204 -133 Z " />
<glyph glyph-name="dagger" unicode="&#x2020;" horiz-adv-x="568" d="M248 503 L100 503 L100 435 L248 435 L248 -170 L320 -170 L320 435 L468 435 L468 503 L320 503 L320 729 L248 729 L248 503 Z " />
<glyph glyph-name="daggerdbl" unicode="&#x2021;" horiz-adv-x="568" d="M248 503 L100 503 L100 435 L248 435 L248 158 L100 158 L100 90 L248 90 L248 -176 L320 -176 L320 90 L468 90 L468 158 L320 158 L320 435 L468 435 L468 503 L320 503 L320 729 L248 729 L248 503 Z " />
<glyph glyph-name="bullet" unicode="&#x2022;" horiz-adv-x="1000" d="M360 340 C360 263 423 200 500 200 C577 200 640 263 640 340 C640 417 577 480 500 480 C423 480 360 417 360 340 L360 340 Z " />
<glyph glyph-name="ellipsis" unicode="&#x2026;" horiz-adv-x="746" d="M75 40 C75 13 98 -10 125 -10 C152 -10 175 13 175 40 C175 67 152 90 125 90 C98 90 75 67 75 40 L75 40 Z M323 40 C323 13 346 -10 373 -10 C400 -10 423 13 423 40 C423 67 400 90 373 90 C346 90 323 67 323 40 L323 40 Z M571 40 C571 13 594 -10 621 -10 C648 -10 671 13 671 40 C671 67 648 90 621 90 C594 90 571 67 571 40 L571 40 Z " />
<glyph glyph-name="perthousand" unicode="&#x2030;" horiz-adv-x="1060" d="M178 673 C97 673 33 609 33 528 C33 447 97 383 178 383 C259 383 323 447 323 528 C323 609 259 673 178 673 L178 673 Z M178 438 C131 438 93 478 93 528 C93 578 131 618 178 618 C227 618 263 577 263 528 C263 479 227 438 178 438 L178 438 Z M141 10 L180 -13 L569 658 L530 680 L141 10 Z M532 283 C451 283 387 219 387 138 C387 57 451 -7 532 -7 C613 -7 677 57 677 138 C677 219 613 283 532 283 L532 283 Z M532 48 C485 48 447 88 447 138 C447 188 485 228 532 228 C581 228 617 187 617 138 C617 89 581 48 532 48 L532 48 Z M882 283 C801 283 737 219 737 138 C737 57 801 -7 882 -7 C963 -7 1027 57 1027 138 C1027 219 963 283 882 283 L882 283 Z M882 48 C835 48 797 88 797 138 C797 188 835 228 882 228 C931 228 967 187 967 138 C967 89 931 48 882 48 L882 48 Z " />
<glyph glyph-name="guilsinglleft" unicode="&#x2039;" horiz-adv-x="282" d="M112 212 L232 363 L186 400 L36 212 L186 30 L232 66 L112 212 Z " />
<glyph glyph-name="guilsinglright" unicode="&#x203a;" horiz-adv-x="282" d="M170 218 L50 67 L96 30 L246 218 L96 400 L50 364 L170 218 Z " />
<glyph glyph-name="fraction" unicode="&#x2044;" horiz-adv-x="126" d="M-150 10 L-112 -13 L276 658 L238 680 L-150 10 Z " />
<glyph glyph-name="uni2080" unicode="&#x2080;" horiz-adv-x="350" d="M175 -7 C208 -7 250 10 281 53 C318 103 322 165 322 200 C322 276 299 322 281 347 C250 391 208 406 175 406 C142 406 100 391 69 347 C51 322 28 276 28 200 C28 165 32 103 69 53 C100 10 142 -7 175 -7 L175 -7 Z M175 360 C195 360 222 350 242 319 C264 286 270 237 270 200 C270 161 264 116 242 82 C222 51 195 39 175 39 C155 39 128 51 108 82 C84 120 80 168 80 200 C80 237 86 285 108 319 C128 350 155 360 175 360 L175 360 Z " />
<glyph glyph-name="uni2081" unicode="&#x2081;" horiz-adv-x="350" d="M166 0 L218 0 L218 400 L112 400 L88 354 L166 354 L166 0 Z " />
<glyph glyph-name="uni2082" unicode="&#x2082;" horiz-adv-x="350" d="M297 0 L297 46 L134 46 L211 135 C226 152 248 176 266 202 C289 235 298 260 298 287 C298 358 244 406 169 406 C144 406 104 401 73 365 C55 343 45 315 43 278 L93 278 C93 294 97 312 105 326 C120 351 146 360 170 360 C218 360 246 327 246 288 C246 260 233 240 224 227 C210 206 200 195 178 169 L32 0 L297 0 Z " />
<glyph glyph-name="uni2083" unicode="&#x2083;" horiz-adv-x="350" d="M102 296 C103 309 108 328 117 339 C125 349 140 360 168 360 C214 360 232 329 232 298 C232 270 216 250 199 241 C187 235 168 232 153 233 L153 187 C168 188 186 186 199 180 C220 171 238 149 238 115 C238 72 207 39 161 39 C132 39 113 54 102 69 C95 79 89 93 88 109 L38 109 C39 95 42 77 48 62 C62 28 97 -7 163 -7 C243 -7 290 47 290 113 C290 151 276 193 232 210 C279 232 284 282 284 299 C284 341 259 406 168 406 C143 406 98 402 71 360 C59 341 53 316 52 296 L102 296 Z " />
<glyph glyph-name="uni2084" unicode="&#x2084;" horiz-adv-x="350" d="M269 422 L14 65 L219 65 L219 0 L269 0 L269 65 L318 65 L318 111 L269 111 L269 422 Z M104 111 L219 275 L219 111 L104 111 Z " />
<glyph glyph-name="uni2085" unicode="&#x2085;" horiz-adv-x="350" d="M297 400 L130 400 L72 201 C107 227 134 229 149 229 C206 229 248 190 248 136 C248 83 204 39 149 39 C127 39 107 46 87 63 C75 73 67 84 61 95 L22 65 C31 48 42 36 57 24 C85 2 113 -7 147 -7 C224 -7 300 43 300 139 C300 214 252 275 166 275 C158 275 149 274 141 273 L163 354 L297 354 L297 400 Z " />
<glyph glyph-name="uni2086" unicode="&#x2086;" horiz-adv-x="350" d="M202 413 L66 221 C46 192 33 163 33 129 C33 49 95 -7 176 -7 C259 -7 317 51 317 130 C317 207 264 264 183 264 C172 264 163 263 152 259 L244 382 L202 413 Z M175 39 C112 39 85 88 85 129 C85 179 123 218 174 218 C225 218 265 180 265 129 C265 88 236 39 175 39 L175 39 Z " />
<glyph glyph-name="uni2087" unicode="&#x2087;" horiz-adv-x="350" d="M32 18 L73 -10 L340 400 L40 400 L40 354 L254 354 L32 18 Z " />
<glyph glyph-name="uni2088" unicode="&#x2088;" horiz-adv-x="350" d="M109 208 C67 190 48 151 48 110 C48 46 94 -7 175 -7 C256 -7 302 46 302 110 C302 151 283 190 241 208 C272 227 289 258 289 296 C289 354 249 406 175 406 C101 406 61 354 61 296 C61 258 78 227 109 208 L109 208 Z M175 229 C135 229 110 258 110 295 C110 337 139 360 175 360 C211 360 240 337 240 295 C240 258 215 229 175 229 L175 229 Z M175 185 C219 185 250 153 250 112 C250 69 219 39 175 39 C131 39 100 69 100 112 C100 153 131 185 175 185 L175 185 Z " />
<glyph glyph-name="uni2089" unicode="&#x2089;" horiz-adv-x="350" d="M148 -14 L284 178 C304 207 317 236 317 270 C317 350 255 406 174 406 C91 406 33 348 33 269 C33 192 86 135 167 135 C178 135 187 136 198 140 L106 17 L148 -14 Z M175 360 C238 360 265 311 265 270 C265 220 227 181 176 181 C125 181 85 219 85 270 C85 311 114 360 175 360 L175 360 Z " />
<glyph glyph-name="Euro" unicode="&#x20ac;" horiz-adv-x="568" d="M528 622 C455 673 388 678 349 678 C182 678 87 561 61 440 L18 440 L-8 374 L53 374 C49 348 49 322 52 296 L18 296 L-8 230 L59 230 C77 102 170 -12 342 -12 C422 -12 482 12 528 43 L528 135 C480 90 419 58 346 58 C234 58 158 131 139 230 L383 230 L409 296 L128 296 C125 321 125 347 129 374 L434 374 L460 440 L141 440 C156 496 206 608 344 608 C383 608 443 599 495 555 L528 622 Z " />
<glyph glyph-name="uni20B4" unicode="&#x20b4;" horiz-adv-x="568" d="M158 535 C173 554 191 571 215 586 C238 601 257 608 292 608 C314 608 342 605 363 585 C377 572 385 554 385 535 C385 501 362 470 328 440 L66 440 L66 384 L277 384 L188 296 L66 296 L66 240 L143 240 C112 202 104 163 104 135 C104 83 128 44 157 21 C193 -6 239 -12 275 -12 C339 -12 387 2 434 48 C455 68 478 99 493 140 L425 170 C415 146 397 116 376 96 C350 72 319 58 279 58 C242 58 219 70 205 83 C192 95 180 114 180 140 C180 172 193 210 225 240 L503 240 L503 296 L276 296 L365 384 L503 384 L503 440 L410 440 C438 469 459 510 459 553 C459 582 449 615 417 642 C380 674 338 678 305 678 C258 678 221 671 178 645 C151 629 123 605 99 574 L158 535 Z " />
<glyph glyph-name="&amp;#x20b6;" unicode="&#x20b6;" horiz-adv-x="568" d="M263 667 L142 667 L142 360 L66 360 L66 294 L142 294 L142 206 L66 206 L66 150 L142 150 L142 0 L216 0 L216 150 L380 150 L380 206 L216 206 L216 294 L281 294 C318 294 389 298 442 350 C470 377 492 418 492 477 C492 532 471 580 440 611 C389 662 321 667 263 667 L263 667 Z M216 597 L271 597 C304 597 356 594 390 559 C414 535 418 506 418 483 C418 435 398 409 389 399 C371 380 336 360 277 360 L216 360 L216 597 Z " />
<glyph glyph-name="&amp;#x20b7;" unicode="&#x20b7;" horiz-adv-x="568" d="M263 667 L142 667 L142 360 L66 360 L66 294 L142 294 L142 206 L66 206 L66 150 L142 150 L142 0 L216 0 L216 150 L380 150 L380 206 L216 206 L216 294 L281 294 C318 294 389 298 442 350 C470 377 492 418 492 477 C492 532 471 580 440 611 C389 662 321 667 263 667 L263 667 Z M216 597 L271 597 C304 597 356 594 390 559 C414 535 418 506 418 483 C418 435 398 409 389 399 C371 380 336 360 277 360 L216 360 L216 597 Z " />
<glyph glyph-name="&amp;#x20b9;" unicode="&#x20b9;" horiz-adv-x="568" d="M263 667 L142 667 L142 360 L66 360 L66 294 L142 294 L142 206 L66 206 L66 150 L142 150 L142 0 L216 0 L216 150 L380 150 L380 206 L216 206 L216 294 L281 294 C318 294 389 298 442 350 C470 377 492 418 492 477 C492 532 471 580 440 611 C389 662 321 667 263 667 L263 667 Z M216 597 L271 597 C304 597 356 594 390 559 C414 535 418 506 418 483 C418 435 398 409 389 399 C371 380 336 360 277 360 L216 360 L216 597 Z " />
<glyph glyph-name="&amp;#x20ba;" unicode="&#x20ba;" horiz-adv-x="568" d="M263 667 L142 667 L142 360 L66 360 L66 294 L142 294 L142 206 L66 206 L66 150 L142 150 L142 0 L216 0 L216 150 L380 150 L380 206 L216 206 L216 294 L281 294 C318 294 389 298 442 350 C470 377 492 418 492 477 C492 532 471 580 440 611 C389 662 321 667 263 667 L263 667 Z M216 597 L271 597 C304 597 356 594 390 559 C414 535 418 506 418 483 C418 435 398 409 389 399 C371 380 336 360 277 360 L216 360 L216 597 Z " />
<glyph glyph-name="&amp;#x20bb;" unicode="&#x20bb;" horiz-adv-x="568" d="M263 667 L142 667 L142 360 L66 360 L66 294 L142 294 L142 206 L66 206 L66 150 L142 150 L142 0 L216 0 L216 150 L380 150 L380 206 L216 206 L216 294 L281 294 C318 294 389 298 442 350 C470 377 492 418 492 477 C492 532 471 580 440 611 C389 662 321 667 263 667 L263 667 Z M216 597 L271 597 C304 597 356 594 390 559 C414 535 418 506 418 483 C418 435 398 409 389 399 C371 380 336 360 277 360 L216 360 L216 597 Z " />
<glyph glyph-name="&amp;#x20bc;" unicode="&#x20bc;" horiz-adv-x="568" d="M263 667 L142 667 L142 360 L66 360 L66 294 L142 294 L142 206 L66 206 L66 150 L142 150 L142 0 L216 0 L216 150 L380 150 L380 206 L216 206 L216 294 L281 294 C318 294 389 298 442 350 C470 377 492 418 492 477 C492 532 471 580 440 611 C389 662 321 667 263 667 L263 667 Z M216 597 L271 597 C304 597 356 594 390 559 C414 535 418 506 418 483 C418 435 398 409 389 399 C371 380 336 360 277 360 L216 360 L216 597 Z " />
<glyph glyph-name="&amp;#x20bd;" unicode="&#x20bd;" horiz-adv-x="568" d="M263 667 L142 667 L142 360 L66 360 L66 294 L142 294 L142 206 L66 206 L66 150 L142 150 L142 0 L216 0 L216 150 L380 150 L380 206 L216 206 L216 294 L281 294 C318 294 389 298 442 350 C470 377 492 418 492 477 C492 532 471 580 440 611 C389 662 321 667 263 667 L263 667 Z M216 597 L271 597 C304 597 356 594 390 559 C414 535 418 506 418 483 C418 435 398 409 389 399 C371 380 336 360 277 360 L216 360 L216 597 Z " />
<glyph glyph-name="&amp;#x20be;" unicode="&#x20be;" horiz-adv-x="568" d="M263 667 L142 667 L142 360 L66 360 L66 294 L142 294 L142 206 L66 206 L66 150 L142 150 L142 0 L216 0 L216 150 L380 150 L380 206 L216 206 L216 294 L281 294 C318 294 389 298 442 350 C470 377 492 418 492 477 C492 532 471 580 440 611 C389 662 321 667 263 667 L263 667 Z M216 597 L271 597 C304 597 356 594 390 559 C414 535 418 506 418 483 C418 435 398 409 389 399 C371 380 336 360 277 360 L216 360 L216 597 Z " />
<glyph glyph-name="&amp;#x20bf;" unicode="&#x20bf;" horiz-adv-x="568" d="M263 667 L142 667 L142 360 L66 360 L66 294 L142 294 L142 206 L66 206 L66 150 L142 150 L142 0 L216 0 L216 150 L380 150 L380 206 L216 206 L216 294 L281 294 C318 294 389 298 442 350 C470 377 492 418 492 477 C492 532 471 580 440 611 C389 662 321 667 263 667 L263 667 Z M216 597 L271 597 C304 597 356 594 390 559 C414 535 418 506 418 483 C418 435 398 409 389 399 C371 380 336 360 277 360 L216 360 L216 597 Z " />
<glyph glyph-name="&amp;#x20c0;" unicode="&#x20c0;" horiz-adv-x="568" d="M263 667 L142 667 L142 360 L66 360 L66 294 L142 294 L142 206 L66 206 L66 150 L142 150 L142 0 L216 0 L216 150 L380 150 L380 206 L216 206 L216 294 L281 294 C318 294 389 298 442 350 C470 377 492 418 492 477 C492 532 471 580 440 611 C389 662 321 667 263 667 L263 667 Z M216 597 L271 597 C304 597 356 594 390 559 C414 535 418 506 418 483 C418 435 398 409 389 399 C371 380 336 360 277 360 L216 360 L216 597 Z " />
<glyph glyph-name="&amp;#x20c1;" unicode="&#x20c1;" horiz-adv-x="568" d="M263 667 L142 667 L142 360 L66 360 L66 294 L142 294 L142 206 L66 206 L66 150 L142 150 L142 0 L216 0 L216 150 L380 150 L380 206 L216 206 L216 294 L281 294 C318 294 389 298 442 350 C470 377 492 418 492 477 C492 532 471 580 440 611 C389 662 321 667 263 667 L263 667 Z M216 597 L271 597 C304 597 356 594 390 559 C414 535 418 506 418 483 C418 435 398 409 389 399 C371 380 336 360 277 360 L216 360 L216 597 Z " />
<glyph glyph-name="&amp;#x20c2;" unicode="&#x20c2;" horiz-adv-x="568" d="M263 667 L142 667 L142 360 L66 360 L66 294 L142 294 L142 206 L66 206 L66 150 L142 150 L142 0 L216 0 L216 150 L380 150 L380 206 L216 206 L216 294 L281 294 C318 294 389 298 442 350 C470 377 492 418 492 477 C492 532 471 580 440 611 C389 662 321 667 263 667 L263 667 Z M216 597 L271 597 C304 597 356 594 390 559 C414 535 418 506 418 483 C418 435 398 409 389 399 C371 380 336 360 277 360 L216 360 L216 597 Z " />
<glyph glyph-name="&amp;#x20c3;" unicode="&#x20c3;" horiz-adv-x="568" d="M263 667 L142 667 L142 360 L66 360 L66 294 L142 294 L142 206 L66 206 L66 150 L142 150 L142 0 L216 0 L216 150 L380 150 L380 206 L216 206 L216 294 L281 294 C318 294 389 298 442 350 C470 377 492 418 492 477 C492 532 471 580 440 611 C389 662 321 667 263 667 L263 667 Z M216 597 L271 597 C304 597 356 594 390 559 C414 535 418 506 418 483 C418 435 398 409 389 399 C371 380 336 360 277 360 L216 360 L216 597 Z " />
<glyph glyph-name="&amp;#x20c4;" unicode="&#x20c4;" horiz-adv-x="568" d="M263 667 L142 667 L142 360 L66 360 L66 294 L142 294 L142 206 L66 206 L66 150 L142 150 L142 0 L216 0 L216 150 L380 150 L380 206 L216 206 L216 294 L281 294 C318 294 389 298 442 350 C470 377 492 418 492 477 C492 532 471 580 440 611 C389 662 321 667 263 667 L263 667 Z M216 597 L271 597 C304 597 356 594 390 559 C414 535 418 506 418 483 C418 435 398 409 389 399 C371 380 336 360 277 360 L216 360 L216 597 Z " />
<glyph glyph-name="&amp;#x20c5;" unicode="&#x20c5;" horiz-adv-x="568" d="M263 667 L142 667 L142 360 L66 360 L66 294 L142 294 L142 206 L66 206 L66 150 L142 150 L142 0 L216 0 L216 150 L380 150 L380 206 L216 206 L216 294 L281 294 C318 294 389 298 442 350 C470 377 492 418 492 477 C492 532 471 580 440 611 C389 662 321 667 263 667 L263 667 Z M216 597 L271 597 C304 597 356 594 390 559 C414 535 418 506 418 483 C418 435 398 409 389 399 C371 380 336 360 277 360 L216 360 L216 597 Z " />
<glyph glyph-name="&amp;#x20c6;" unicode="&#x20c6;" horiz-adv-x="568" d="M263 667 L142 667 L142 360 L66 360 L66 294 L142 294 L142 206 L66 206 L66 150 L142 150 L142 0 L216 0 L216 150 L380 150 L380 206 L216 206 L216 294 L281 294 C318 294 389 298 442 350 C470 377 492 418 492 477 C492 532 471 580 440 611 C389 662 321 667 263 667 L263 667 Z M216 597 L271 597 C304 597 356 594 390 559 C414 535 418 506 418 483 C418 435 398 409 389 399 C371 380 336 360 277 360 L216 360 L216 597 Z " />
<glyph glyph-name="&amp;#x20c7;" unicode="&#x20c7;" horiz-adv-x="568" d="M263 667 L142 667 L142 360 L66 360 L66 294 L142 294 L142 206 L66 206 L66 150 L142 150 L142 0 L216 0 L216 150 L380 150 L380 206 L216 206 L216 294 L281 294 C318 294 389 298 442 350 C470 377 492 418 492 477 C492 532 471 580 440 611 C389 662 321 667 263 667 L263 667 Z M216 597 L271 597 C304 597 356 594 390 559 C414 535 418 506 418 483 C418 435 398 409 389 399 C371 380 336 360 277 360 L216 360 L216 597 Z " />
<glyph glyph-name="&amp;#x20c8;" unicode="&#x20c8;" horiz-adv-x="568" d="M263 667 L142 667 L142 360 L66 360 L66 294 L142 294 L142 206 L66 206 L66 150 L142 150 L142 0 L216 0 L216 150 L380 150 L380 206 L216 206 L216 294 L281 294 C318 294 389 298 442 350 C470 377 492 418 492 477 C492 532 471 580 440 611 C389 662 321 667 263 667 L263 667 Z M216 597 L271 597 C304 597 356 594 390 559 C414 535 418 506 418 483 C418 435 398 409 389 399 C371 380 336 360 277 360 L216 360 L216 597 Z " />
<glyph glyph-name="&amp;#x20c9;" unicode="&#x20c9;" horiz-adv-x="568" d="M263 667 L142 667 L142 360 L66 360 L66 294 L142 294 L142 206 L66 206 L66 150 L142 150 L142 0 L216 0 L216 150 L380 150 L380 206 L216 206 L216 294 L281 294 C318 294 389 298 442 350 C470 377 492 418 492 477 C492 532 471 580 440 611 C389 662 321 667 263 667 L263 667 Z M216 597 L271 597 C304 597 356 594 390 559 C414 535 418 506 418 483 C418 435 398 409 389 399 C371 380 336 360 277 360 L216 360 L216 597 Z " />
<glyph glyph-name="&amp;#x20ca;" unicode="&#x20ca;" horiz-adv-x="568" d="M263 667 L142 667 L142 360 L66 360 L66 294 L142 294 L142 206 L66 206 L66 150 L142 150 L142 0 L216 0 L216 150 L380 150 L380 206 L216 206 L216 294 L281 294 C318 294 389 298 442 350 C470 377 492 418 492 477 C492 532 471 580 440 611 C389 662 321 667 263 667 L263 667 Z M216 597 L271 597 C304 597 356 594 390 559 C414 535 418 506 418 483 C418 435 398 409 389 399 C371 380 336 360 277 360 L216 360 L216 597 Z " />
<glyph glyph-name="&amp;#x20cb;" unicode="&#x20cb;" horiz-adv-x="568" d="M263 667 L142 667 L142 360 L66 360 L66 294 L142 294 L142 206 L66 206 L66 150 L142 150 L142 0 L216 0 L216 150 L380 150 L380 206 L216 206 L216 294 L281 294 C318 294 389 298 442 350 C470 377 492 418 492 477 C492 532 471 580 440 611 C389 662 321 667 263 667 L263 667 Z M216 597 L271 597 C304 597 356 594 390 559 C414 535 418 506 418 483 C418 435 398 409 389 399 C371 380 336 360 277 360 L216 360 L216 597 Z " />
<glyph glyph-name="&amp;#x20cc;" unicode="&#x20cc;" horiz-adv-x="568" d="M263 667 L142 667 L142 360 L66 360 L66 294 L142 294 L142 206 L66 206 L66 150 L142 150 L142 0 L216 0 L216 150 L380 150 L380 206 L216 206 L216 294 L281 294 C318 294 389 298 442 350 C470 377 492 418 492 477 C492 532 471 580 440 611 C389 662 321 667 263 667 L263 667 Z M216 597 L271 597 C304 597 356 594 390 559 C414 535 418 506 418 483 C418 435 398 409 389 399 C371 380 336 360 277 360 L216 360 L216 597 Z " />
<glyph glyph-name="&amp;#x20cd;" unicode="&#x20cd;" horiz-adv-x="568" d="M263 667 L142 667 L142 360 L66 360 L66 294 L142 294 L142 206 L66 206 L66 150 L142 150 L142 0 L216 0 L216 150 L380 150 L380 206 L216 206 L216 294 L281 294 C318 294 389 298 442 350 C470 377 492 418 492 477 C492 532 471 580 440 611 C389 662 321 667 263 667 L263 667 Z M216 597 L271 597 C304 597 356 594 390 559 C414 535 418 506 418 483 C418 435 398 409 389 399 C371 380 336 360 277 360 L216 360 L216 597 Z " />
<glyph glyph-name="&amp;#x20ce;" unicode="&#x20ce;" horiz-adv-x="568" d="M263 667 L142 667 L142 360 L66 360 L66 294 L142 294 L142 206 L66 206 L66 150 L142 150 L142 0 L216 0 L216 150 L380 150 L380 206 L216 206 L216 294 L281 294 C318 294 389 298 442 350 C470 377 492 418 492 477 C492 532 471 580 440 611 C389 662 321 667 263 667 L263 667 Z M216 597 L271 597 C304 597 356 594 390 559 C414 535 418 506 418 483 C418 435 398 409 389 399 C371 380 336 360 277 360 L216 360 L216 597 Z " />
<glyph glyph-name="&amp;#x20cf;" unicode="&#x20cf;" horiz-adv-x="568" d="M263 667 L142 667 L142 360 L66 360 L66 294 L142 294 L142 206 L66 206 L66 150 L142 150 L142 0 L216 0 L216 150 L380 150 L380 206 L216 206 L216 294 L281 294 C318 294 389 298 442 350 C470 377 492 418 492 477 C492 532 471 580 440 611 C389 662 321 667 263 667 L263 667 Z M216 597 L271 597 C304 597 356 594 390 559 C414 535 418 506 418 483 C418 435 398 409 389 399 C371 380 336 360 277 360 L216 360 L216 597 Z " />
<glyph glyph-name="uni20B8" unicode="&#x20b8;" horiz-adv-x="568" d="M483 487 L483 557 L85 557 L85 487 L247 487 L247 0 L321 0 L321 487 L483 487 Z M483 607 L483 667 L85 667 L85 607 L483 607 Z " />
<glyph glyph-name="afii61352" unicode="&#x2116;" horiz-adv-x="1020" d="M160 0 L160 499 L626 -30 L626 667 L552 667 L552 166 L86 695 L86 0 L160 0 Z M845 667 C764 667 700 603 700 522 C700 441 764 377 845 377 C926 377 990 441 990 522 C990 603 926 667 845 667 L845 667 Z M845 432 C798 432 760 472 760 522 C760 572 798 612 845 612 C894 612 930 571 930 522 C930 473 894 432 845 432 L845 432 Z M720 227 L970 227 L970 297 L720 297 L720 227 Z " />
<glyph glyph-name="uni2117" unicode="&#x2117;" horiz-adv-x="740" d="M263 519 L263 145 L317 145 L317 303 L348 303 C383 303 422 309 447 334 C462 349 475 375 475 411 C475 452 459 476 447 488 C419 517 376 519 337 519 L263 519 Z M317 471 L337 471 C363 471 392 470 408 452 C419 440 421 424 421 412 C421 397 418 380 404 368 C387 352 361 351 339 351 L317 351 L317 471 Z M715 332 C715 444 665 522 621 569 C569 624 486 676 370 676 C254 676 171 624 119 569 C75 522 25 444 25 332 C25 219 75 141 119 94 C171 39 254 -13 370 -13 C486 -13 569 39 621 94 C665 141 715 219 715 332 L715 332 Z M370 620 C442 620 521 589 573 538 C629 484 659 405 659 332 C659 258 629 179 573 125 C521 74 442 43 370 43 C298 43 219 74 167 125 C111 179 81 258 81 332 C81 405 111 484 167 538 C219 589 298 620 370 620 L370 620 Z " />
<glyph glyph-name="trademark" unicode="&#x2122;" horiz-adv-x="722" d="M234 621 L234 667 L4 667 L4 621 L94 621 L94 287 L144 287 L144 621 L234 621 Z M316 287 L353 544 L478 268 L605 544 L640 287 L686 287 L625 691 L478 376 L335 691 L270 287 L316 287 Z " />
<glyph glyph-name="partialdiff" unicode="&#x2202;" horiz-adv-x="524" d="M83 604 C150 599 222 575 267 546 C300 525 364 474 391 389 L389 389 C370 408 331 437 256 437 C126 437 42 337 42 212 C42 88 129 -12 262 -12 C318 -12 392 7 441 84 C455 106 482 155 482 249 C482 293 476 387 437 462 C414 506 367 562 319 596 C259 639 175 666 100 673 L83 604 Z M408 218 C408 129 350 52 262 52 C191 52 116 106 116 210 C116 305 177 373 265 373 C354 373 408 302 408 218 L408 218 Z " />
<glyph glyph-name="product" unicode="&#x220f;" horiz-adv-x="698" d="M36 684 L114 684 L114 -184 L36 -184 L36 -250 L269 -250 L269 -184 L188 -184 L188 684 L510 684 L510 -184 L428 -184 L428 -250 L662 -250 L662 -184 L584 -184 L584 684 L662 684 L662 750 L36 750 L36 684 Z " />
<glyph glyph-name="summation" unicode="&#x2211;" horiz-adv-x="686" d="M32 750 L32 704 L284 272 L32 -204 L32 -250 L614 -250 L614 -37 L540 -37 L540 -184 L126 -184 L368 271 L130 684 L532 684 L532 535 L606 535 L606 750 L32 750 Z " />
<glyph glyph-name="minus" unicode="&#x2212;" horiz-adv-x="500" d="M33 300 L467 300 L467 366 L33 366 L33 300 Z " />
<glyph glyph-name="uni2215" unicode="&#x2215;" horiz-adv-x="592" d="M0 -170 L58 -198 L572 729 L514 759 L0 -170 Z " />
<glyph glyph-name="uni2219" unicode="&#x2219;" horiz-adv-x="200" d="M36 340 C36 306 66 276 100 276 C134 276 164 306 164 340 C164 374 134 404 100 404 C66 404 36 374 36 340 L36 340 Z " />
<glyph glyph-name="radical" unicode="&#x221a;" horiz-adv-x="668" d="M409 827 L213 98 L211 98 L141 366 L0 366 L0 300 L83 300 L165 0 L254 0 L469 761 L668 761 L668 827 L409 827 Z " />
<glyph glyph-name="infinity" unicode="&#x221e;" horiz-adv-x="668" d="M336 292 C362 247 417 187 499 187 C587 187 649 250 649 339 C649 430 586 493 499 493 C416 493 360 432 333 388 C302 439 245 493 171 493 C82 493 19 429 19 341 C19 251 82 187 171 187 C251 187 308 246 336 292 L336 292 Z M489 429 C541 429 575 388 575 340 C575 285 535 251 490 251 C444 251 396 292 370 340 C390 374 434 429 489 429 L489 429 Z M179 251 C140 251 93 279 93 339 C93 388 126 429 178 429 C229 429 275 385 298 340 C279 307 236 251 179 251 L179 251 Z " />
<glyph glyph-name="integral" unicode="&#x222b;" horiz-adv-x="500" d="M404 739 C380 747 353 750 337 750 C290 750 257 731 240 711 C212 677 213 629 213 584 L213 -84 C213 -127 213 -156 199 -171 C192 -179 179 -186 159 -186 C148 -186 129 -184 112 -175 L96 -239 C120 -247 147 -250 163 -250 C210 -250 243 -231 260 -211 C288 -177 287 -129 287 -84 L287 584 C287 627 287 656 301 671 C308 679 321 686 341 686 C352 686 371 684 388 675 L404 739 Z " />
<glyph glyph-name="approxequal" unicode="&#x2248;" horiz-adv-x="500" d="M446 488 C439 474 427 456 414 444 C397 427 376 420 353 420 C322 420 288 438 258 452 C216 472 182 486 145 486 C111 486 82 475 58 448 C43 431 22 396 10 370 L54 344 C62 362 75 384 89 396 C104 409 121 416 141 416 C167 416 191 405 236 384 C271 368 305 350 344 350 C385 350 416 365 440 389 C461 409 479 437 490 462 L446 488 Z M446 322 C439 308 427 290 414 278 C397 261 376 254 353 254 C322 254 288 272 258 286 C216 306 182 320 145 320 C111 320 82 309 58 282 C43 265 22 230 10 204 L54 178 C62 196 75 218 89 230 C104 243 121 250 141 250 C167 250 191 239 236 218 C271 202 305 184 344 184 C385 184 416 199 440 223 C461 243 479 271 490 296 L446 322 Z " />
</font>
</svg>
